/* XPM */
static char *_267796ccf3d47ba93d4cd5b7abdc9fbWFz5PbShSktA5LDB[] = {
/* columns rows colors chars-per-pixel */
"60 60 190 2 ",
"   c None",
".  c #2A1A1C",
"X  c #341B15",
"o  c #3D1B12",
"O  c #311B19",
"+  c #3D1F19",
"@  c #3D211D",
"#  c #35201E",
"$  c #2F1E20",
"%  c #332223",
"&  c #3C2424",
"*  c #3C2728",
"=  c #3D282A",
"-  c #421E11",
";  c #481F10",
":  c #45230F",
">  c #4D230F",
",  c #54240F",
"<  c #59260F",
"1  c #5F290F",
"2  c #432213",
"3  c #4A2411",
"4  c #4E2911",
"5  c #492518",
"6  c #4C2B1C",
"7  c #472819",
"8  c #532511",
"9  c #592711",
"0  c #552A13",
"q  c #5B2D14",
"w  c #532C1D",
"e  c #592F1E",
"r  c #4C341E",
"t  c #5E3014",
"y  c #54331F",
"u  c #5F321E",
"i  c #642C0E",
"p  c #6B2E0E",
"a  c #6B370E",
"s  c #73310D",
"d  c #7B350D",
"f  c #773F0C",
"g  c #642C10",
"h  c #633215",
"j  c #6B3616",
"k  c #66351E",
"l  c #743410",
"z  c #793410",
"x  c #753F12",
"c  c #552F20",
"v  c #4F3921",
"b  c #553424",
"n  c #5C3623",
"m  c #543F25",
"M  c #5C3A22",
"N  c #5F3928",
"B  c #55372F",
"V  c #633925",
"C  c #653D2A",
"Z  c #693F2B",
"A  c #653925",
"S  c #703C20",
"D  c #77440D",
"F  c #7F4512",
"G  c #5A4B2B",
"H  c #574427",
"J  c #634026",
"K  c #61422B",
"L  c #6B422C",
"P  c #684C2C",
"I  c #7B482A",
"U  c #63512F",
"Y  c #69522F",
"T  c #77522F",
"R  c #6D4C38",
"E  c #674534",
"W  c #754A33",
"Q  c #714F3B",
"!  c #655431",
"~  c #685732",
"^  c #6D5932",
"/  c #775234",
"(  c #715C35",
")  c #7F5138",
"_  c #7B5237",
"`  c #7B653A",
"'  c #7A663A",
"]  c #7B5941",
"[  c #79625B",
"{  c #81370C",
"}  c #85390C",
"|  c #8C3C0C",
" . c #923F0D",
".. c #803810",
"X. c #863A10",
"o. c #913F10",
"O. c #96410D",
"+. c #99410B",
"@. c #964514",
"#. c #8E560B",
"$. c #A3460C",
"%. c #AB4A0D",
"&. c #B34D0E",
"*. c #BC510E",
"=. c #A75817",
"-. c #B8591D",
";. c #AD6313",
":. c #805D35",
">. c #8A5A3F",
",. c #865438",
"<. c #895228",
"1. c #946E3F",
"2. c #AF6331",
"3. c #C4550F",
"4. c #C65A16",
"5. c #CF7A14",
"6. c #D67B3E",
"7. c #835E45",
"8. c #85644B",
"9. c #956345",
"0. c #9F6C4C",
"q. c #877041",
"w. c #8C7041",
"e. c #927744",
"r. c #9E7844",
"t. c #977D48",
"y. c #927154",
"u. c #9E7D5E",
"i. c #856650",
"p. c #A06D4D",
"a. c #AB7552",
"s. c #AC7957",
"d. c #B67E58",
"f. c #DD870F",
"g. c #E59506",
"h. c #E18C0D",
"j. c #EFA102",
"k. c #F8A702",
"l. c #FBB521",
"z. c #FCBA30",
"x. c #A78149",
"c. c #BB9354",
"v. c #AA8968",
"b. c #A48160",
"n. c #B69572",
"m. c #B08562",
"M. c #C1875F",
"N. c #C39A58",
"B. c #CEA55E",
"V. c #FCBF40",
"C. c #C18760",
"Z. c #C28C65",
"A. c #CC9067",
"S. c #C8946B",
"D. c #D7996D",
"F. c #D8AF63",
"G. c #C2A27B",
"H. c #DEAC7F",
"J. c #D7A478",
"K. c #E2A374",
"L. c #E5AB7C",
"P. c #EDAB7A",
"I. c #E7A776",
"U. c #FCCA60",
"Y. c #CEAE85",
"T. c #DEAC80",
"R. c #DBBA8F",
"E. c #DFB285",
"W. c #D5B69E",
"Q. c #EDB282",
"!. c #EABB8B",
"~. c #E4BA8C",
"^. c #F3BE8B",
"/. c #F1B685",
"(. c #E1BC99",
"). c #E6C698",
"_. c #EDC495",
"`. c #F6C492",
"'. c #F7C896",
"]. c #F8CC9A",
"[. c #FAD29F",
"{. c #F4C28F",
"}. c #F3D3A2",
"|. c #FBD5A2",
" X c #FDD8A6",
".X c #FFDFAC",
"XX c #FFDFAC",
"oX c #FBD9B2",
"OX c #FFE5BC",
"+X c #FFEBCB",
/* pixels */
"                                                                                                                        ",
"                                                                                                                        ",
"                                                o 8 8 o       8 g g 8                                                   ",
"                                            9 $.3.3.3.*. .g X.3.3.3.3.%.l                                               ",
"                                            %.3.3.3.3.3.3.3. .&.3.3.3.3.3.z o o                                         ",
"                                          j z 3.3.3.3.3.3.3.3.3.3.3.3.3.3.3.p +.j                                       ",
"                                          +. .z +.&.3.&.+.O.3.*.3.3.3.3.3.*.$.+.*.z                                     ",
"                                          | d &.*.*.&.+.q u s | l &.3.3.3.+.%.+.&.*.3                                   ",
"                                          8 d > s s s k A.P.A.a.9.,.i d s p d +.$.3.9                                   ",
"                                            o H.J.S.J.|..X|.].|. X].T.>.i  .+.+.+.%. .3                                 ",
"                                            o R..X.X.X.Xn.8.Q ) 2.I G.E.< +.+.+.+.+.3.$.o                               ",
"                                              u..X.X.X/  .*.3.3.3.3.w }.N O.} i i | 3.3.o                               ",
"                                              $.I }..Xw *.*.*.%.| *.g )._ { ] }.~.k &.3.;                               ",
"                                            o %. .v..Xu.p +.+.{ 1 } u |.] 8..X`.D.a.O...o                               ",
"                                              < s R .X!.9.b B E w 9.D.P.Q. Xv.Z C.M.p *.g                               ",
"                                                o Q .X|.S.N [ [ m.P.P.P.P.Q.L Z K.p.s %.o.o                             ",
"                                                5 H..X.X.X.XR.n.n.^.P.D.9.a.A.D.A.n | $.$.< >                           ",
"                                              b.Z _..X.X.X X X.X.X.X'.P.P.C.e ) L s +.$.z s | o                         ",
"                                              E W.+X.X.X.X}.s.]. X.X XP.P.P.=.p p +.+.O.8 +.+., o o                     ",
"                                              s..XOX.X.X.X.XJ.>.P.Q.P.P.I.6.*.$.i | &.%.3.+.+.i 8 3 2 -                 ",
"                                            o s.XX.X X!.L.{.P.n 2.-.<.<.4.3.3.3.$.} *.3.3.%.+.p 3 0 h 0 3 o             ",
"                                          - 3 w A.J.p.A D.D.>.1 $.3.3...8 *.3.3.*.+.*.3.3.3.+.s 3 : q 3 3 0 -           ",
"                                        o - }  ., 1 s  .| d | $.*.3.*.3.} 9 3.3.3.&.3.3.3.3.$.s 3 h h t h h 3 o         ",
"                                      o 2 < *.3.$.~._.I +.$.3.3.3.3.$.*.&.< o.3.3.3.3.%.3.3.$.s 3 t 3 3 j 3 4 0 o       ",
"                                    o : 2 d &.*.@.(.oX7.{ +.&.*.$.&.*.+.&.s 9 *.3.3.3.%.%.3.%.s 3 : 0 h 4 3 h h -       ",
"                                  - 0 3 - } %.*.O.e a.>.< +.+.&.*.+.%.+.$.} 3 +.3.3.3.&.+.*.$.s q h h q 4 h h 3 3 -     ",
"                                  2 q h 3 $.$.+.{ } s s > p +.+.%.%.+.+.+.} > +.$.3.3.&.+.$.+.i h 4 3 h q : h t h q o   ",
"                                o 0 4 0 2  .p < { +.+.+. ., 1 | +.+.+.+.+.d < +.+.*.3.$.{ +.+.> q 0 0 t 0 : h 4 q q o   ",
"                                o 2 0 3 - , { +.&.*.%.&.%.+.s > < s | +.+.i i +.+.%.&.+.1 +.d 2 h 3 : 0 t t j h 0 q -   ",
"                                o b b o < $.*.3.3.3.3.3.3.*.%.+.} 1 ; < i ; { +.+. .+.| < } 3 3 j h 0 h 3 3 h 4 4 t 2   ",
"                                b )..XG...3.3.3.3.3.3.3.3.3.3.*.%.+.s } s < +.+.+.p +.d 3 3 t t 3 4 h 3 q q 0 t 4 : o   ",
"                              o n..X.Xu.o.3.3.3.3.3.3.3.3.3.3.3.3.&.a D f i { +.s 1 | 3 : h h 0 4 0 q 3 4 : : : 2 o     ",
"                              R .X.X).3 X.3.3.3.3.3.3.3.3.3.3.3.3.a j.V.z.g.#.- 3 | 3 @ w - 2 2 : 2 2 2 : 2 b W W o     ",
"                              y..X.Xi.N.z 3.3.3.3.3.*.3.3.3.3.3.*.D k.l.U.l.k.F s s & & 9.Q.Y.G.n.G.Y.G.n.R.[.P.M.o     ",
"                              y..X.X<.g.l 3.3.3.3.3.%.*.3.3.*.3.&.h 5.5.f.g.h.x { 3 = & ) /..X.X.X.X.X.X.X.X XP.D.o     ",
"                              Q .X.Xu.x g 3.3.3.3.3.+.*.3.3.$.3.o.9 g l x ;.=.3 } @ = = c P.^.[. X.X.X.X.X.X XP.D.o     ",
"            o b 8.Q o     o 6 E Y..XR.8 3 *.*.%.3.*.+.*.3.*.+.3.g %.3.3.O.i 3 | 1 & * & + W W L p.[..X.X.X.X XP.P.o     ",
"          R Y.XXXX}.y.o R v.}..XR..X}.8  ...%.%.3.&.+.&.3.%.+.*.9 &.3.3. .i 3 < - - o 8 3 t 3 h 0 ] )..X.X.X[.P.P.o     ",
"        o K b b b 8.}.n `..X.X.X.X.X.XA %.1 O.%.3.%.+.&.3.$.+.3.g &.*.z L p.K.P.C.0 0 0 0 h q - q h n }..X.X].P.P.n     ",
"    E G.}..X.X.XY.5 8.n /..X.X.X.X.X.XS +.d < +.3.$.+.&.*.+.$.3.z ..w a.M.Z a.P.P.Z 0 q 0 3 j 8 - 0 q y..X.X`.P.P.5     ",
"    Y..X.X.X.X.XXXK L A./..X.X.X.X.X X1 { ; + { *.$.+.&.+.+.%.*.d 5 D.A.,.p.K.Q.].!.w q h 2 3 j 2 0 0 ; }..X^.P.P.Z     ",
"    G..X.X.XY.u.R y.N L. X.X.X.X.X.X).) w . & 8 +.+.+.+.+.+.$.+. .e P./.`.'.[..X.X.XJ.5 h h - 0 h 2 q - u.`.P.P.P.c     ",
"    y..X.X.X)..X.X.Xv.u..X.X.X.X.X.X.XP.Z . = @ s +.+.+.+.+.+.+.O.< K.XX.X.X.X.X.X.X X9.- j q - j h - h 5 P.P.K.V       ",
"    b .X.X.X.X.X.X}.v.7 8.)..X.X.X.X'.P.Z . = = 8 +.+.+.+.+. .p - + p.L.]..X.X.X.X.X.XQ.5 0 j 3 0 j 3 0 0 C.M.C         ",
"    o }..X.X.X}.y.8.y.8.).R .X.X.X'.P.P.Z . * = @  .+.| s 8 + & * * Z K.'..X.X.X.X.X.X[.>.- j h - j h - h 5 :.c.        ",
"      y..X.X.X.X.X.X.XK .XY.n.].Q.P.P.P.Z . * = & < - @ & * = % = = L P..X.X.X.X.X.X.X.XZ.o h j - h j 2 X P F.B.o       ",
"      o Y..X.X.X.XXXY.K }..XZ.P.P.P.P.M.5 . & = = . & = = = & . = = @ K.^.[..X.X.X.X.X[.I.o h j 8 2 - O . T F.F.5       ",
"        c H. X).y.>.9.K.'.`.P.P.P.M.L o X . % = & . % = = = % . * = & w 9.Q..X X'.^.P.P.P.5 q 0 X . . . . T F.F.M       ",
"          V M.) K.P.P.P.P.P.K.a.L o     X . % = % . % = = = . . % = = + A.P.^.P.P.P.P.P.D.5 X . . . . . . J F.F./       ",
"            5 n >.L c V C n o           X . $ = . . . = = * . . % = = & X ) d.M.d.0.) b + & . . . . . . . J F.F.1.      ",
"                                        o X X @ O O O @ & O . . # & & O . X X + + + @ @ @ & O X X X 6 K P :.F.F.N.o     ",
"                                          7 U Y Y Y Y U m r n :.r.r.r.r.r.x.x.7 ~ ^ ^ ^ ^ ~ G H J F.B.F.F.F.B.x.x.5     ",
"                                          6 e.t.t.t.t.e.G r o o 5 M L y 7 o o 6 w.t.t.t.t.e.~ H o o o 5 L n o           ",
"                                          o o m ( Y m v r o                     o r ! U m v r o                         ",
"                                            o ` q.q.q.^ H o                       K ` q.q.` G o                         ",
"                                        2 b y H ( t.t.' H o                 o 7 y M K w.t.t.U 7                         ",
"                                      K e.t.t.t.t.e.t.' G o             o K e.t.t.t.t.e.t.t.G r o                       ",
"                                    o G U ! ~ ~ ~ ~ ! G H o             2 G ! ~ ~ ~ ( ( ( ! G m o                       ",
"                                    o o o 2 2 2 2 2 2 o o o             o o 2 2 7 7 7 7 7 2 o o o                       ",
"                                                                                                                        "
};
