/* XPM */
static char *_1714399508[] = {
/* columns rows colors chars-per-pixel */
"60 60 188 2 ",
"   c None",
".  c #2A1A1C",
"X  c #341B16",
"o  c #3D1B11",
"O  c #321B19",
"+  c #3D1F19",
"@  c #3D211D",
"#  c #301F21",
"$  c #342224",
"%  c #3C2424",
"&  c #3B2628",
"*  c #3D282A",
"=  c #421E11",
"-  c #481F10",
";  c #45240F",
":  c #4B240F",
">  c #54240F",
",  c #59260F",
"<  c #5F290F",
"1  c #432213",
"2  c #4B2411",
"3  c #4E2811",
"4  c #492519",
"5  c #4B2B1B",
"6  c #462719",
"7  c #532511",
"8  c #542B13",
"9  c #5B2D14",
"0  c #532D1E",
"q  c #592F1B",
"w  c #4A321D",
"e  c #5E3014",
"r  c #54331F",
"t  c #5E321D",
"y  c #652C0E",
"u  c #6A2E0E",
"i  c #65330E",
"p  c #73310D",
"a  c #7B350D",
"s  c #622C10",
"d  c #643315",
"f  c #6C3515",
"g  c #63341E",
"h  c #703110",
"j  c #7B3610",
"k  c #753D18",
"l  c #552F20",
"z  c #4F3921",
"x  c #563424",
"c  c #5B3524",
"v  c #523D24",
"b  c #5D3A24",
"n  c #5F3A29",
"m  c #55382F",
"M  c #603726",
"N  c #633B24",
"B  c #693F2B",
"V  c #653B26",
"C  c #7C470D",
"Z  c #7F4512",
"A  c #5A4B2B",
"S  c #594327",
"D  c #624026",
"F  c #6C422C",
"G  c #6B4A2C",
"H  c #64452D",
"J  c #7B4526",
"K  c #63522F",
"L  c #69522F",
"P  c #6E4B36",
"I  c #6D4C38",
"U  c #684431",
"Y  c #754A33",
"T  c #704E3A",
"R  c #794A31",
"E  c #685732",
"W  c #6D5933",
"Q  c #665431",
"!  c #705D36",
"~  c #75513A",
"^  c #7F5138",
"/  c #775232",
"(  c #77532F",
")  c #79643A",
"_  c #7B5942",
"`  c #6D544D",
"'  c #79625B",
"]  c #81370C",
"[  c #84390D",
"{  c #8C3C0C",
"}  c #923F0D",
"|  c #813810",
" . c #853A10",
".. c #913F10",
"X. c #96410D",
"o. c #99410B",
"O. c #9A4210",
"+. c #9B5B0F",
"@. c #A3460D",
"#. c #AB4A0D",
"$. c #B34D0E",
"%. c #B94F0E",
"&. c #BC510E",
"*. c #AE5B18",
"=. c #8A5A3E",
"-. c #835537",
";. c #834E2C",
":. c #B35E27",
">. c #87683C",
",. c #986A37",
"<. c #A06237",
"1. c #C4550F",
"2. c #CD7116",
"3. c #C6672A",
"4. c #825B42",
"5. c #86644B",
"6. c #856140",
"7. c #956345",
"8. c #9F6C4C",
"9. c #877041",
"0. c #8C7141",
"q. c #917644",
"w. c #9E7844",
"e. c #977D48",
"r. c #927154",
"t. c #9E7C5D",
"y. c #A06D4D",
"u. c #AB7552",
"i. c #AC7856",
"p. c #A47958",
"a. c #B67E59",
"s. c #85706A",
"d. c #DD870F",
"f. c #E59209",
"g. c #E28D0D",
"h. c #EFA102",
"j. c #F9A702",
"k. c #FBAF11",
"l. c #FCB829",
"z. c #A78149",
"x. c #B58757",
"c. c #AC8A69",
"v. c #B5936A",
"b. c #B69572",
"n. c #C0865F",
"m. c #C49C59",
"M. c #D88045",
"N. c #CEA65E",
"B. c #C18760",
"V. c #C28B64",
"C. c #CC9067",
"Z. c #C5946C",
"A. c #D7996D",
"S. c #D59C71",
"D. c #D8AF63",
"F. c #C2A27B",
"G. c #DCAB7E",
"H. c #D8A67A",
"J. c #E2A374",
"K. c #E5AC7C",
"L. c #EDAB7A",
"P. c #FCC450",
"I. c #FCCF70",
"U. c #CEAE85",
"Y. c #DEAE81",
"T. c #DABA8F",
"R. c #D4B29B",
"E. c #EEB281",
"W. c #E7B889",
"Q. c #F3BC8A",
"!. c #F1B785",
"~. c #E1BD9D",
"^. c #F4C28F",
"/. c #E7C698",
"(. c #E8C496",
"). c #F6C492",
"_. c #F7C896",
"`. c #F8CD9A",
"'. c #F2CF9F",
"]. c #FAD29F",
"[. c #F2CFA2",
"{. c #F3D2A2",
"}. c #FCD5A2",
"|. c #FDD8A6",
" X c #FFDFAC",
".X c #F8D6B3",
"XX c #FEE0B9",
"oX c #FFE9C6",
/* pixels */
"                                                                                                                        ",
"                                                                                                                        ",
"                                                  7 s s s       o 8 7 o                                                 ",
"                                              s @.1.1.1.1.f s @.&.1.1.1.@.7                                             ",
"                                        o o | 1.1.1.1.1.$.o.1.1.1.1.1.1.1.#.                                            ",
"                                      f } p 1.1.1.1.1.1.1.1.1.1.1.1.1.1.1.| 9                                           ",
"                                    | 1.o.o.1.1.1.1.1.1.1.1.O...#.1.$.O.h @.@.                                          ",
"                                  o $.#.o.#.@.&.1.1.&.j ] p R 9 o.$.%.%.#.j {                                           ",
"                                  y 1.@.} ] p p a u B 7.i.C.L.C.c p p p 9 a ,                                           ",
"                                7 o.#.o.o.} } y 7.Y.`.|.}.`.}. X`.H.Z.Y.Y.o                                             ",
"                              o @.1.} o.o.o.o.< W.b.k <.7.Y r.b. X X X X/.o                                             ",
"                              o 1.1.{ y u { } 9  XV 1.1.1.1.&...Y  X X'.r.                                              ",
"                              7 1.&.M W./.4.[ ~ /.s &.[ #.%.1.1.c  X X;.@.2                                             ",
"                              o | X.u.A._.{.5.P |.q { y p o.o.y t. Xb.} @.o                                             ",
"                              2 &.h B.A.B F.|.K.L.A.7.4 ` m 4 7._. XI h u                                               ",
"                            o } #.h 8.L.B Y L.L.L.L.L.p.' s.x V.|. XP o                                                 ",
"                          : , @.@.] B A.A.A.y.u.A.L.W.b.b./. X X X XY.4                                                 ",
"                        o X.p [ @.o.u N =.M n.L.L._. X X X X|. X X X/.B v.                                              ",
"                    o o > o.o.< { o.} u f :.L.L.L.|. X X).y.|. X X XoXR._                                               ",
"                1 1 : 8 y o.o.&.@.&.} u #.1.3.L.L.L.L.L.=.G. X X X XoXXXu.                                              ",
"            o 3 8 d 8 : y o.$.1.1.&.] o.1.1.1.3.=.k *.3.F L.^.E.W.|. X Xi.o                                             ",
"          @ 8 ; : 8 ; 2 a o.&.1.1.1.o.&.1.1.&.7 { 1.1.@.y 7.A.J.R i.S.x.0 : o                                           ",
"        o 3 d f e d d 3 a o.1.1.1.1.$.1.1.1., a 1.1.&.&.@.{ p X.} a , , { } - o                                         ",
"      = 8 3 ; d 3 3 e 2 a @.1.1.#.1.1.1.1.X., $.1.@.1.1.1.1.@.o.;.[.H.#.1.&., = o                                       ",
"      ; f d 2 3 d 3 ; 3 p #.1.#.#.1.1.1.&.y p $.} &.$.@.1.$.} { -..X~.[ %.%.p ; ; o                                     ",
"    1 2 2 d e 3 e e e e f @.&.o.%.1.1.1.o.: ] @.} @.} 1.$.} } y Y u.M } &.#.{ = ; 9 =                                   ",
"  o 8 e e d ; e d 3 3 e i o.@.o.%.1.1.#.} : { o.o.o.$.$.} } u > u p { a o.@.o.3 e e =                                   ",
"  o 8 9 3 d ; 8 e 8 3 e , o.o.p @.1.1.} } < a o.o.} } o.} > > } o.o.} { > < { 1 8 3 8 o                                 ",
"  o e 3 d f e e 8 ; 3 f : ] } y } &.#.} o.y u o.} } a > > ] } #.%.#.&.$.o.a 1 o 3 3 2 o                                 ",
"  ; e 8 3 d 3 3 e e d f : : { > { } } } o.a : y , - u [ } #.1.1.1.1.1.1.1.$.@., 6 I x o                                 ",
"  o ; 3 e 8 e e 3 d 8 ; < e ; = ] } y } o.o., p { p } #.%.1.1.1.1.1.1.1.1.1.1.j b. X/.6                                 ",
"    o o ; ; o 3 ; e 8 3 3 f y - - { > a o.] y i a y $.1.1.1.1.1.1.1.1.1.1.1.1...t. X XU.o                               ",
"    @ ( B 0 ; o ; ; @ ; ; @ ; 2 % 7 { - = +.h.l.P.h.i 1.1.1.1.1.1.1.1.1.1.1.1.] : T. X XI                               ",
"    ; n.L.}.U.F.b.U.U.b.v.T.Y.7.* % h p j j.l.I.k.j.C &.1.1.1.1.1.&.1.1.1.1.1.] v.>. X Xr.                              ",
"    o A.L.|. X X X X X X X XQ.G * * 7 | Z g.f.d.d.2.d $.1.1.1.1.&.$.1.1.1.1.1.u f.,. X Xr.                              ",
"    o J.L.|. X X X X X|.`.).L.l * * =  .: +.*.Z s u 9 X.1.@.1.1.%.} 1.1.1.1.1.u Z r. X XU                               ",
"    o L.L.}. X X X X[.i.B B Y + % * % u { : y o.1.1.#.f 1.} %.1.%.} &.1.#.%.$.> 2 T. XF.H o       o ~ _ n o             ",
"    = L.L.}. X X X(.T 9 d 2 9 2 7 = = = , = y } 1.1.$.s 1.} $.1.&.} $.1.#.#.p } s  X XU. X{.b.V o 5.{. X{.T.5.          ",
"    c L.L._. X X/.x d 9 = 9 d 8 8 7 3 u.L.A.u.t h $.#.s 1.} @.1.$.} %.1.@.} , #.V  X X X X X X).x /._ U x x I o         ",
"    x L.L.). X X5.9 8 = 7 g 7 7 9 8 -.L.L.u.F a.u.g | j 1.o.@.%.$.} #.1.} y ] o.V  X X X X X X!.0 r.6 U. X X X{.U.x     ",
"    Y L.L.). X(.= 7 8 - f 4 2 d 9 0 Q.`.E.J.u.^ n.A.4 ] 1.@.o.o.1.} @.%.a o - j u [. X X X X X!.C.F I  X X X X X XF.    ",
"    c L.L.L.).5.= 9 - d 8 = d d o H. X X X]._.).Q.L.t { o.@.o.o.} @.} } - & . l -./. X X X X X|.E.n r.5.5.U. X X XF.    ",
"      V A.L.E.l d = d g o q d - 7.|. X X X X X X XJ.> o.o.o.o.o.o.} } j 6 * . B L. X X X X X X Xc.c. X X X/. X X X5.    ",
"        c C.x.7 9 4 f 7 2 f 7 l ^. X X X X X X].K.7.+ - a { o.o.o.o.} 4 * * . B L._. X X X X/._ x b./. X X X X X Xx     ",
"        x.>.0 s = g f = d f = -.]. X X X X X X_.A.c * * % @ > p { } } = & & . B L.L.). X X XI /.5.r.5.t.{. X X X/.o     ",
"      o N.D.( o = f d = f g o V. X X X X X X X|.L.U * * # & * % = = 2 6 & & . x L.L.L.E.`.b.F. Xx  X X X X X X Xr.      ",
"      5 D.D./ . O = - 2 d g o K.}. X X X X X}.Q.A.@ * * . & * * * & . * * & . = u.L.L.L.E.x. X[.x /. X X X X Xb.o       ",
"      N D.D.G . . . O = 9 d - L.L.L.Q.`.|. XL.u.0 % * & . $ * * * # . & * & . o o B B.L.L.L.).).S.=.4.r.(.}.G.l         ",
"      ( D.D.D . . . . . . o r A.L.L.L.L.E.!.L.x.@ * * $ . . & * * # . $ * $ . X       F i.J.L.L.L.L.L.A.c A.M           ",
"      w.D.D.N . . . . . . . % @ n -.y.B.B.u.-.X $ * * $ . . & * * # . . * $ . o           o c R l l B =.c 5             ",
"    o m.D.D.^ L D w X X X . @ @ % o o o o + O O O % % @ O . X @ # X X X % X X o                                         ",
"    r w.z.m.D.D.D.N.D.G S S E W W W W Q 6 w.z.8.w.w.w.w.>.0 w S P E Q P L K 1                                           ",
"          o D D 5 o o o S Q 9.z.e.e.e.0.4 o o 4 N H b 5   o w A q.e.e.e.e.q.r                                           ",
"                        X z z z K E x =                     o w z r W ! v o                                             ",
"                        @ A ) 9.>.9.S                       o S W 9.9.9.) o                                             ",
"                        6 A e.e.>.L w r 0 o                 o A ) e.q.G S r r 4                                         ",
"                      o z A e.z.q.z.q.z.z.>.A o             o A ) e.q.q.e.e.e.e.b                                       ",
"                      o v A E W ! ! E K E E K @             o A A Q E E E E K K A o                                     ",
"                      o o o 1 6 6 w @ @ 1 @ o o             o @ @ 1 @ o 1 1 ; @ o o                                     ",
"                                                                                                                        "
};
