/* XPM */
static char *a73a3a8fa66e4fb1c328512dd65fac86GAuJim7gmqTrrDSO[] = {
/* columns rows colors chars-per-pixel */
"60 60 186 2 ",
"   c None",
".  c #2B1A1B",
"X  c #331A16",
"o  c #3D1B11",
"O  c #341D1B",
"+  c #3D221D",
"@  c #37201F",
"#  c #301F21",
"$  c #352324",
"%  c #3C2423",
"&  c #3C2728",
"*  c #3D282A",
"=  c #421E11",
"-  c #481F10",
";  c #46250F",
":  c #4A250F",
">  c #53240F",
",  c #5A260F",
"<  c #5F290F",
"1  c #552D0F",
"2  c #452213",
"3  c #4A2411",
"4  c #4D2810",
"5  c #48261A",
"6  c #462B19",
"7  c #4C2B1C",
"8  c #472419",
"9  c #522512",
"0  c #542B13",
"q  c #5B2D13",
"w  c #512D1C",
"e  c #592C19",
"r  c #4B331E",
"t  c #5E3014",
"y  c #5D311E",
"u  c #55361F",
"i  c #642C0E",
"p  c #6A2E0E",
"a  c #6A360E",
"s  c #73320D",
"d  c #7B360D",
"f  c #773F0C",
"g  c #662D10",
"h  c #643315",
"j  c #6B3616",
"k  c #62331D",
"l  c #6B3912",
"z  c #723311",
"x  c #783410",
"c  c #763B1A",
"v  c #522E21",
"b  c #4F3921",
"n  c #563424",
"m  c #5D3624",
"M  c #533D23",
"N  c #5A3C24",
"B  c #5F3928",
"V  c #492920",
"C  c #693F2B",
"Z  c #613A27",
"A  c #7A470C",
"S  c #594B2B",
"D  c #584528",
"F  c #644025",
"G  c #6B4B2C",
"H  c #64442D",
"J  c #65512F",
"K  c #6D4C38",
"L  c #644331",
"P  c #744932",
"I  c #754F38",
"U  c #6D5331",
"Y  c #655430",
"T  c #755330",
"R  c #745A34",
"E  c #7F5138",
"W  c #7A5E37",
"Q  c #74442A",
"!  c #79653A",
"~  c #7F6A3D",
"^  c #746038",
"/  c #7A5842",
"(  c #79625B",
")  c #81370C",
"_  c #84390C",
"`  c #8C3C0C",
"'  c #923F0C",
"]  c #803810",
"[  c #883C10",
"{  c #913F10",
"}  c #96410D",
"|  c #99420B",
" . c #87510D",
".. c #9B5713",
"X. c #A2460D",
"o. c #AB4A0D",
"O. c #B34E0E",
"+. c #BC520E",
"@. c #A24610",
"#. c #805C35",
"$. c #8A5A3E",
"%. c #945227",
"&. c #8A653A",
"*. c #856B3E",
"=. c #81643A",
"-. c #946F3F",
";. c #B16833",
":. c #C4550F",
">. c #CE7814",
",. c #CE6B2A",
"<. c #8B5E42",
"1. c #86644B",
"2. c #956345",
"3. c #986647",
"4. c #877040",
"5. c #8D7242",
"6. c #977D48",
"7. c #9A7945",
"8. c #916E51",
"9. c #927054",
"0. c #9E7D5E",
"q. c #A06C4C",
"w. c #B57649",
"e. c #A16F50",
"r. c #AB7553",
"t. c #AA7E5C",
"y. c #B57E59",
"u. c #DB8411",
"i. c #E49408",
"p. c #E39D13",
"a. c #F7A603",
"s. c #F5A80A",
"d. c #A78149",
"f. c #B18A4E",
"g. c #BB9353",
"h. c #AA8968",
"j. c #BB8B65",
"k. c #B69672",
"l. c #BC9977",
"z. c #C1875F",
"x. c #CC8352",
"c. c #C49C59",
"v. c #D98045",
"b. c #E09058",
"n. c #CEA55E",
"m. c #FCBF40",
"M. c #C18760",
"N. c #C28C65",
"B. c #CC9067",
"V. c #C49169",
"C. c #D7996D",
"Z. c #D49466",
"A. c #D89C70",
"S. c #E59A66",
"D. c #D7AE63",
"F. c #D8AF63",
"G. c #C2A27B",
"H. c #CCA77F",
"J. c #D1A076",
"K. c #E2A273",
"L. c #E5AB7B",
"P. c #EDAB7A",
"I. c #FCC450",
"U. c #FCCF70",
"Y. c #B6A9A6",
"T. c #CEAE85",
"R. c #DBB58D",
"E. c #EFB180",
"W. c #E2B78A",
"Q. c #F0B583",
"!. c #F1B886",
"~. c #F3BD8B",
"^. c #F4C28F",
"/. c #E7C699",
"(. c #E5C396",
"). c #F6C492",
"_. c #F7C896",
"`. c #F8CD9A",
"'. c #FAD29F",
"]. c #F3D3A2",
"[. c #FCD5A2",
"{. c #FDD8A5",
"}. c #FFDFAC",
"|. c #FFEED3",
" X c #FFE9C6",
".X c #FFF7EA",
/* pixels */
"                        o 9 9 9 o       3 g z g q o                                                                     ",
"                    9 X.+.:.:.:.:.X.j 9 +.:.:.:.:.O.' 9                                                                 ",
"                    { :.:.:.:.:.:.:.:.O.` :.:.:.:.:.:.O.3 o o                                                           ",
"                  g z O.:.:.:.:.:.:.:.:.:.:.:.:.:.:.:.:.X.s | j                                                         ",
"                  X.o.x ` X.:.:.O.| | O.:.:.:.:.:.:.:.:.:.' | +.] o                                                     ",
"                  } s o.+.+.+.O.X.i e s ` ` { :.:.:.:.O.X.o.| o.:.q                                                     ",
"                  i ` 3 s ) ) d q q.P.B.q.2.E k s ` _ s p _ | X.:.[ o                                                   ",
"                    = 3.J.j.t.j.~.{.'.)._.`.'.).V.2.3 d ' | | | o.{ x o                                                 ",
"                      h.}.}.}.}.}.].k.0.0.0.w.<./.).w ' | | | | | +.:.q                                                 ",
"                      K }.}.}.}.0.z ' o.O.:.:.O.w ].8.s | ' s d ` O.:.{ o                                               ",
"                      z %.T.}.}.= :.:.:.:.O.o.:.p k.k.s ) H G.G.Z o.:.X.o                                               ",
"                    o } +.k ].}.K d X.| | s s | 3 T.G.3 1.}.'.E.M.x | j o                                               ",
"                      , ` i G.}.W.m > k k V h y q.P.A.H.}.T.2.M.P.3 O.` o                                               ",
"                        o o 0.}.`.K.E ( Y.( 2.P.P.P.P.P.W.o P P.K.3 | :.q                                               ",
"                        o n W.}.}.(.T.h./ L R.P.P.K.z.B.K.C.q.M.r., | O.] > =                                           ",
"                        I y.{.}.}.}.}.}.}.}./.{.!.P.C.r.C E B.z.e ` | O.j s ) o                                         ",
"                      k.8 l.}.}.}.}.}.J.'.}.}.}.}.!.P.P.P.x - < ' | | o.3 ` | >                                         ",
"                      Z R..X|.}.}.}.}.W.P L._.`.^.P.P.P.v.o.` 3 ` X.} x | ` ' s o                                       ",
"                      E '.}.}.}.{.`.}._.M.$.S.x.y.Z.b.,.:.:.o.` s O.X.q 2 3 2 = 3 3 o                                   ",
"                      m ~.'.`.).e.K.P.P.q.9 O.:.O.9 ] :.:.:.:.O.| s o ; h h t h q 3 ; 2                                 ",
"                    3 p w 2.E 5 c w.3.Q i ' o.:.:.:.d 9 +.:.:.:._ = 4 4 ; ; 4 q h 0 h q 3 o                             ",
"                  o X.+.| s %.;._ | | X.O.+.:.:.o.:.+.i q :.:.O.3 3 j j h t t 3 3 q q 3 : 2 o o                         ",
"                  < +.:.+.w.|. XI ' | +.:.O.+.:.o.X.:.} = X.:.j 9 q 0 q 0 3 0 j j j 0 h t h 9 7 5                       ",
"                o ) o.O.O.c L.!.<.p | | +.+.| o.+.| o.X., p o.o q 4 0 h j j j 0 4 ; 3 t h 4 2 F c.w                     ",
"                o } O.O.| ) y E m = ` | | O.+.| | | | | i , < 0 t 4 3 t 0 ; 0 h 3 t h q 3 3 t 0 F g.8                   ",
"                o X.| ' s s | ` ` p 3 ` | | o.o.| | | | i 3 o 0 0 t t h q h j 0 q h 0 4 q h j q 8 n.-.o                 ",
"                o d 9 > ) | | | | | d - < _ | | | | | | > o 3 ; ; 4 j 4 ; 4 h q 0 t h 0 4 h ; 3 2 &.F.F                 ",
"                = i ) X.O.:.+.O.+.O.| | s > 3 i ) ' | | = = h 3 4 0 h t 0 q 0 ; 3 0 q ; 4 j h t h w F.c.o               ",
"                i o.+.:.:.:.:.:.:.:.:.O.X.| ` s , = 3 9 = = h h j j 4 ; 4 j h 3 3 h h q h q 0 h 0 w F.F.T o             ",
"              o | :.:.:.:.:.:.:.:.:.:.:.:.+.o.| p | ) s s i = 2 3 h j j 0 4 4 h q 0 ; ; h q 0 : q 5 F.F.d.o             ",
"              o X.:.:.:.:.:.:.:.:.:.:.:.:.:.:.o.l  .A f i s w 2.o 3 q 3 3 3 h h 4 q t t h t 0 t 0 o F.F.c.o             ",
"              o { :.:.:.:.:.:.:.:.:.:.:.:.:.:.a a.I.I.s.i.1 M.~.W.9.n 2 2 ; ; ; ; 3 3 ; ; 4 3 ; 2 F F.F.D.o             ",
"                { :.:.:.:.:.:.+.:.:.:.:.:.:.X.A a.a.m.U.p.C ).}.}.}.}.R.G.0.1.n = 2 = o = = 5 G #.n.F.F.D.w             ",
"                ] :.:.:.:.:.:.X.+.:.:.+.:.:.X.h >.>.u.i. .r.[.}.}.}.}.}.}.}.}.}.L.M.B.r.w g.n.F.F.F.F.F.F.F             ",
"              7 q :.:.:.:.:.+.| +.:.:.X.+.:.] q g z l ..q B.{.}.}.}.}.}.}.}.}.{.P.P.P.P 7.F.F.F.F.F.F.F.F.T o           ",
"          o K G.m +.:.X.:.:.o.' } [ ] d ' O.9 @.o.X.} p = P.Q.{.}.}.}.}.}.}.}.`.P.P.C.w F.F.F.F.F.F.F.F.F.#.o           ",
"      7 L 1.9.0./ x O.| +.] , m $.r.y.q.m 2 = 3 = 0 2 2 3 E C.P.Q.^.}.}.}.}.}.!.P.P.E 7.F.F.F.F.F.F.F.F.F.f.o           ",
"    n ].}.}.}.}.}.7 } s 8 2.C.r.P q.P.P.q.3 q 0 h 0 j = q h y W.[.{.}.}.}.}.{.P.P.C.w F.F.F.F.F.F.F.F.F.F.F.F o         ",
"    1.}.}.}.}.}.}.0.> : C.P.r.$.$.B.P.P.K.w h q 0 3 j 0 o q h 7 ].}.}.}.}.}.~.P.P.E d.F.F.F.F.F.F.F.F.F.F.F.f.o         ",
"    K }.}.}.}.G.0.K o o P.).).).~.).`.{.}.N.= j 0 3 0 j = 3 q 0 9.}.}.}.}.'.P.P.C.w F.F.F.F.F.F.F.F.F.F.F.F.F.#.o       ",
"    7 }.}.}.}.}.}.}.K o C.{.}.}.}.}.}.}.}.'.C 3 j 9 o h h 2 9 h 7 }.}.}.{.E.P.P.w 8 F.F.F.F.F.F.F.F.F.F.F.F.F.n.5       ",
"    o /.}.}.}.}.}.}.h.o $.L.`.}.}.}.}.}.}.}.N.o h j = 3 j 9 0 3 = T.}.{.Q.P.P.y.o o F.F.F.F.F.F.F.F.F.F.F.F.F.F.-.o     ",
"    o h.}.}.}.}./.9./ o M.P.`.}.}.}.}.}.}.}.).w 3 j q o j j = q = t.!.P.P.P.C.C + o F.F.F.F.F.F.F.F.F.F.F.F.F.F.F.F     ",
"      n ].}.}.}.}.}.}.n M.~.}.}.}.}.}.}.}.}.`.E o j j = 0 j 3 0 h E P.P.P.r.5 % % o c.F.F.F.F.F.F.F.F.F.F.F.F.F.F.f.o   ",
"        9.}.}.}.}.}.}.1.r.E.`.}.}.}.}.}.}.}.[.2.o h j 3 3 j q = j m K.2.5 % * * * o f.F.F.F.F.F.F.F.F.F.F.F.F.F.F.n.8   ",
"        o N.`.}.T.h.8.B o $.K.`.}.}.}.}.}.}.[.r.o h j 0 2 j h o h = 5 % * * * * * X -.F.F.F.F.F.F.F.F.F.F.F.F.F.F.D.w   ",
"          8 z.m q.B.P.y.o B.P.).`.^.~.Q.E.P.P.q.o j j q = 0 3 o + & * * * * * * & X F F.F.F.F.F.F.F.F.F.F.F.F.F.F.D.w   ",
"            o C r.r.2.E o v r.P.P.P.P.P.P.P.P.2.= h 0 = + . . * * * * * * * * * $ . o f.F.F.F.F.F.F.F.F.F.F.F.F.F.D.w   ",
"                        o * + v P 2.2.2.<.E P 8 + + & * & . . & * * * * * * * * $ . X w n.F.F.F.F.F.F.F.F.F.F.F.F.D.w   ",
"                        o * * . . O % % % $ . . & * * * $ . . $ * * * * * * * * # . X o &.F.F.F.F.F.F.F.F.F.F.F.F.D.m   ",
"                        o % + . . O * * * # . . $ * * * . . . $ * * * * * * & % o 8 F -.n.F.F.F.F.F.F.F.F.F.F.F.F.D.&.o ",
"                                o o o o + . . . $ * * $ . . . O + + + + % + 2 M r w F.F.F.F.F.F.F.F.F.F.F.D.f.-.&.&.-.o ",
"                                          o o X @ % % O + 6 6 8 N R M r G 7 5.6.S 8 #.&.&.d.c.D.D.D.c.d.#.8 o       o o ",
"                                          o U W G G R 5.6.4.S r T 6.N D G 8 W 6.R b o       o o w o o o                 ",
"                                            o o N ^ ! J D r 6 2 5.6.8 o     7 6.4.S o                                   ",
"                                            o o N R ~ ~ ! S D 8 N 6         o N 6.Y r o                                 ",
"                                        u R *.=.=.U *.6.6.Y S o               o 8 N 6 o                                 ",
"                                      6 ! ~ 4.4.4.4.5.4.*.J S 2                                                         ",
"                                    o 6 r b b M M M M b b b r 2                                                         ",
"                                          o o o o o o o o                                                               "
};
