/* XPM */
static char *_1714399557[] = {
/* columns rows colors chars-per-pixel */
"60 60 190 2 ",
"   c None",
".  c #2A1A1C",
"X  c #341A16",
"o  c #3D1B11",
"O  c #321D1B",
"+  c #3B1E19",
"@  c #3D211D",
"#  c #37201F",
"$  c #342223",
"%  c #3C2423",
"&  c #3B2728",
"*  c #3D282A",
"=  c #421E11",
"-  c #481F10",
";  c #45240F",
":  c #54240F",
">  c #5A260F",
",  c #5F290E",
"<  c #552D0F",
"1  c #5E320F",
"2  c #442214",
"3  c #4B2511",
"4  c #4E2811",
"5  c #482618",
"6  c #462B19",
"7  c #4C2B1C",
"8  c #47251A",
"9  c #532511",
"0  c #5A2710",
"q  c #552B13",
"w  c #5B2D14",
"e  c #512E1C",
"r  c #592F1D",
"t  c #4B321D",
"y  c #5D3014",
"u  c #58321E",
"i  c #652C0E",
"p  c #6B2E0E",
"a  c #73310D",
"s  c #7B350D",
"d  c #672E10",
"f  c #6A2E10",
"g  c #643315",
"h  c #6C3616",
"j  c #663618",
"k  c #723211",
"l  c #793410",
"z  c #66340E",
"x  c #542E21",
"c  c #4F3921",
"v  c #543423",
"b  c #5B3623",
"n  c #523D23",
"m  c #5B3D24",
"M  c #492920",
"N  c #693F2B",
"B  c #673A22",
"V  c #7F4B0D",
"C  c #594B2B",
"Z  c #594327",
"A  c #644025",
"S  c #62412F",
"D  c #6C4A2C",
"F  c #66472C",
"G  c #774327",
"H  c #61512E",
"J  c #77532F",
"K  c #6D4C38",
"L  c #6A4532",
"P  c #744832",
"I  c #6C5431",
"U  c #775230",
"Y  c #745A34",
"T  c #7A5E37",
"R  c #7E5138",
"E  c #7F6A3D",
"W  c #786339",
"Q  c #7A5942",
"!  c #775842",
"~  c #6D544C",
"^  c #79625B",
"/  c #81370C",
"(  c #84390C",
")  c #8D3C0C",
"_  c #923F0D",
"`  c #803810",
"'  c #893C10",
"]  c #913F10",
"[  c #96410E",
"{  c #9A420B",
"}  c #87510B",
"|  c #9A4310",
" . c #915114",
".. c #A2460D",
"X. c #AA490D",
"o. c #B34D0E",
"O. c #BC510E",
"+. c #805C35",
"@. c #805339",
"#. c #8A5A3E",
"$. c #81583E",
"%. c #8F4F27",
"&. c #AB5E29",
"*. c #8A653A",
"=. c #856B3E",
"-. c #81643A",
";. c #946E3F",
":. c #C4550F",
">. c #CE7914",
",. c #D37537",
"<. c #85644B",
"1. c #8D6347",
"2. c #956345",
"3. c #976A4C",
"4. c #877040",
"5. c #8D7543",
"6. c #9E7844",
"7. c #977D48",
"8. c #917644",
"9. c #906E51",
"0. c #927154",
"q. c #9E7D5E",
"w. c #A06C4C",
"e. c #A06745",
"r. c #BB7745",
"t. c #AB7552",
"y. c #AB7B59",
"u. c #B67E59",
"i. c #AF774A",
"p. c #D98A0B",
"a. c #E39308",
"s. c #EEA002",
"d. c #F8A702",
"f. c #FBAF11",
"g. c #B18A4E",
"h. c #BB9353",
"j. c #A78149",
"k. c #AA8968",
"l. c #B98963",
"z. c #B69572",
"x. c #BF9A76",
"c. c #B5926F",
"v. c #C1875F",
"b. c #CF8958",
"n. c #C49C59",
"m. c #D88045",
"M. c #E1935C",
"N. c #CEA55E",
"B. c #FCBF40",
"V. c #C18760",
"C. c #C38D66",
"Z. c #CC9067",
"A. c #C9946B",
"S. c #D7996D",
"D. c #DF9D6C",
"F. c #D99E72",
"G. c #D7AE63",
"H. c #D8AF63",
"J. c #C2A27B",
"K. c #CCA77F",
"L. c #D7A67B",
"P. c #E2A273",
"I. c #EDAB7A",
"U. c #E5AF7F",
"Y. c #FCC450",
"T. c #FCCF70",
"R. c #B6A9A6",
"E. c #CEAE85",
"W. c #D9AD88",
"Q. c #DABA8F",
"!. c #D8B489",
"~. c #EFB180",
"^. c #E3B88B",
"/. c #F0B584",
"(. c #F1B886",
"). c #F3BE8C",
"_. c #F4C28F",
"`. c #E7C698",
"'. c #EAC698",
"]. c #F5C392",
"[. c #F7C896",
"{. c #F9CD9B",
"}. c #FAD29F",
"|. c #FCD6A3",
" X c #FDD8A6",
".X c #FFDFAC",
"XX c #F3D3A2",
"oX c #FFEED2",
"OX c #FFE9C6",
"+X c #FFF5E5",
/* pixels */
"                                                                    o 0 k k f 3       = q 9 9 o                         ",
"                                                                - ` O.:.:.:.:.o.0 l ..:.:.:.:.O.] 9                     ",
"                                                          o o 9 o.:.:.:.:.:.:.] O.:.:.:.:.:.:.:.:.|                     ",
"                                                      o k | s o.:.:.:.:.:.:.:.:.:.:.:.:.:.:.:.:.O.d k                   ",
"                                                    o ' O.{ { :.:.:.:.:.:.:.:.:.X..._ o.:.:...l k ..X.                  ",
"                                                    0 :.X.{ X...o.:.:.:.:.' ) ) d B i _ o.O.:.o.X.p ]                   ",
"                                                  = ) :..._ s a s ( ' k r @.#.w.Z.~.2.i l / / f 9 ( 0                   ",
"                                                o l { X.{ { _ _ s - 2.A.).{.|.[.[.{.|.!.l.y.u.F.1.-                     ",
"                                                f :.o.{ { { { [ ) e [.Q.1.i.q.q.q.J.`..X.X.X.X.Xz.                      ",
"                                              o ] :.o._ a s ) { / 9.'.r o.:.:.o...{ a 0..X.X.X XK                       ",
"                                              o ..:.X.B J.E.b s a c.J.p :.X.X.O.:.:.:.- .X.XJ.%.f                       ",
"                                              o d ..k Z./.}..X<.3 E.E.> ..p l { ..{ a <..X.XN O...o                     ",
"                                              o ) o.9 I.u.@.`..X!.F.(.2.B 9 M v 9 y N ^..Xz.i ) >                       ",
"                                              0 O.{ - P.I.#.8 ).I.I.I.I.I.w.^ R.~ #.P.{..Xq.o o                         ",
"                                          - 0 ` o.{ : v.v.3.S.S.S.u.P.I./.K.N <.k.J.`..X.X^.5 o                         ",
"                                        o / p l o.{ ) r t.S.2.P w.P.I.(.'.'..X.X.X.X.X.X.X XV.$.                        ",
"                                        > { [ : X.{ { ) , =  .I.I.I.(..X.X.X.X}.L..X.X.X.X.Xx.e x.                      ",
"                                      o a ) ) { l [ { ) 3 ) X.m.I.I.I.).{.].U.@.^..X.X.X.XoX+XW.v                       ",
"                                  o 3 3 o 2 4 2 9 [ o.a ) o.:.:.,.M.D.i.b.M.@.u.]..X{. X.X.X.X{.@.                      ",
"                                2 2 3 w h y g g 2 o a [ X.:.:.:.O.s > ..:.o.: w.I.I.S.y._.}.}.(.e                       ",
"                            o 4 w y 4 g q 4 ; ; 3 3 = ) :.:.:.o.: s :.:.:.X.) , G e.r.l u P #.b p 0                     ",
"                        o o 3 4 ; w q 4 4 g y y h h 3 - O.:.:.i p :.:.X.:.:.O.o.X.{ { / &.%.s [ O.[ o                   ",
"                      5 u 4 j y g w g h g < 4 y y < d 5 l :...- { :...o.:.O.o.:.O.{ { R OXoXr.O.:.O.0                   ",
"                    e h.e ; 4 y y ; ; 4 4 h h h j q q w = X.d 0 ..X.{ O...{ O.O.{ { i 1.(.~.B o.o.X.s o                 ",
"                  5 n.J q y 4 4 y j y ; y y ; 4 y 3 4 q q i : p { { { { { :.O.{ { ) - A R 9 s ..o.o._ o                 ",
"                o ;.n.5 y h g y 3 y y y < h h y j g y q q @ ; i { { { { X.X._ { ( - p ) ) _ ( a ) { ..o                 ",
"                D H.+.3 3 ; g 4 < j y q y y 4 ; 4 h 4 ; ; 3 o > _ { { { _ _ ( : - / { [ { { { ( : i a o                 ",
"              o n.H.u g y g h 3 ; y < 3 ; < y < < g < 4 ; g o = { { _ / i - : s { ..O.O.o.O.:.o.{ _ , o                 ",
"              J H.H.e q y 4 y j y y g ; 4 j h 4 ; 4 j g g h = o > 3 = > a [ { ..O.:.:.:.:.:.:.:.:.O.X.f                 ",
"            o g.H.H.; y 3 < y j ; ; < y j 4 4 4 h h h 4 ; = i a a / _ i ..X.O.:.:.:.:.:.:.:.:.:.:.:.:.] o               ",
"            o h.H.H.@ < y < q j y y y 4 h g 4 4 4 < : o 2.A s i z } } 1 X.:.:.:.:.:.:.:.:.:.:.:.:.:.:...o               ",
"            o H.H.H.A 2 2 ; 4 ; ; 4 ; ; ; ; o ; 2 v 0.!._.v.< a.f.Y.B.s.9 :.:.:.:.:.:.:.:.:.:.:.:.:.:.{ o               ",
"            e H.H.H.n.+.D 5 = = = = = - v <.k.z.Q..X.X.X.X].L p.T.B.d.d.V X.:.:.:.:.:.:.O.:.:.:.:.:.:.'                 ",
"            A H.H.H.H.H.H.N.g.u t.v.l.F..X.X.X.X.X.X.X.X.X Xt. .a.p.>.>.g ..:.:.O.:.:.O...:.:.:.:.:.:.`                 ",
"          o D H.H.H.H.H.H.H.H.6.N I.I.I. X.X.X.X.X.X.X.X.X XS.g  .h f a i ' :.O...:.:.:._ O.:.:.:.:.:.0 7               ",
"          o +.H.H.H.H.H.H.H.H.H.e v.I.I.[..X.X.X.X.X.X.X X~.P.= f [ ......- o.' l ` ' ] ) X.:.:.{ :.o.N E.Q +           ",
"          o g.H.H.H.H.H.H.H.H.H.j.L I.I.(..X.X.X.X.X].(.I.P.#.9 2 ; 9 - 5 = - B w.u.t.#.B 9 ' o._ o.p Q q.0.<.K =       ",
"          e H.H.H.H.H.H.H.H.H.H.H.A v.I.I.}..X.X.X.X X|.W.v d w = h q j 9 g 3 t.I.I.w.@.t.Z.t.x a ..v .X.X.X.X.X`.7     ",
"        o h.H.H.H.H.H.H.H.H.H.H.H.g.A I.I.)..X.X.X.X.X`.b g w o w g q q r g x ~.I.I.F.#.R t.I.S.3 - 0..X.X.X.X.X.X<.    ",
"      o J H.H.H.H.H.H.H.H.H.H.H.H.H.e V.I.I.}..X.X.X.X<.w w 3 = h 3 9 q d = l. X X[.).).].].).I.o + <.0.J.XX.X.X.XK     ",
"      t n.H.H.H.H.H.H.H.H.H.H.H.H.H.2 N I.I.~..X.X.X.Xv y q = d g = q h 3 @.{..X.X.X.X.X.X.X XS.o S .X.X.X.X.X.X.Xo     ",
"    o 6.H.H.H.H.H.H.H.H.H.H.H.H.H.H.o + u.I.I.~. X.XE.o 3 q 5 h 9 = h w = C..X.X.X.X.X.X.X{.A.2.o z..X.X.X.X.X.XQ.o     ",
"    e H.H.H.H.H.H.H.H.H.H.H.H.H.H.H.o % N S.I.I.I.).y.= j o j g o r h 5 x ]..X.X.X.X.X.X.X[.I.u.o Q q.`..X.X.X.Xz.o     ",
"  o 6.H.H.H.H.H.H.H.H.H.H.H.H.H.H.n.o & % r t.I.I.I.P r 9 3 h w = h j o R {..X.X.X.X.X.X.X.X).V.S .X.X.X.X.X.X`.b       ",
"  o H.H.H.H.H.H.H.H.H.H.H.H.H.H.H.g.o * * * & x t.S.b h - w h 3 - h j o 2.{..X.X.X.X.X.X.X|.~.u.Q .X.X.X.X.X X<.        ",
"  e H.H.H.H.H.H.H.H.H.H.H.H.H.H.H.2.o & * * * * % + = g o h h 2 q h j o t. X.X.X.X.X.X.X{.P.2.8 L Q k.E..X}.C.o         ",
"  A H.H.H.H.H.H.H.H.H.H.H.H.H.H.G.N . * * * * * * M & % @ 4 w o r h h o t.I.I.~.).(.).{.].I.S.o v.I.Z.3.N u.x           ",
"  e H.H.H.H.H.H.H.H.H.H.H.H.H.H.n.o . $ * * * * * & & & * . . @ = 9 w = 2.I.I.I.I.I.I.I.I.u.8 o P 2.t.t.N o             ",
"  e H.H.H.H.H.H.H.H.H.H.H.H.H.N.e X . $ * * * * * * * * & . . & * * % + x N R 3.2.2.#.R 6 @ * o                         ",
"  u H.H.H.H.H.H.H.H.H.H.H.H.H.T o X . $ * * * * * * * * & . . $ * * * & . . # & % % # . . * * o                         ",
"  J H.H.H.H.H.H.H.H.H.H.H.H.H.N.6.D = X % * * * * * * * $ . . . * * * $ . . $ * % & O O X @ % +                         ",
"o *.;.*.*.g.H.H.H.H.H.H.H.H.H.H.G.G.q 6 7 2 + % @ @ @ @ # . . . & * * $ . . . + @ o @                                   ",
"o o       o e +.g.N.H.H.H.n.6.*.*.J @ C 8.7.u D t Z I v 6 6 e X + % % + O X o                                           ",
"                o o o e 5 o       @ t Y 7.Y 5 H C u j.H t C =.7.4.T D I T F                                             ",
"                                  2 C 8.7.6     o 6 7.=.2 6 c Z F Y Y n o =                                             ",
"                                o t I 8.m o         u Z @ Z C W E Q W v o o                                             ",
"                                o t Z 7 o               o C I 7.j.I H W =.=.Y ;                                         ",
"                                    o                   6 C H 4.Q j.j.=.=.E E E 6                                       ",
"                                                        o t c c c c c C n c c c ; @                                     ",
"                                                              o o o X X o o                                             "
};
