/* XPM */
static char *f1aac552e092408da6bb10a94e166731HaneKVlIOVDJZCeQ[] = {
/* columns rows colors chars-per-pixel */
"60 60 183 2 ",
"   c None",
".  c #2A1A1C",
"X  c #351A16",
"o  c #3D1B11",
"O  c #321C1A",
"+  c #3A1E1A",
"@  c #3D221E",
"#  c #3F2117",
"$  c #2F1E21",
"%  c #311F21",
"&  c #342224",
"*  c #3B2425",
"=  c #3C2728",
"-  c #3D282A",
";  c #431E11",
":  c #481F10",
">  c #45240F",
",  c #4A250F",
"<  c #54240F",
"1  c #5F290F",
"2  c #5A260F",
"3  c #432214",
"4  c #4B2312",
"5  c #4E2911",
"6  c #422419",
"7  c #4A2619",
"8  c #462B19",
"9  c #4D2C1C",
"0  c #522512",
"q  c #592710",
"w  c #542B13",
"e  c #5B2D14",
"r  c #532D1D",
"t  c #4A321D",
"y  c #5E3014",
"u  c #5E321D",
"i  c #652C0F",
"p  c #6A2E0E",
"a  c #6D330E",
"s  c #72310D",
"d  c #7B350D",
"f  c #632D11",
"g  c #6A2E10",
"h  c #623215",
"j  c #6C3616",
"k  c #68351B",
"l  c #713211",
"z  c #783410",
"x  c #773A18",
"c  c #4F2D20",
"v  c #542F20",
"b  c #4E3921",
"n  c #4D3620",
"m  c #563323",
"M  c #5C3524",
"N  c #583B26",
"B  c #623A25",
"V  c #693F2B",
"C  c #613F2E",
"Z  c #5C4C2B",
"A  c #594527",
"S  c #644026",
"D  c #64412B",
"F  c #6D422D",
"G  c #6C4B2C",
"H  c #784427",
"J  c #60512F",
"K  c #69512F",
"L  c #684839",
"P  c #744932",
"I  c #794B33",
"U  c #6B5531",
"Y  c #755330",
"T  c #715C35",
"R  c #7F5138",
"E  c #79523A",
"W  c #7A663B",
"Q  c #795842",
"!  c #81370C",
"~  c #83390C",
"^  c #8D3C0C",
"/  c #923F0D",
"(  c #813810",
")  c #883C10",
"_  c #913F10",
"`  c #99410B",
"'  c #94410E",
"]  c #8A4615",
"[  c #9A4310",
"{  c #8D5110",
"}  c #995712",
"|  c #A2460D",
" . c #AB4A0D",
".. c #A5480E",
"X. c #B34D0E",
"o. c #BC510E",
"O. c #A86B08",
"+. c #BF6E13",
"@. c #B46E0E",
"#. c #844926",
"$. c #8C5B3F",
"%. c #865837",
"&. c #A55825",
"*. c #8B653B",
"=. c #87683C",
"-. c #946E3F",
";. c #9C663F",
":. c #C4550F",
">. c #C85D19",
",. c #C6672A",
"<. c #885D41",
"1. c #88654A",
"2. c #956345",
"3. c #966648",
"4. c #8E7443",
"5. c #877041",
"6. c #9E7844",
"7. c #977D48",
"8. c #9D7647",
"9. c #927154",
"0. c #9E7D5E",
"q. c #9A7454",
"w. c #8D6C51",
"e. c #A06D4D",
"r. c #AB7552",
"t. c #AE7C5A",
"y. c #AC7856",
"u. c #B67E59",
"i. c #B0774E",
"p. c #927F79",
"a. c #D98A0A",
"s. c #EA960A",
"d. c #FBAA01",
"f. c #FCB829",
"g. c #A78149",
"h. c #BB9353",
"j. c #AC8556",
"k. c #AA8968",
"l. c #B69572",
"z. c #BD916C",
"x. c #C1875F",
"c. c #C49C59",
"v. c #D38651",
"b. c #CEA65E",
"n. c #C18760",
"m. c #CC9067",
"M. c #C5956D",
"N. c #D7996D",
"B. c #CF9C72",
"V. c #D49D72",
"C. c #D7AE63",
"Z. c #D8AF63",
"A. c #C2A17B",
"S. c #DEAC7E",
"D. c #D5A479",
"F. c #E1A273",
"G. c #EDAB7A",
"H. c #E5AB7C",
"J. c #E8A06D",
"K. c #FDCF70",
"L. c #CEAE85",
"P. c #DBBA8F",
"I. c #E6AF80",
"U. c #EFB180",
"Y. c #EBBD8D",
"T. c #E2BA8D",
"R. c #F0B584",
"E. c #F1B886",
"W. c #F3BE8B",
"Q. c #E7C699",
"!. c #E9C293",
"~. c #F6C492",
"^. c #F7C896",
"/. c #F8CC9A",
"(. c #FAD29F",
"). c #F3D2A2",
"_. c #FCD5A2",
"`. c #FDD8A6",
"'. c #FFDFAC",
"]. c #FBDEBF",
"[. c #E3CBB3",
"{. c #FFE1B1",
"}. c #FFE7C1",
/* pixels */
"                                                0 0 4     q l f o                                                       ",
"                                            q  .:.:.:./ l :.:.:.X.q                                                     ",
"                                            ) :.:.:.:.:.X.| :.:.:.o.4 o                                                 ",
"                                            l o.:.:.:.:.:.:.:.:.:.:.) ` g                                               ",
"                                          z | ( | :. ./ X.o.:.:.:.:.X.` o.0                                             ",
"                                          p i  .o.X./ B j ! ) :.:.o.| ` X.(                                             ",
"                                            s 4 s s k N.N.u.e.u s s s `  .[                                             ",
"                                            o S.D.D.(.'.(._.`.~.3.s ` ` `  .z                                           ",
"                                              L.'.'.).0.<.%.&.q.T.p ` ` `  .o.o                                         ",
"                                              0.'.'.<.| :.:.:.( P.j / i p  .:.4                                         ",
"                                              | j.'.I o.o.X.^ / A.H H Q.T.] o.0                                         ",
"                                              | x '.0.! ` s s 1 T.D A./.F.#./ 4                                         ",
"                                              1 1 Q.Y.P N L M r.G.W.Q.%.N.%.X.f                                         ",
"                                                o !.(.t.L p.B.G.G.G.t.V F.H | )                                         ",
"                                                R '.'.'.Q.l.L.G.F.e.u.F.n.2 ` _ p                                       ",
"                                              w.t.'.'.'.`.'.'.`.G.G.$.R B ^ | j ^ <                                     ",
"                                              F [.{.'.'.z.Y.'.'.R.G.v.s s ` ` s ` s                                     ",
"                                              t.}.{.'.'.!.2.G.G.G.J.>. .1 |  .o.` s o ; o o                             ",
"                                              t.'.'.Y.W.R.R ,.&.%.>.:.:./  .:.:.| ! 3 e 5 w 0 o                         ",
"                                              F B.M.I G.x.e  .:.^ ( :.:.o. .:.:.X.~ 4 0 w h 5 e 4 o                     ",
"                                            a ! < i / ! s | o.o.:.p | :.:.X.:.:.X.^ 3 h w h 5 h 0 w 3                   ",
"                                          o ..:.&.S.;.` o.:.:.X.X.| q :.:.:.X.:.o.^ 5 j 5 h , j w e e o                 ",
"                                        o ,  .o.i.].1./  .o. .o.`  ., o.:.:.X. .o.^ 0 w , h w 5 h 5 e w o               ",
"                                      o > 2 | o.p r.R d ` X. .` ` | 1 / :.:.o.` o.! e h y e h > y h 5 w ;               ",
"                                      e , i  .` ~ s p 4 / ` o.` ` ` 1 ^  .:.o.` ..! e 5 h 0 e h y h e 5 o               ",
"                                    ; e h i ! < ^ ` ` d 4 ^ ` ` ` ` < / ` :.X.~ ` s e h h 5 > y > e 0 > r               ",
"                                    4 5 w ; i ` X. . .` ~ < i ^ ` ` < ` ` o.` s ` 4 y 5 > e 0 e w 0 > 2.N.m             ",
"                                    3 5 > d  .:.:.:.:.:. .` s : < s < ` ` ` ` 1 s 4 j w w j e h 5 > N ~.G.N.m           ",
"        o   c o                   o L m m  .:.:.:.:.:.:.:.o.| ! ! 1 s ` ` s ~ 4 3 5 , h 5 w w h > 9 A.'./.G.N.7         ",
"      0.Q.0.m Q.l.N             9.).'.'.0.X.:.:.:.:.:.:.:.:.:.p a 1 d ` s d p @ # > , h h h 5 > 9.).'.'.'.~.G.m.r       ",
"    v '.'.'.Q.D L.Q.o         0.'.'.'.Q.m X.:.:.:.:.:.:.:.:.X.O.f.d.O.0 4 ! @ - + w e h h 0 N L.'.'.'.'.'.'.E.G.e.      ",
"    w.'.'.'.'.Q.C L.o       E '.'.'.'.k.8. .:.:.:.:.:.:.:.:.[ a.f.K.d.{ ! 0 - - . 4 e > 7 2.Y.'.'.'.'.'.'.'.`.G.G.e.    ",
"    A.'.'.L.'.).m l.V m o   A.'.'.'.'.8.@.| :.:.:.o.o.:.:.:._ @.a.s.s.} d @ - - . . 6 -.%.N.~.'.'.'.'.'.'.'.'.~.G.G.B   ",
"  o '.'.'.P.L 1.D m D.'.Q.Q Q.'.'.'.'.k.] _ :.:.:. .o.:. .:.( q j } +.e d = - - . . X b.b.P E.'.'.'.^.'.'.'.'.'.G.G.r   ",
"  C '.'.'.'.'.k.2.m./.'.'.L.'.'.'.'.'.Q.4 z o.X.:.| o.:.| o.z :.:.d : d 1 - - - . . X c.Z.j.2.W./.B.F r 4 D l.'.G.G.    ",
"  N '.'.).Q.'.A.M.~.'.'.'.'.'.'.'.'.'.'.l p X. .:.` X.:.` o.l :.:.` 1 ` 7 - - - . . X c.Z.Z.*.2.F.M h h e e 3 m n.N.    ",
"  I '.'.'.0.Q Q P.'.'.'.'.'.'.'.'.'.'.'.#.~ /  .:.` X.o.` o.g :.X.^ 1 s * - - - . . X c.Z.Z.Z.6.r 4 7 o 4 0 w e 0 V     ",
"  V ^.'.'.'.A.9.0.'.'.'.'.'./.'.'.'.'.'.#./ 2 | o.` X.X.` :.l :.` < ! 6 - - - = . . X c.Z.Z.Z.c.; e h j h e 4 ; w w     ",
"  9 y.l.Q.'.k.L.9.'.'.'.'._.G.`.'.'.'.`.x ! o ! X.` X.` ` :.i ' , d 4 = - - - = . . X c.Z.Z.C.Y f h 0 ; 4 e j h w o     ",
"    R n.R P Q '.0.'.'.'.'.E.G./.'.'.'.N.4 o o i | ` ..` ` ..s 1 d 4 = - - - - * . . X Z.Z.Z.h.4 w e e e 0 ; ; e j 4     ",
"    o R N.G./.'.z._.'.`.~.G.G.U.'.`.~.2.o   X # / ` ` ` ` ` ` s 3 = - - - - - * . . 6 Z.Z.c.S V 4 4 w e h j h ; 4       ",
"        v N.U.I.G.G.G.G.G.G.G.G.G.G.2.o     X * s ` ` ` ` ! 0 @ = * - - - - - & . . 9 Z.Z.Y N.G.H.M.e.r o w j j 4       ",
"          M u.G.G.G.G.G.G.G.G.G.G.2.o       X * q ` ` ! 0 @ = = + & - - - - - & . . 9 Z.c.R m.G.(.'.'./.t.r 4 j 0       ",
"              F $.r.x.F.G.G.G.G.2.o         X * 3 i 3 @ = - - + . = - - - - - $ . . 6 Z.6.e.F G.'.'.'.'.`.S.r w 3       ",
"                    o o o m v 7             X & O * - - - - * O . - - - - - - . . . X c.G m.<.~.'.'.'.'.'.`.F.M         ",
"                                            X & $ & - - - - + . . - - - - - - . . . O g.S m.U.'.'.'.'.'.'.W.G.R         ",
"                                            X & % . - - - - + . . = - - - - - . . . . -.S G./.'.'.'.'.'.`.G.G.m         ",
"                                            o & & . = - - = X . . & - - - - - . . . . Y 6.$.E.E.^.'.'.'.W.G.2.          ",
"                                            o . * . & - - * O X . & - - - - - . . . . m Z.h.S 2.E.`./.'.U.N.M           ",
"                                              . = . . = - & . o G A 6 * - - * . . . . 6 Z.Z.b.*.n.G.m.E.G.R 7           ",
"                                              X * . O @ * O . O A 4.7.Y 3 * & . . . . X b.Z.Z.Z.*.M r.u.P h.-.          ",
"                                              o O + o 3 U U 6 9 W A K 5.Z 7 9 O O O O + c.Z.Z.C.g.M o o S -.*.          ",
"                                                o     t J 4.7.D =.4.J t 8 7 h.*.*.-.g.6.Z.C.b.%.o                       ",
"                                                      o 7 A W 7.=.7.5.b 8 o o o o o o B S S 7                           ",
"                                                          3 b T 4.7.T t N                                               ",
"                                                            3 8 A T Z 8 b                                               ",
"                                                          7 4.T 7 t A 8 3                                               ",
"                                                          n J U U b 3 3                                                 ",
"                                                          o o 3 3 3 7 o                                                 ",
"                                                                                                                        "
};
