/* XPM */
static char *_1714399602[] = {
/* columns rows colors chars-per-pixel */
"60 60 190 2 ",
"   c None",
".  c #2A1A1C",
"X  c #351A15",
"o  c #3D1B11",
"O  c #311B1A",
"+  c #3B1E19",
"@  c #3C211D",
"#  c #3E2016",
"$  c #2E1D20",
"%  c #311F21",
"&  c #342224",
"*  c #3B2525",
"=  c #3B2728",
"-  c #3D282A",
";  c #421E11",
":  c #45240F",
">  c #48260F",
",  c #54240F",
"<  c #5A260F",
"1  c #5F290F",
"2  c #432214",
"3  c #4B2411",
"4  c #4E2911",
"5  c #442619",
"6  c #4B2619",
"7  c #462B1A",
"8  c #4B2A1C",
"9  c #522512",
"0  c #542B13",
"q  c #5A2D14",
"w  c #532E1E",
"e  c #592B17",
"r  c #4B331E",
"t  c #5E3014",
"y  c #54311E",
"u  c #5D321E",
"i  c #642B0E",
"p  c #6A2E0E",
"a  c #6C340D",
"s  c #73310D",
"d  c #7B350D",
"f  c #662D10",
"g  c #692F10",
"h  c #623215",
"j  c #6B3515",
"k  c #6B361B",
"l  c #713210",
"z  c #783410",
"x  c #713817",
"c  c #562F20",
"v  c #4E3821",
"b  c #553223",
"n  c #5D3624",
"m  c #523D24",
"M  c #55382F",
"N  c #5C3B26",
"B  c #673F29",
"V  c #683F2B",
"C  c #663C26",
"Z  c #5C4C2C",
"A  c #5C4227",
"S  c #63422C",
"D  c #6C412D",
"F  c #694629",
"G  c #714A2D",
"H  c #7A4728",
"J  c #60512F",
"K  c #77522F",
"L  c #6A4834",
"P  c #744832",
"I  c #764D36",
"U  c #6C5431",
"Y  c #675632",
"T  c #7D533A",
"R  c #785635",
"E  c #79653A",
"W  c #746038",
"Q  c #795842",
"!  c #6D544D",
"~  c #79625B",
"^  c #81370C",
"/  c #85390D",
"(  c #8C3C0C",
")  c #923F0D",
"_  c #823910",
"`  c #893C10",
"'  c #913F10",
"]  c #99420B",
"[  c #97410B",
"{  c #8B4918",
"}  c #9A4310",
"|  c #935312",
" . c #995A0F",
".. c #A2460D",
"X. c #AB4A0D",
"o. c #B34D0E",
"O. c #B94F0E",
"+. c #BC510E",
"@. c #9C6209",
"#. c #BB6C14",
"$. c #844825",
"%. c #805C35",
"&. c #8A5A3F",
"*. c #89583A",
"=. c #965A33",
"-. c #8B522D",
";. c #81653B",
":. c #8B653B",
">. c #836D3F",
",. c #946E3F",
"<. c #B1612A",
"1. c #C4550F",
"2. c #C9601C",
"3. c #CE6B2A",
"4. c #86644B",
"5. c #8B6A4F",
"6. c #956345",
"7. c #96694C",
"8. c #8E7443",
"9. c #9E7844",
"0. c #977D48",
"q. c #997746",
"w. c #9E7D5D",
"e. c #957254",
"r. c #A06D4D",
"t. c #AB7553",
"y. c #AD7C5A",
"u. c #A37755",
"i. c #B67E58",
"p. c #A97146",
"a. c #D2850A",
"s. c #EB9709",
"d. c #F0A612",
"f. c #FBAA01",
"g. c #FBBA30",
"h. c #FBB521",
"j. c #A78149",
"k. c #B18A4E",
"l. c #BB9354",
"z. c #B7815C",
"x. c #AA8968",
"c. c #A98666",
"v. c #B88B66",
"b. c #B69572",
"n. c #C1875F",
"m. c #C59C59",
"M. c #D58B58",
"N. c #CEA65E",
"B. c #C28B64",
"V. c #CC9067",
"C. c #C7976F",
"Z. c #D7996D",
"A. c #CC9E75",
"S. c #D79C70",
"D. c #D8AF63",
"F. c #C2A27B",
"G. c #CCA77F",
"H. c #D3A47A",
"J. c #DBA679",
"K. c #E2A273",
"L. c #E5AE7E",
"P. c #EDAB7A",
"I. c #E8A06C",
"U. c #CEAE85",
"Y. c #DABA8F",
"T. c #D8B489",
"R. c #E7AF80",
"E. c #EEB281",
"W. c #E3BB8E",
"Q. c #EBBD8D",
"!. c #E0B386",
"~. c #F1B886",
"^. c #F3BE8B",
"/. c #F0B583",
"(. c #FDD480",
"). c #E7C698",
"_. c #E5C295",
"`. c #F6C593",
"'. c #F7C896",
"]. c #F7CA99",
"[. c #F8CD9A",
"{. c #FBD29F",
"}. c #F3D2A2",
"|. c #FDD6A3",
" X c #FDD8A6",
".X c #FFDFAC",
"XX c #E4CFBC",
"oX c #F9DBBB",
"OX c #FFE3B6",
"+X c #FFE4BC",
/* pixels */
"                                                        f l g     3 3 9                                                 ",
"                                                    < o.1.1.1.f [ +.1.1.o.9                                             ",
"                                                3 3 +.1.1.1...o.1.1.1.1.1._                                             ",
"                                              l ..) 1.1.1.1.1.1.1.1.1.1.+.l                                             ",
"                                            9 1.) O.1.1.1.1.1.X.) X.1.} z ../                                           ",
"                                            ` o.) ..o.1.1.` z k y [ o.O.o.p z                                           ",
"                                            ..X.) d l s k 7.t.K.S.u s s t z                                             ",
"                                          f ..[ ] ) s r.Q. X|.|. X{.H.H.H.o                                             ",
"                                        o O.X.) ] ) p W.e.-.6.L b.}..X.XU.                                              ",
"                                        ; 1.X.g p ) j U.( 1.1.1...T .X.Xw.                                              ",
"                                        < +.` W.).z H b.) ( o.+.+.H .Xu.}                                               ",
"                                        ; ` $.I.[.U.4.T.i s d [ d c..X$.}                                               ",
"                                        9 o.*.Z.L ).~.P.t.c ! M T !.Y.< p                                               ",
"                                        ` ..C P.P y.P.P.P.B.~ M y.[._.o                                                 ",
"                                      g ' ] f V.K.n.r.K.P.U.x.}..X.X XP                                                 ",
"                                    9 ) z ] ^ u *.&.K.E. X.X.X X.X.X.Xu.w.                                              ",
"                                    s [ i ] ] s p M.P.~..X.X_.A..X.XOXXXT                                               ",
"                            # # ; ; d [ +.X.X.p X.2.I.P.P.P.6.[..X.XOX+Xy.                                              ",
"                        o 9 0 4 q 2 ^ ..1.1...) 1.1.2.=.$.3.P /.^.Q..X.Xv.                                              ",
"                    o 4 t 4 h 0 0 3 / o.1.1.X.o.1.1.^ / 1.X.f i.P.I B.L.P :                                             ",
"                  2 0 9 t 4 h q t : ( +.1.1.o.1.1.) s 1.1.1.] d ^ ( q , d s                                             ",
"                o t t 0 j > t > h 3 ( +.1.o.1.1.1.1 ..O.o.1.1.O.] =.W.<.1...o                                           ",
"              o 0 t 4 t 4 0 h > 0 9 ( +.X.+.1.1.+., o.] 1...+.X.[ 7.oXp.O.o.: ;                                         ",
"              : t 4 h t > h q t j q / 1.] +.1.1.) < ..] ] X.o.] d &.i.s o...< : ;                                       ",
"              o 4 t t q t t 0 t 4 0 d ..) 1.1.X.( i ) ) ..O.] ) 0 p s ( [ ..1 > e                                       ",
"              y : 4 t : t : 4 h t < s ) ^ o.1...) < ..) ] ) ( , d [ [ ( , d 1 h 0 2                                     ",
"            b Z.&.: 0 4 t 4 t > 4 q , ] d ] +.] ) > ) ) ) p , ^ } o.X.+.] p ; 0 4 3                                     ",
"          y Z.P.'.S > 4 t t h 0 0 h 9 s i ) ] ] ] < s < , d ) X.1.1.1.1.1.X.s : 4 2                                     ",
"        b Z.P.]..XU.: > t 4 0 > h > 4 : ; ( s ) ] s p / ^ ..O.1.1.1.1.1.1.1.X.b b Q o                   o 8   o         ",
"      o V.P.`..X.X.X).4.: > t t h 4 : # @ i d s [ d a a p 1.1.1.1.1.1.1.1.1.O.w..X.X).4.            N U.Y.Q w.}.e.      ",
"    o r.P.E..X.X.X.X.X.Xb.N 0 j t t q @ - @ ^ , 0 @.d.h.@.+.1.1.1.1.1.1.1.1.o.8 }..X.X.Xw.        + ).).S )..X.X}.b     ",
"    t.P.P. X.X.X.X.X.X.X.X`.6.o : t 3 . - - , d  .f.(.h.a.) 1.1.1.1.1.1.1.1...w.x..X.X.X.XI       w Y.S )..X.X.X.X5.    ",
"  6 P.P.'..X.X.X.X.X.X.X.X`.Z.I ,.2 O . - - 5 _ | s.s.a.#.` 1.1.1.O.O.1.1.1...a.q..X.X.X.XF.  o N D b.7 }..XY..X.XF.    ",
"  C P.P..X.X.X}..X]..X.X.XE.*.m.N.X . . - - * s j #.| j i ^ 1.X.1.O.X.1.1.1.) { b..X.X.X.X).4.)..XL.5 L 4.5.U..X.X}.o   ",
"  o P.P..Xx.S 3 w I A.[.^.6.j.D.m.X . . - - - f d ; d 1.1.i 1...1.O...1.o.1.s 9 Y..X.X.X.X.XY..X.X'.Z.7.b..X.X.X.XOXS   ",
"    Z.B.b ; e q q h C K.6.:.D.D.l.O . . - - - 2 ) 1 ] 1.1.s O.] 1.O.) 1.X.o.s l .X.X.X.X.X.X.X.X.X.X[.v.F..X).}..X.XN   ",
"    V 0 f e 9 2 ; 3 3 n 9.D.D.D.l.X . . - - - * s i ( O.1.z 1.) 1.o.) 1.X./ ^ $..X.X.X.X.X.X.X.X.X.X.XY.Q Q w..X.X XV   ",
"    e 0 ; 4 e h k h q 6 N.D.D.D.m.O . . - - - - ; ^ < ) 1.f 1.) X.o.) 1...i ) { .X.X.X.X.X{..X.X.X.XOXe.4.U..X.X.X].V   ",
"    ; e k k h 4 ; 3 h q %.D.D.D.m.X . . = - - - 5 ; z , ) f 1.) ) O.) +./ o s s |..X.X.X|.P.|..X.X.X.Xw.U.w..X}.x.y.6   ",
"    ; j t ; ; 9 q q q q 3 k.D.D.D.O . . = - - - - - 6 _ i z ....) X.) ..i o o ; J..X.X.X].P.~..X.X.X.Xw..XT D &.n.P     ",
"      9 ; h k k q e 4 ; V V m.D.D.5 . . & - - - - - 5 % s ) ] ) ] [ ] ( + X   o 6.`..X.XE.P.P.`. X.X|.v..X].P.K.6.      ",
"      3 j j 0 o V 7.C.R.P.Z.G D.D.7 . . & - - - - - 5 5 5 ; ) ) [ ] ] s * X     o 6.P.P.P.P.P.P.P.P.P.P.^.P.Z.b         ",
"      4 k 9 6 z.'. X.X|.P.V.&.N.D.7 . . & - - - - - % o - - * 9 s ] ) < * X       o 6.P.P.P.P.P.P.P.P.P.P.z.n           ",
"      ; 9 C J. X.X.X.X XP.C r.8.D.# . . % - - - - - * . + - 5 * * 3 i 5 & o         o 6.P.P.P.P.Z.V.t.&.D               ",
"        n K.|..X.X.X.X.X^.6.V.I N.X . . $ - - - - - - $ X * - - - - * O & X             6 c c o o ;                     ",
"        6.P.^..X.X.X.X.X.XE.Z.G k.O . . $ - - - - - - $ . + - - - - * . & X                                             ",
"        6 K.P. X.X.X.X.X.X[.P.C 4.. . . $ - - - - - - $ . + - - - = $ % & X                                             ",
"          6.P.'..X.X.X].E.L.%.j.Q . . . . - - - - - & . . X = - - = . & & o                                             ",
"          6 Z./..X{..X/.6.G l.D.C . . . . - - - - - & . X X * - - $ . & % o                                             ",
"          b P P.~.V.P.n.:.N.D.D.# . . . . & - - * # A F 7 . % - - . . - O                                               ",
"          %.l.C i.6.S ,.D.D.D.N.O . . . . & * 7 U 0.8.A X . O 5 + . $ * X                                               ",
"          %.,.G o o w 9.D.D.D.m.X O X X . 5 7 Z E Z Z W 5 7 U U 2 o + O                                                 ",
"                      o :.m.D.N.9.9.9.:.8.p.6 7 v Y 8.8.F 0.8.J 5                                                       ",
"                          3 S F y o o o ; o o 7 A E j.E 0.E Z 5                                                         ",
"                                            o m r W j.8.Y A o                                                           ",
"                                              r 7 Z W Z 7 #                                                             ",
"                                              2 7 A r 7 E 8.6                                                           ",
"                                                # # r Y Y J r                                                           ",
"                                                o 7 7 2 2 # o                                                           ",
"                                                                                                                        "
};
