/* XPM */
static char *_c9cf6d168e54aa6d9522285ad3f7b96ANFvfOZ4TZj3noHo[] = {
/* columns rows colors chars-per-pixel */
"60 60 238 2 ",
"   c None",
".  c #2B1A1A",
"X  c #2B1A1B",
"o  c #2E1A19",
"O  c #291A1C",
"+  c #331A16",
"@  c #361A15",
"#  c #381A13",
"$  c #3B1A12",
"%  c #3A1B13",
"&  c #3C1A10",
"*  c #3D1A10",
"=  c #3C1B10",
"-  c #3D1B10",
";  c #3D1A11",
":  c #3D1B11",
">  c #3F1A10",
",  c #3E1B10",
"<  c #3E1A11",
"1  c #3C1B12",
"2  c #3D1B12",
"3  c #3E1B12",
"4  c #3F1B12",
"5  c #3C1C10",
"6  c #3D1C11",
"7  c #3E1C11",
"8  c #3C1C12",
"9  c #3E1F16",
"0  c #301A18",
"q  c #3F221A",
"w  c #2E2124",
"e  c #34282C",
"r  c #362C30",
"t  c #393033",
"y  c #3C3337",
"u  c #3E373B",
"i  c #452316",
"p  c #402018",
"a  c #412018",
"s  c #402118",
"d  c #40221A",
"f  c #41261F",
"g  c #43261E",
"h  c #45251D",
"j  c #44261E",
"k  c #482619",
"l  c #4D2B1A",
"z  c #422923",
"x  c #422A23",
"c  c #422924",
"v  c #442B26",
"b  c #472C25",
"n  c #4A2B21",
"m  c #4B2E26",
"M  c #432E28",
"N  c #402D2A",
"B  c #442D28",
"V  c #482F29",
"C  c #4F3026",
"Z  c #45312C",
"A  c #45312D",
"S  c #47332E",
"D  c #4A312C",
"F  c #533121",
"G  c #563523",
"H  c #5E3B24",
"J  c #5E3C29",
"K  c #5E3D29",
"L  c #463431",
"P  c #473431",
"I  c #493431",
"U  c #4D3732",
"Y  c #4D3733",
"T  c #483836",
"R  c #493C3A",
"E  c #493C3B",
"W  c #4A3F3F",
"Q  c #4B3F3F",
"!  c #523831",
"~  c #513D38",
"^  c #553E38",
"/  c #54433F",
"(  c #59423C",
")  c #6E4A2D",
"_  c #6E4B2D",
"`  c #6E4B2E",
"'  c #684831",
"]  c #694831",
"[  c #714D31",
"{  c #714E31",
"}  c #775232",
"|  c #775332",
" . c #7F5A37",
".. c #7F5B37",
"X. c #745339",
"o. c #433F43",
"O. c #4C4343",
"+. c #4C4244",
"@. c #4C4344",
"#. c #49464B",
"$. c #4D4648",
"%. c #4D4748",
"&. c #4B4A4F",
"*. c #4F4A4D",
"=. c #4F4B4D",
"-. c #564440",
";. c #574846",
":. c #5D4842",
">. c #584846",
",. c #5C4B47",
"<. c #5B4D4A",
"1. c #4E4E53",
"2. c #504D51",
"3. c #504E51",
"4. c #504D52",
"5. c #515156",
"6. c #515157",
"7. c #575255",
"8. c #5E5353",
"9. c #5E5453",
"0. c #53555B",
"q. c #545459",
"w. c #55575D",
"e. c #585659",
"r. c #57595F",
"t. c #59595F",
"y. c #604C46",
"u. c #604C47",
"i. c #7E5E41",
"p. c #665C5C",
"a. c #6E5F5C",
"s. c #5B5D63",
"d. c #645F60",
"f. c #655F60",
"g. c #5E6167",
"h. c #5F6167",
"j. c #696467",
"k. c #616369",
"l. c #616469",
"z. c #62656B",
"x. c #63656B",
"c. c #62666B",
"v. c #686568",
"b. c #66696F",
"n. c #6B6B6E",
"m. c #6C6A6E",
"M. c #766967",
"N. c #716A6A",
"B. c #716C6D",
"V. c #686B71",
"C. c #6B6C70",
"Z. c #6A6E73",
"A. c #6C6F75",
"S. c #6C7075",
"D. c #6E7277",
"F. c #7D7371",
"G. c #707479",
"H. c #72767B",
"J. c #876646",
"K. c #8F6A40",
"L. c #8F6A41",
"P. c #896949",
"I. c #926F49",
"U. c #977145",
"Y. c #957147",
"T. c #987245",
"R. c #9F794A",
"E. c #947451",
"W. c #9A7952",
"Q. c #A07A4A",
"!. c #83716C",
"~. c #847C7B",
"^. c #A8824E",
"/. c #A8824F",
"(. c #AF8953",
"). c #B18A53",
"_. c #B08A54",
"`. c #AA8B61",
"'. c #B39366",
"]. c #BB9760",
"[. c #C0995D",
"{. c #C19A5D",
"}. c #C39D60",
"|. c #C49D60",
" X c #C6A063",
".X c #C7A063",
"XX c #C9A266",
"oX c #C9A366",
"OX c #C9A467",
"+X c #CBA76A",
"@X c #CCA76A",
"#X c #CAA86F",
"$X c #CEAA6D",
"%X c #CFAA6D",
"&X c #C0A171",
"*X c #D1AD70",
"=X c #D1AE71",
"-X c #D4B073",
";X c #D3B174",
":X c #D4B174",
">X c #D7B376",
",X c #D6B477",
"<X c #D7B477",
"1X c #D9B77A",
"2X c #DCBA7D",
"3X c #797D82",
"4X c #7B7E83",
"5X c #7B7F83",
"6X c #7E8084",
"7X c #8A8586",
"8X c #8B8687",
"9X c #83878B",
"0X c #8C8E91",
"qX c #8C9094",
"wX c #9F9897",
"eX c #9A9A9C",
"rX c #9EA1A4",
"tX c #A9A9AB",
"yX c #B0ACAD",
"uX c #B8BABD",
"iX c #D6B781",
"pX c #D6B881",
"aX c #DEBE81",
"sX c #E1C184",
"dX c #E3C487",
"fX c #E4C487",
"gX c #E1C389",
"hX c #E6C78A",
"jX c #E6C88B",
"kX c #EACA8D",
"lX c #E9CB8E",
"zX c #ECCE91",
"xX c #BEC4C8",
"cX c #CACCCD",
"vX c #C7CCD0",
"bX c #D3D4D6",
"nX c #D2D7DA",
"mX c #D6DADC",
/* pixels */
"                                                                                                                        ",
"                                                                                                                        ",
"                                                                                                                        ",
"                                                                                                                        ",
"                                                                                                                        ",
"                                                                                                                        ",
"                                                                                                                        ",
"                                                                                                                        ",
"                                                                                                                        ",
"                                                                                                                        ",
"                                                                                                                        ",
"                                                                                                                        ",
"                                                                                                                        ",
"                                                                                                                        ",
"                                                                                                                        ",
"                                                                                      2 2                               ",
"                                            ] G                                     5 F                                 ",
"                                            I.pX2                                   J J.                                ",
"                                            ) fXJ                                   i.{                                 ",
"                                            ) 2X]                                 2 E.|                                 ",
"                                          2 Y.hX]                                 2 E.Q.2                               ",
"                                          2 ].lXX.                                2 E.#X2                               ",
"                                        2 ) ,XlXP.2             2 2 2 2           2 '.oXH                               ",
"                                        i ).=XlX&X2       2 2 9 Z %.*.2           2 iXaX| 2                             ",
"                                      2 ) |.-XlXgXF 2 2 c R %.r.k.C.g.L 2       2 ] hX@XL.2                             ",
"                                      2  .{.%XW.k c R t.l.5XG.G.G.G.D.q.q       5 iX1X=X^.2                             ",
"                                      2 | {.) q %.l.G.5XrXuXbXbXcX9XG.l.%.2 2 k `.hXdX;X_.2                             ",
"                                      2 i  .q 4.w.D.G.G.G.G.G.G.5XqXm./ 9 k E.gXsXdX.X}.^.2                             ",
"                                    2 2 2 2 d L R %.s.b.D.G.G.G.G.f.d ] &XgXzX:XsX.X@X{.T.2                             ",
"                                  d >.8.8.8.;.Y D 2 2 x R e.k.V.b.h { lXdXsX,X%X:X+X{.{.) 2                             ",
"                              C n ~ G.j.^ yXB.G.G.G.f.;.D 2 f Q O.2 ^.fXOXjX.X%X{.{.{.L.2                               ",
"                            2 wX2 7.g.I ~.xX:.V.A.G.m.<.0Xv.9.f 2 2 ^.:X+XoX.X{.{.{.(.l 5                               ",
"                              2 q 0.0.*.9 ! L 0.0.0.Z eXnX,.G.G.f.Y 2 ) ).{.{.{.{.Y.i 2                                 ",
"                              2 x *.+.Q +.R 5.0.0.0.L u.M.v l.D.G.G.n.Y 2  .{.R.H 2 2                                   ",
"                              2 2 2 $ $ $ 2 2 9 x R *.Q R 4.0.0.g.C.8.6X9.f 2 2 2                                       ",
"                                2 T &.w O O . o + $ 2 d T 4.0.0.0.Z 8XmXp.G.>.2 2                                       ",
"                                  2 T 1.w O O O O O . 0 $ 2 Z %.0.B a.8XV G.G.f.f 2                                     ",
"                                    2 Z 4.u O O O O O O O . @ 2 x +.Z B 4.r.D.G.n.b 2                                   ",
"                                      2 d Q 1.t O O O O O O O . @ 2 Z 4.0.0.4.-.tXN.d                                   ",
"                                        5 2 x %.1.t O O O O O O O . @ 2 T 0.T F.vXu.Y 2                                 ",
"                                            2 2 x Q 1.o.e O O O O O O 0 $ d +.q ( L 9 2                                 ",
"                                                2 2 d Z *.1.o.r w O O O . @ 9 Q *.O.m !.                                ",
"                                                      2 2 d Z Q *.5.#.o.u y N 2 Q x 2 h                                 ",
"                                                            2 2 2 9 x N L T T x 2 2                                     ",
"                                                                      2 2 2 2 2 5                                       ",
"                                                                                                                        ",
"                                                                                                                        ",
"                                                                                                                        ",
"                                                                                                                        ",
"                                                                                                                        ",
"                                                                                                                        ",
"                                                                                                                        ",
"                                                                                                                        ",
"                                                                                                                        ",
"                                                                                                                        ",
"                                                                                                                        ",
"                                                                                                                        ",
"                                                                                                                        ",
"                                                                                                                        ",
"                                                                                                                        "
};
