/* XPM */
static char *_34823d58d154114c20855d8c7eb1af0kA4WVnlaFrFx1YWs[] = {
/* columns rows colors chars-per-pixel */
"60 60 226 2 ",
"   c None",
".  c #321C1E",
"X  c #3B1F1F",
"o  c #2F1B1F",
"O  c #3B201E",
"+  c #2F1D22",
"@  c #321D23",
"#  c #381F24",
"$  c #362125",
"%  c #3B2123",
"&  c #34222B",
"*  c #3B242B",
"=  c #372532",
"-  c #3A2533",
";  c #3D2935",
":  c #3D2A39",
">  c #2F212B",
",  c #4B221E",
"<  c #52251F",
"1  c #422322",
"2  c #442B2C",
"3  c #4B2D2C",
"4  c #462827",
"5  c #542322",
"6  c #542E2A",
"7  c #592C26",
"8  c #4E3226",
"9  c #4D322A",
"0  c #52342C",
"q  c #5B342A",
"w  c #573629",
"e  c #442D33",
"r  c #432D3B",
"t  c #4B2F34",
"y  c #4C3333",
"u  c #45303D",
"i  c #49313C",
"p  c #463034",
"a  c #533534",
"s  c #553B34",
"d  c #5A3C33",
"f  c #523638",
"g  c #543B39",
"h  c #5B3D3A",
"j  c #583734",
"k  c #672C29",
"l  c #6B332C",
"z  c #64382A",
"x  c #74332B",
"c  c #7D342B",
"v  c #7D3A2B",
"b  c #783426",
"n  c #673832",
"m  c #7A3835",
"M  c #792F27",
"N  c #451F1F",
"B  c #5D423B",
"V  c #5B4136",
"C  c #6C4235",
"Z  c #63453C",
"A  c #6C453C",
"S  c #65493D",
"D  c #6B4B3E",
"F  c #654334",
"G  c #72453B",
"H  c #784736",
"J  c #7D553E",
"K  c #74432C",
"L  c #4B3443",
"P  c #4A3645",
"I  c #533D4C",
"U  c #533B4A",
"Y  c #594349",
"T  c #5B4454",
"R  c #574252",
"E  c #654A42",
"W  c #6A4C43",
"Q  c #684B46",
"!  c #754C42",
"~  c #6D5246",
"^  c #6D5249",
"/  c #645042",
"(  c #735246",
")  c #7C5443",
"_  c #72544B",
"`  c #79584B",
"'  c #634A5A",
"]  c #66485B",
"[  c #7A5C51",
"{  c #6A505F",
"}  c #6C5465",
"|  c #6E576B",
" . c #735865",
".. c #755C6D",
"X. c #745969",
"o. c #755C70",
"O. c #795D71",
"+. c #6A4F62",
"@. c #77636F",
"#. c #7C6473",
"$. c #796674",
"%. c #823526",
"&. c #813529",
"*. c #85392A",
"=. c #913F2D",
"-. c #883D39",
";. c #88472A",
":. c #954A2B",
">. c #8C542E",
",. c #884737",
"<. c #974838",
"1. c #82543C",
"2. c #8A5B3C",
"3. c #8A5537",
"4. c #9C5335",
"5. c #965839",
"6. c #9D542D",
"7. c #A85B2F",
"8. c #A44D35",
"9. c #A94E32",
"0. c #A35435",
"q. c #AB5333",
"w. c #A55B35",
"e. c #AD5B35",
"r. c #A95239",
"t. c #A55A3B",
"y. c #AC5C39",
"u. c #A4553A",
"i. c #B15D34",
"p. c #B15D38",
"a. c #9A613A",
"s. c #986138",
"d. c #AD6235",
"f. c #AA6539",
"g. c #B26434",
"h. c #B46A35",
"j. c #B46C3B",
"k. c #B66937",
"l. c #B67235",
"z. c #BB7434",
"x. c #BB733B",
"c. c #B8763B",
"v. c #AB6833",
"b. c #C57A3E",
"n. c #815541",
"m. c #845A43",
"M. c #885B47",
"N. c #975844",
"B. c #824F40",
"V. c #A45B43",
"C. c #AB5D44",
"Z. c #A65846",
"A. c #B45E48",
"S. c #8F6146",
"D. c #966447",
"F. c #896556",
"G. c #966A56",
"H. c #AA6243",
"J. c #A86548",
"K. c #B26445",
"L. c #BB6446",
"P. c #B36B43",
"I. c #BC6C45",
"U. c #B5654A",
"Y. c #BC654B",
"T. c #BC6B4A",
"R. c #B76C4D",
"E. c #BC7242",
"W. c #BD714B",
"Q. c #B87748",
"!. c #B96B51",
"~. c #B47651",
"^. c #A96F50",
"/. c #816475",
"(. c #856A7B",
"). c #8A6B7D",
"_. c #846779",
"`. c #906F7F",
"'. c #8F707E",
"]. c #90707F",
"[. c #C16B47",
"{. c #C27345",
"}. c #C47B44",
"|. c #C37249",
" X c #C47C4B",
".X c #C97D44",
"XX c #C9833E",
"oX c #A48578",
"OX c #C68344",
"+X c #CA8343",
"@X c #C6814C",
"#X c #8E6F84",
"$X c #906F84",
"%X c #8D7184",
"&X c #8F7A86",
"*X c #917185",
"=X c #947489",
"-X c #957C8B",
";X c #9A7B8D",
":X c #9D7D91",
">X c #A17F93",
",X c #95818C",
"<X c #9B8493",
"1X c #9D8996",
"2X c #A38295",
"3X c #A58499",
"4X c #A9869B",
"5X c #A58C9C",
"6X c #AB8A9D",
"7X c #A28A96",
"8X c #AC9092",
"9X c #AE8CA2",
"0X c #B18CA2",
"qX c #AC91A1",
"wX c #AD98A6",
"eX c #B294A5",
"rX c #B59BAB",
"tX c #B898AC",
"yX c #BC9FB1",
"uX c #BDA3B3",
"iX c #B7A5B0",
"pX c #B7A0AD",
"aX c #C19FB4",
"sX c #C4AABA",
"dX c #C6B2BF",
"fX c #CDB9C4",
/* pixels */
"                                                                                                                        ",
"                                                                                                                        ",
"                                            uXtXrXeXeXeXeXeXrXtXyXuXuXsXfX                                              ",
"                                    ,X<X5XtX9X0X0X0X9X9X9X0X9X0X9X9X9X0XyXyX7X5X                                        ",
"                                (.@.../.2X9X9X9X9X9X9X9X9X9X4X9X9X9X9X9XtX:X$X$X;X6XrX                                  ",
"                            $.@.......o.%X3X9X9X0X0X0X0X0X9X6X6X9X9X9X9X9X*X#X#X#X*X3XqX                                ",
"                        @.@.o.......o...#.;X2X4X4X3X4X2X2X2X2X2X2X2X3X4X;X#X#X*X%X#X#X*X:X9X                            ",
"                      ......o.....o.o.o._.' L I U L u u u r r u L P U I L O.#X*X#X#X#X#X*X%X<XiX                        ",
"                  wX1XX.o.........o.| ' u & + & & & $ $ $ $ @ @ @ & & & & ; I X.).#X#X#X%X%X*XtXsXdX                    ",
"              5X;X=X3X(.X.......} I ; & $ $ % 2 3 3 3 9 E 3 4 X X X . . @ + & - L { (.#X%X%X;X0X0XuXdX                  ",
"            1X%X$X$X*X3X} } ' P - & $ 1 3 9 9 9 9 9 9 9 0 4 O 1 # X X X # # . @ @ - i ' _.).:X9X0X0XtXuX                ",
"          <X%X#X%X#X$X:XT : = $ % 9 9 9 6 0 6 7 k l l 6 9 4 % l k k 5 , N X % % $ @ $ * ; r *X0X0X9X0X9XtX              ",
"        <X%X#X#X#X#X%X} - + % 3 9 s 0 7 l m m -.,.-.m 6 9 2 # m b b b x l 7 5 1 1 % # o + & L =X9X0X9X0X9XrX            ",
"        %X*X$X#X#X(.R - $ 4 9 9 0 k x -.<.<.<.<.<.<.-.q 9 4 % m M &.M &.c c b x 5 1 % % # + & r (.4X9X0X0X9XyX          ",
"      #X#X$X#X#X#.L * $ 3 9 0 l ,.Z.A.Y.Y.C.U.U.Y.Y.Z.q 9 s 9 N.=.=.c c c c %.*.M k 5 N % # + & r O.3X9X0X0X9XuX        ",
"    &X#X#X#X%X/.L & $ 9 0 z H U.L.Y.Y.Y.Y.C.Y.A.L.Y.Z.z 9 s 0 V.8.9.8.=.&.c c c b &.b l , % % @ & : #.3X0X0X9XqX        ",
"    ).%X$X$X(.L = % 9 0 n Z.Z.Y.L.Y.Y.Y.Y.C.Y.L.L.Y.Z.z a j 0 V.9.q.9.r.<.<.&.c c &.c v k < % $ @ & r _.6X0X9X4X5X      ",
"  pX=X).)./.P * % y j m C.R.K.U.L.Y.Y.[.[.A.Y.Y.U.Y.Z.z 0 d w V.r.r.9.q.8.8.8.=.%.&.c c c x 5 1 % . & r ).2X3X>X<X      ",
"  eXaXtX3XP & * s d H A.[.Y.K.U.Y.Y.Y.Y.Y.K.Y.Y.L.L.Z.z 0 d w V.q.q.q.r.8.0.r.r.:.%.c c &.&.b < 1 4 o > ; /.:X-X).1X    ",
"  0X0X0XeXX.u 2 g ! U.I.T.Y.K.U.L.T.T.Y.T.A.T.[.T.U.N.n s V d N.u.q.q.q.0.q.q.q.q.4.%.b v %.&.x 5 4 . & : _.O.o...,X    ",
"  eX9X9X9X(.L 2 g J R.Y.T.T.U.K.T.T.T.Y.R.J.J.D.M.H C d d B s F C H ,.N.4.u.q.q.q.q.8.b v c &.c 5 2 . = U ..o.o...      ",
"  qX9X9X9X#Xi e g C R.L.[.Y.U.C.U.J.D.M.) D D S ^ Z F V F F B V B ^ D W ! ! B.3.5.4.V.<.%.&.&.b 5 2 @ = I ..o.o.@.      ",
"  rX0X0X9X=Xi e g A ^.J.N.M.n.) ( ( ^ ^ ^ W W A F n C B Z Z Z C n n Z W W ^ ~ ^ W ( ) ! G l x n 4 2 @ = R ..o.o.$.      ",
"    9X0X9X2XL i a Z W D W ~ ~ ( ( W D H H H 3.5.V.U.Z.C S S Z J.4.4.,.,.K H H G D ( ( ^ ^ h 3 y 3 4 & = ' ..o.o.$.      ",
"    9X9X9X4XU i y E E A S D ! G N.V.H.U.R.V.!.I.T.[.C.G S S S H.q.w.e.y.0.t.t.4.4.,.H G C F 6 3 p * & - } ..o...$.      ",
"    qX9X9X6X' L y W M.J.K.I.|.u.T.W.T.[.W.t.T.[.T.|.H.A S D W J.q.e.e.y.0.y.e.i.e.e.0.y.y.4.x 7 y $ & - X...o...        ",
"    9X9X9X6X{ i p W M.T.I.I.T.C.W.E.I.T.W.C.R.[.I.[.H.G W W W H.e.e.e.e.r.e.e.e.p.y.0.e.e.4.*.7 a $ = : ..o.o.o.        ",
"    5X4X9X6X .i p W ` W.|.I.I.C.W.E.[.T.{.C.T.{.[.I.H.G E / D H.e.e.e.e.u.e.e.e.p.i.0.y.p.:.*.6 a @ = ; ..o.o.#.        ",
"      3X3X2XX.: ; Z ` ~.|.{.I.C.W.E.|.|.{.H.I.{.|.I.t.G ( ~ ! H.e.e.i.d.u.d.i.e.p.g.0.y.p.:.v 6 y + > ; } ....@.        ",
"      ;X:X4XO.; ; V ( ~.|.{.{.K.T.E.|.{.{.K.P.{.{.{.H.A E W W H.e.i.i.d.0.g.i.i.e.d.0.d.i.:.b a 3 @ = R ).O.}           ",
"      rX6X2X9XU u V ( ^.|.{.{.T.K.E.|.{.{.K.P.W.~.~.^.( D D W J.J.J.H.f.u.g.g.g.e.d.t.d.i.;.l f 2 & = -XtXaXtX          ",
"        %X#X=X' i g ( G.|.{.{.W.H.E.|.{.{.I.J.M.[ ` ` ^ Q Q ^ ( ` [ M.f.u.d.g.g.i.j.t.g.e.;.l f 2 & - 2X9X0XsX          ",
"        %X$X%XX.i y ^ S.E.{.{.{.V.E.|.{.{.E.J.M.` [ ( W W W ^ ~ [ ` ` a.w.g.g.g.i.f.t.g.y.;.k a * = P 4X9X0XuX          ",
"        %X$X#X#.i p ~ M.W.{.{.|.H.E.|.{.{.|.J.) ( oXF.W W W W _ 8X[ D D.w.g.g.k.g.w.f.g.w.;.7 f $ = T 6X6X0X            ",
"        -X$X#X).i e W ` W.{.{.{.H.E.{.{.{. XD.d Z ^ Z Z E W E B ( W d M.d.g.g.k.g.4.d.k.0.v 6 y @ - X.9X9X6X            ",
"        -X$X#X%XP r Z _ ~.}.{.{.H.E.{.{.{. XH y 9 f 4 h Z E B 0 9 a 3 C f.k.g.g.k.4.d.k.6.v 6 p @ - (.9X9XeX            ",
"          #X$X%XI u h W ~.}.}.}.P.W.E.{.{.W.H Y Y h g W Z S W B h B E A f.k.h.k.k.4.g.k.:.x 0 3 @ - *X9X0XeX            ",
"          %X#X$X] i g W ^.}.}.}.x. Xx.}.{.Q.n.` M.m.( ` B E W _ J 1.( ) f.k.h.h.j.w.g.g.:.l 3 2 & u :X9X0XtX            ",
"          &X#X#X} i y E D.}.}.}.}.|.x.}.{. X5.M.G.G.F.d V Z s M.F.G.M.H g.h.k.k.j.w.k.g.:.z y % = I 3X9X9X              ",
"          -X$X#X..i e Z M.}.}.}..XE.b.}.}. XH.5.1.3.,.q h Z h 3.H ,.;.5.g.k.h.k.j.w.k.d.;.q y # = ' 9X0X6X              ",
"          &X$X#X#.i e B ) Q.}..X@XP.{.}.}.}.P.E.x.j.H.F B Z V P.7.7.g.P.k.j.h.k.j.7.k.d.;.7 p . & X.9X0XqX              ",
"            (.(...; * h ) Q.}.}.@Xj.}.}.}..XP.}.}.}.H.z E E d j.h.k.h.j.k.j.h.k.h.7.k.f.;.7 3 @ & X.>X4X1X              ",
"            -X#X%XT e g F ~.}..X@XE.}.}.}. Xj..X}..XP.z d d w P.j.j.j.x.j.j.h.j.v.v.j.w.K 4 4 @ P 3XeX6X                ",
"            (...O.+.u y d J 1.1.n.) n.n.m.m.) 1.1.m.n.d 0 d 0 ) 1.1.n.n.J J 1.J ) ) n.C q 4 $ & R =X$X;X                ",
"            $.....} i 3 s s s Z d d s d S g s s s Z 0 y 0 w 9 0 d s s g s V B d s s S 4 * 1 # & R #X#X-X                ",
"              ....X.u 2 a H a.s.s.5.s.5.s.a.>.s.s.s.3.q w s 8 3.>.>.>.>.>.>.5.>.>.>.>.b 8 % . & ] #X#X<X                ",
"              o...} L 2 9 H }.@X+Xc.@X}..XOXj.+X+X+XP.q 0 s w Q.k.z.h.j.x.h.x.x.h.x.j.;.7 % . - } #X#X1X                ",
"              o...} U e 9 F @XOX+Xj.+X}.OXOXv.OX+X+XQ.q 0 s w Q.l.z.h.j.c.h.c.z.h.z.h.;.< % @ - #.#X#X                  ",
"              $...X.I e 9 d Q.+Xb.j.}..X+X+Xj.OXXXXXE.z 0 s 8 c.l.z.h.h.c.l.l.z.j.z.h.K 1 % @ ; (.*X%X                  ",
"              $...X.R e 3 8 Q.+X+Xx.c.b.+XOXj.OXXX+XE.z 9 s 8 Q.l.z.h.v.c.l.l.z.l.z.d.K , $ # r #X#X%X                  ",
"              %X....T i 2 9 J S.S.N.M.S.D.S.M.S.D.D.S.w 0 s 9 2.2.2.2.1.2.m.2.2.M.2.H n % # & P %X$X-X                  ",
"                ....' i 2 B 0 9 9 8 9 9 8 8 9 8 9 9 8 9 ~ S g 8 9 9 8 9 8 9 8 8 9 8 1 O 2 . & I #X%X-X                  ",
"                ....} u e y y y y y y y y y f g g g g g h g f f f f f f f f f f f f e * * & & T #X).                    ",
"                $...} I  .X.............O./.;X4X6X4X4X4X4X4X4X4X4X6X6X6X6X6X6X6X4X4X3X;X=X(.] +.).(.                    ",
"                @.X.#X3X3X3X3X2X2X3X3X2X2X4X6X6X6X6X6X6X4X3X4X3X2X).$X$X#X*X*X$X#X).).).).).)./././.                    ",
"                  (.3X4X9X9X9X9X9X9X9X9X0X0X0X0X9X9X9X9X6X6X6X3X2X;X).#X#X%X%X%X$X$X#X#X#X#X).).(.#.                    ",
"                  7X3X3X3X3X3X6X9X9X9X0X9X9X9X9X9X9X0X9X9X9X6X3X3X4X=X%X%X%X%X%X#X%X#X#X%X%X#X%X%XqX                    ",
"                qX3X2X2X>X2X2X2X2X2X>X2X2X2X>X>X>X>X:X:X:X:X:X2X>X:X)./.).(.(.).).).#X).).).).).).%X                    ",
"                7X'.'.`.].].].].'.].].].].].].].].`.`.`.`.`.].].`.`.). . . . . . . . . . . . . . .@.                    ",
"                                                                                                                        "
};
