/* XPM */
static char *enl1716897758[] = {
/* columns rows colors chars-per-pixel */
"60 60 195 2 ",
"   c None",
".  c #0C0C0B",
"X  c #040707",
"o  c #0B1314",
"O  c #0B1718",
"+  c #151513",
"@  c #1A1917",
"#  c #131B1C",
"$  c #1B1A19",
"%  c #201F1E",
"&  c #1E211F",
"*  c #20211F",
"=  c #0D1F21",
"-  c #142426",
";  c #1C2222",
":  c #1E2929",
">  c #182628",
",  c #1F3233",
"<  c #1C3A3E",
"1  c #182F32",
"2  c #232423",
"3  c #262827",
"4  c #242B2B",
"5  c #2B2C2C",
"6  c #2D302F",
"7  c #242F30",
"8  c #223334",
"9  c #2E3232",
"0  c #2C3C3D",
"q  c #203C3E",
"w  c #313534",
"e  c #353A3B",
"r  c #393E3E",
"t  c #333839",
"y  c #3B403F",
"u  c #393F40",
"i  c #184A53",
"p  c #23474C",
"a  c #3C4243",
"s  c #3D4749",
"d  c #32595C",
"f  c #265257",
"g  c #245E68",
"h  c #2C6167",
"j  c #276974",
"k  c #29717D",
"l  c #36737A",
"z  c #414646",
"x  c #404749",
"c  c #434A4B",
"v  c #454B4A",
"b  c #464F51",
"n  c #465253",
"m  c #4B5354",
"M  c #4B5658",
"N  c #445C5D",
"B  c #4E585A",
"V  c #515756",
"C  c #535B5D",
"Z  c #5A5D5D",
"A  c #4F5C60",
"S  c #535F61",
"D  c #556264",
"F  c #5A6364",
"G  c #5A676A",
"H  c #5C6A6D",
"J  c #5D6C70",
"K  c #40787E",
"L  c #57797B",
"P  c #486264",
"I  c #616767",
"U  c #636C6E",
"Y  c #696A69",
"T  c #626E71",
"R  c #637175",
"E  c #657579",
"W  c #6B7679",
"Q  c #6B7A7D",
"!  c #687475",
"~  c #727B7C",
"^  c #797878",
"/  c #337F89",
"(  c #6D7E81",
")  c #717E81",
"_  c #37838D",
"`  c #2C8898",
"'  c #328E9D",
"]  c #329AAC",
"[  c #3495A5",
"{  c #2F93A4",
"}  c #36A4B6",
"|  c #428187",
" . c #5B8183",
".. c #478B92",
"X. c #6F8185",
"o. c #618A8C",
"O. c #738185",
"+. c #738589",
"@. c #75888D",
"#. c #7C8A8C",
"$. c #79878B",
"%. c #7B8D91",
"&. c #768B90",
"*. c #6A999D",
"=. c #679498",
"-. c #7D9196",
";. c #7C9298",
":. c #479EA6",
">. c #55B3BD",
",. c #46A7B4",
"<. c #7EB8BE",
"1. c #76AAAF",
"2. c #3CB7CB",
"3. c #38AFC2",
"4. c #49C2D3",
"5. c #57CAD8",
"6. c #44D2E9",
"7. c #47DCF5",
"8. c #62DCE9",
"9. c #4CE6FF",
"0. c #55E9FF",
"q. c #5BEAFE",
"w. c #50E2F9",
"e. c #63E1EF",
"r. c #63EDFE",
"t. c #6CEDFB",
"y. c #6FF2FF",
"u. c #898A8A",
"i. c #838E90",
"p. c #829195",
"a. c #83959A",
"s. c #84989D",
"d. c #8D9A9C",
"f. c #889496",
"g. c #9A9A99",
"h. c #859CA2",
"j. c #8A9DA1",
"k. c #929FA1",
"l. c #8BA1A6",
"z. c #8DA5AB",
"x. c #8FA8AE",
"c. c #94A2A5",
"v. c #92A5AB",
"b. c #94A9AE",
"n. c #99A6A8",
"m. c #93ABB1",
"M. c #9AAEB3",
"N. c #80BABF",
"B. c #9CB1B6",
"V. c #96B1B9",
"C. c #9CB4BA",
"Z. c #97B0B5",
"A. c #A1B6BC",
"S. c #A2B8BF",
"D. c #A6B6B9",
"F. c #81BEC4",
"G. c #9DB9C0",
"H. c #A3BDC3",
"J. c #AABEC4",
"K. c #85C5CB",
"L. c #8ACCD3",
"P. c #90D7DE",
"I. c #91D8DF",
"U. c #AAC1C7",
"Y. c #A5C3CA",
"T. c #ADC5CC",
"R. c #ACC8CF",
"E. c #A3C0C7",
"W. c #B2C3C6",
"Q. c #B5C8CC",
"!. c #ADCCD4",
"~. c #B5CDD3",
"^. c #AFD0D8",
"/. c #B4D3DB",
"(. c #BAD3D9",
"). c #95DDE4",
"_. c #BADCE4",
"`. c #BCDFE8",
"'. c #B7D9E1",
"]. c #99E3EA",
"[. c #9EECF4",
"{. c #BEE1EA",
"}. c #A0EFF7",
"|. c #A6F7FF",
" X c #C3D5DA",
".X c #C3D6DA",
"XX c gray87",
"oX c #C9DFE5",
"OX c #C4E3EB",
"+X c #CBE6ED",
"@X c #CEE8EE",
"#X c #CCE0E4",
"$X c #D3E8ED",
"%X c #D4EBF0",
"&X c #D8EDF2",
/* pixels */
"                                        @ l @         @                                                                 ",
"                                        @ 5.p $ $ $ @ @ $ @ $ $ $ $ $           ; $                                     ",
"                                    $ $ @ e.] > m k.W.W.C.z.c . . + @ @ $ $ $ $ _ $ $ @                                 ",
"                                  $ $ 5 # y.4.j v _.OX_.;.a o l h u j.) S 9 @ ..,.$ $ $ $                               ",
"                                  $ ~ W.3 y.w.{ 8 a._.C G M.- r.} 0 T.T.T.d.8 8.} 4 B.%.5 @                             ",
"                                $ $ T.A.y y.0.3.k 9 h.r R.R.a 5.2.- J.T.U.r >.r.} : J.T.F @                             ",
"                          $ $ $ $ 5 `.b.> >.4._ ; H !.x A.T.R f i ; n.S.W d y.0.} , m.T.C $                             ",
"                        $ % F I ~ $ '.^.B 9 2 r X.!.( r A.T.b.S s.J.A.D.z / t.9.] p &.T.v $                             ",
"                        $ ~ &X%X#X# h.G._.!.^._.!.a C J.a.m.T.T.T.T.T.T.$.2 d [ g ; T T.W $ $                           ",
"                        $ 9 oXOXOXl.a 2 % M x.+.w j.T.A.@ v T.T.T.H.B.T.T.k.S u a T m.J.T.v $                           ",
"                        $ $ Q.OX{.{.`.'.m.E t # %.T.T.T.T p.T.Q.Q.T.) S V.T.T.J.J.R.Y.B.A.A.% @                         ",
"                        $ 2 .XOX{.G.x._.{.`.`.+.5 v.R.T.T.Y.Q.T.T.T.T.j.a v.Q.T.T.T.Q.J.T.T.x @                         ",
"                      $ $ i.&XOX^.$ $ +.{.{.{.{.( v T.T.J.B.$.S $.J.H.a.C e T.T.T.T.T.T.T.T.S @                         ",
"                      $ m %X$XOX^.% $ M {.{.{.{.'.9 A.T.T.C.H.J.) t 2 5 T v.T.T.Q.T.T.T.R.T.) %                         ",
"                    @ * W.&X+X{.{.m.J l.{.{.oX`.'.u ) H.T.T.T.T.T.) a T.Q.T.T.T.T.T.7 - ) R.k.@ $                       ",
"                    $ F &X%X`.`.{.{.{.{.{.{.{.J.t t u 5 J.T.T.T.T.T.x -.T.T.T.T.T.T.# :.7 T.J.3 $                       ",
"                  @ $ D.&X+X{.{.{.{.{.{.{.{.{.a m.{./.e T.T.T.T.T.T.B.u T.R.T.T.v.x p 5.i W T.x $                       ",
"                  @ 2 .X&X+X{.{.OX%X{.{.{.{.R.z.{.{.b.M.R.T.T.T.T.R.H.V B.T.T.G < ,.0.6.` o H.U $                       ",
"                  @ y %X&XOX{.{.+X%XOX{.{.{.{.{.{.{.!.R.T.T.T.T.Q.R.a c A.T.T.t :.0.9.7.] i H $.$                       ",
"                  $ C &X&X{.{.{.{.{.{.{.{.{.{.{.{.{./.R.T.T.R.(.`.m.$ $ v.T.T.A.7 >.0.6.` = ) a.$                       ",
"                  $ F &X+X{.{.{.{.{.{.{.{.{./.`.{.OXOX'.(./.'.T.j.&.W F H.H.M.J.m., 5.k > p.T.v.$ $                     ",
"                  $ Z #X(.{.{.{.{.{.{.{.Y._.( _.{.@X%X{.!.@.c 2 @ @ # ) T.J.H.T.R.j.# 7 b.B.J.b.$ $                     ",
"                  @ 5 * $ a +.^.OX&XOX{.M Y.D E.{.OXJ.G $ @ $ x ( &.5 * j.T.T.T.T.H.$ a.T.B.A.b.$ @                     ",
"                  @ @ 5 n ; $ $ c c._.x.( `.G.J V.c $ $ a ;./.`.'.R.E $ ) T.T.T.M.w r J.T.T.T.s.@ $                     ",
"                  $ $ r h.V.+.B * @ w E /.{.`.E 2 $ B z._.`.^.Y.@.n % $ M.R.R.H.r 3 M.T.T.T.R.$.$ $                     ",
"                    @ $ $ 5 D h.V.R w @ 9 !.F $ 9 x.`._.E.s.H 5 + # # e T.T.W.V 3 b.T.J.H.T.T.V @ | *                   ",
"                    $ $ $ $ $ $ 6 T Z.G @ R $ s ^.!.&.c 2 @ @ ; a ( @ u T.T.p.$ #.T.T.S.B.T.S.3 , r...%                 ",
"                    @ @ 4 *.A ; @ @ 2 w @ U $ a H 9 $ $ & N =.F.).F.@ C R.T.a u J.T.T.T.T.T.W @ q ' 4./ $               ",
"                    $ $ % K.I.K.*.N & @ s /.c @ @ 3 N o.L.P.].}.|.F.@ ! T.M.% ) Q.C.j.R.R.A.9 @ $ $ $ 8 $               ",
"                    $ $ @ d |.}.].L.0 & G.{.s.@ 2 <.P.].}.|.|.|.|.L @ j.T.h.$ U 7 - O $.R.Z $ @                         ",
"                    @ $ * % L.|.|.*.@ F {.{.{.G $ o.|.|.|.|.|.|.1.$ t T.T.W 3 %.g r.j H T.w $                           ",
"                      @ . % 9  .L & 6 !.{.{.{./.w $ P N.].].I.=.2 5 b.T.T.C I J.1 r.] t R $ $                           ",
"                      $ = | 4 $ @ 5 b.{.{.{.{.{.R.y @ @ $ 2 & @ 2 p.R.T.U.t M.T.e 5./ X # $                             ",
"                      @ . 5.2.- R p.{.{.{.{.{.{.{.{.V.Q F m m T S.R.T.T.%.F R.~ + X . +                                 ",
"                      $ . l g o u.g.m.`.;.Y ;.{.{.x.a.{.OX_.D 6 r d.T.S.G J.F $ $ $                                     ",
"                        + . + $ Z ^ c Q I XXW ~.^.u.g.x.{.{./.C.M * U.T.U.c.$ $                                         ",
"                          $ @ v V z w 2 $ $ $ $ $ Z Y v Y.{.{.{.H.3 J.T.T.U $                                           ",
"                          $ $ F J.D.z.h.s.&.( G m r 5 * 5 {.{.{.M C T.R.b.2 $                                           ",
"                            $ $ Y Q.(.R.H.G.V.V.D.z.s.M 2 `.`.T b A.T.B.t $                                             ",
"                              $ $ 2 Z n.(.oX(.^.!.Y.Y.c D {./.S.U.B.) * $ $ $                                           ",
"                                  $ $ $ % Z M.(.'.'.!.-.p.+.S b 5 % @ # $ @ $ #                                         ",
"                                    $ $ 3 $ $ 2 5 5 * @ $ $ $ $ * 9 % 5 b x 3 @                                         ",
"                                  $ $ @ f.D.O.S m B G R ( @.L ) %.H $ ) ;.E M % #                                       ",
"                                @ @ v @ i.%XOX{.`.`./.^.!.G.;.;.;.B # G.m.-.S e $ %                                     ",
"                                @ 3 k.@ i.%XOX{.`.!.E s M ;.;.;.;.B $ Y.!.;.L A 2 $                                     ",
"                                @ ! p.@ d.%X/.J.OXoX{.Y.( ;.;.;.;.e $ ~.{.l.@.S a $                                     ",
"                              $ @ ~ Z @ d.%XT Y. Xc.OX`.l.;.;.;.W # * oX`.Y.;.J s $                                     ",
"                              $ @ @ @ % ~ r J oX$XS ( '.H.D c B w 2 2 @XOX_.E w 2 @                                     ",
"                              $ 2 f.$ z &X(.{.{.+X&Xj.a m m B D +.c $ i.c.W $ $ $ $ $                                   ",
"                              $ 2 Q 5 5 &XOX{.{.{.OX@X@X+Xh.;.;.;.G $ $ @ $ 5 W C % $                                   ",
"                              $ $ $ $ @ (.+X{.%X@X'._.`.`.m.;.;.;.u $ Y ! s.G.u 2 @ @                                   ",
"                              @ $ 3 w @ J.%X{.+X+X_.D J &.x E ;.;.u # ) $X`._.S $ $ $                                   ",
"                                $ $ $ $ .X&X+XOXoX`.x.u M G t x ( J $ z OX^.z.G 2 @                                     ",
"                                    $ $  X&X%X$X%XoX( ( J A M v 9 m 3 $ b s t $ $ $                                     ",
"                                      $ 5 V r 5 e ) ( t 2 % @ % e 4 3 @ $ $ @ $                                         ",
"                                      @ % $ % r * @ @ @ @ 2 m 5 $ $ $ $ @                                               ",
"                                      $ C W.'.H.&.a $ # @ F @X_.R b n 4 $                                               ",
"                                      $ U '.G.h.( s $ @ $ Y @X'.x.;.H e $                                               ",
"                                      $ $ 5 9 5 $ $ @ $ $ r S R R b $ $ $                                               ",
"                                      $ $ @ $ $ $ $ $   @ $ $ $ $ $ $ $                                                 "
};
