/* XPM */
static char *enr1716897758[] = {
/* columns rows colors chars-per-pixel */
"60 60 193 2 ",
"   c None",
".  c #0C0B0B",
"X  c #060707",
"o  c #090F10",
"O  c #0C1819",
"+  c #151413",
"@  c #1B1917",
"#  c #1B1A18",
"$  c #141B1B",
"%  c #201F1E",
"&  c #1E201F",
"*  c #20201F",
"=  c #0B1F22",
"-  c #1D2424",
";  c #1D292A",
":  c #152527",
">  c #1C3336",
",  c #0F2226",
"<  c #232423",
"1  c #272827",
"2  c #222729",
"3  c #252B2C",
"4  c #2B2D2C",
"5  c #282827",
"6  c #2E302F",
"7  c #2E3333",
"8  c #273738",
"9  c #323535",
"0  c #353B3B",
"q  c #393E3E",
"w  c #3C403F",
"e  c #253F41",
"r  c #373E40",
"t  c #194C55",
"y  c #154148",
"u  c #3C4243",
"i  c #3D4749",
"p  c #244E53",
"a  c #32585B",
"s  c #244F54",
"d  c #265D65",
"f  c #2B656D",
"g  c #357279",
"h  c #286D77",
"j  c #414646",
"k  c #414748",
"l  c #434A4B",
"z  c #464C4B",
"x  c #464F50",
"c  c #445354",
"v  c #4B5455",
"b  c #4B5659",
"n  c #435B5C",
"m  c #4E595A",
"M  c #535B5C",
"N  c #565958",
"B  c #4F5D61",
"V  c #585F60",
"C  c #546164",
"Z  c #5B6465",
"A  c #5A676A",
"S  c #5C6A6C",
"D  c #5D6D71",
"F  c #407A7F",
"G  c #547375",
"H  c #4C696B",
"J  c #626A6C",
"K  c #6C6C6B",
"L  c #626F71",
"P  c #637275",
"I  c #6B7374",
"U  c #657579",
"Y  c #6A7678",
"T  c #6A797C",
"R  c #67787C",
"E  c #717B7C",
"W  c #2C7783",
"Q  c #3A7D84",
"!  c #6C7E81",
"~  c #707E81",
"^  c #29808E",
"/  c #3F8188",
"(  c #2A8493",
")  c #348F9F",
"_  c #3197A8",
"`  c #3095A5",
"'  c #349FB1",
"]  c #2F93A3",
"[  c #36A8BA",
"{  c #448389",
"}  c #5E8587",
"|  c #478F95",
" . c #6E8186",
".. c #738285",
"X. c #74858A",
"o. c #76898E",
"O. c #7C8A8D",
"+. c #7C8586",
"@. c #7B8D92",
"#. c #778C92",
"$. c #659195",
"%. c #6A999D",
"&. c #7C9195",
"*. c #7C9298",
"=. c #459EA7",
"-. c #49ABB7",
";. c #56B1BA",
":. c #7DB6BB",
">. c #75AAAE",
",. c #3BB5C9",
"<. c #58BFC9",
"1. c #7FBBC1",
"2. c #54C2CF",
"3. c #45C4D8",
"4. c #55C8D6",
"5. c #5DD0DD",
"6. c #44D1E8",
"7. c #4BDDF5",
"8. c #62DDEB",
"9. c #4CE5FF",
"0. c #5AEAFE",
"q. c #54E9FF",
"w. c #63EDFE",
"e. c #69E7F5",
"r. c #6EF1FE",
"t. c #848989",
"y. c #838F91",
"u. c #849295",
"i. c #83969A",
"p. c #84999E",
"a. c #8B979A",
"s. c #949A9B",
"d. c #859DA2",
"f. c #8A9DA2",
"g. c #919EA0",
"h. c #8CA1A6",
"j. c #8DA4AA",
"k. c #94A2A6",
"l. c #91A5AA",
"z. c #93A9AE",
"x. c #8FA9B0",
"c. c #94ADB3",
"v. c #9AAEB3",
"b. c #9CB1B7",
"n. c #9DB4BA",
"m. c #9CB8BF",
"M. c #97B1B8",
"N. c #A0B6BC",
"B. c #A3B9BF",
"V. c #A4B4B8",
"C. c #A3A2A2",
"Z. c #81BEC4",
"A. c #9FBBC3",
"S. c #A4BDC3",
"D. c #AABEC4",
"F. c #85C4CA",
"G. c #8FD5DC",
"H. c #90D7DE",
"J. c #89CCD3",
"K. c #ACC1C6",
"L. c #A5C3CB",
"P. c #ADC5CC",
"I. c #A9C4CB",
"U. c #B9CACE",
"Y. c #B0C7CD",
"T. c #ADCCD4",
"R. c #ACCBD4",
"E. c #B1CED5",
"W. c #BED1D5",
"Q. c #B3D3DB",
"!. c #B9D5DB",
"~. c #B6D8DF",
"^. c #93DBE2",
"/. c #B6D9E1",
"(. c #BBDCE5",
"). c #BCDFE8",
"_. c #99E2EA",
"`. c #9FECF3",
"'. c #BEE1EA",
"]. c #A0EEF6",
"[. c #A6F7FF",
"{. c #C7DADE",
"}. c #C1D4D8",
"|. c #C6DEE4",
" X c #C4E3EB",
".X c #CAE6ED",
"XX c #CDE8EE",
"oX c #C8E1E7",
"OX c #D3E9EF",
"+X c #D2E7EB",
"@X c #D5EBF1",
"#X c #D8EDF2",
"$X c #E6E6E6",
/* pixels */
"                                                                @         # g #                                         ",
"                                    @ &           @ @ @ @ # # @ @ % # # # p 4.@                                         ",
"                                @ $ @ Q & # # # # # + . . i f.m.K.D.k.v - [ 8.@ # @                                     ",
"                              @ @ $ + <.{ # 9 M Y f.r d Q o u o.(. X(.k f 3.e.@ 7 @ @                                   ",
"                            # 1 @.b.< [ e.8 f.P.Y.Y.8 [ w.: b.S m (.i.> ` 7.r.5 U.I #                                   ",
"                            # V P.S.- ,.0.;.q D.Y.D., ,.5.u Y.P.u *.7 h [ 0.r.y n.K.# @                                 ",
"                            # V P.l.8 ' q.r.a I S.b.; y d P P.v.u Q.S - Q 4.;.8 j.'.6 @ # # @                           ",
"                            # x P.y.y _ 9.r.F j b.n.D.a.m z.P.D.w  .Q.! 9 < 6 M T.!.# T J M 5 #                         ",
"                          # # ~ D.S 3 d ) a < @.Y.Y.R.P.P.P.v.i.S.Z u I.'.T.R.(.L.@.@ XXOX#X..@                         ",
"                          # v D.D.A.D k r V f.D.Y.c.S.P.P.P.z # n.P.h.9 X.x.c 1 1 i p.'. X{.6 @                         ",
"                        @ # V.N.b.D.D.D.D.D.D.n.b X.D.Y.R.Y.y.P P.P.Y.O.# 9 ! c.E.'.'.'..XK.@ @                         ",
"                        @ u P.I.D.T.Y.E.D.E.g.r f.Y.Y.Y.P.Y.D.P.P.Y.c.< T (.'.'.'.M.n.'..X}.5 @                         ",
"                        @ M Y.P.T.D.E.D.D.T.r B d.S.D.O.V O.v.D.Y.P.k T '.'.'.'.T # @ E. X@XO.@ #                       ",
"                        @ ..P.P.D.T.D.E.Y.Y.l.J 9 % 6 X.S.S.n.P.Y.N.9 (.'.'.'.'.c # * ~.'.@XOXv #                       ",
"                      @ @ l.P.o.$ 3 E.D.D.T.Y.Y.D.z ~ Y.P.P.P.P.n.X.w ~.'.'.'.'.x.S c.'.'..X@XU.# @                     ",
"                      @ 1 S.I.3 =., D.E.Y.P.R.D.u.l D.P.P.P.P.S.3 u 9 9 L.'.'.'.'.'.'.'.'.'.@X#XJ @                     ",
"                      # k Y.U t 4.p r c.D.E.D.D.r b.E.D.E.D.E.D.i T.'.h.j '.'.'.'.'.'.'.'.'.XX@XV.# #                   ",
"                      # J v.: ( 6.0.-.> A T.E.A.v D.D.T.D.E.D.E.v.M.'.'.z.L.'.'.'.'.XX.X'.'..X@X|.< @                   ",
"                      # @.P t _ 7.7.q.-.7 D.D.A.k r U.D.E.D.E.D.Y.T.'.'.'.'.'.'.'.'.OX.X'.'..X#X#Xq @                   ",
"                      # p.~ = ^ 6.0.<.* S.R.D.c.% @ c. X!.E.D.E.Y.!.'.'.'.'.'.'.'.'.'.'.'.'.'.OX#XN @                   ",
"                    @ # k.P.i.; W 4.3 x.D.v.D.S.S L ~ j.E./.Q.Q.(.'.'.'.'.~.'.'.'.'.'.'.'.'.'..X#XZ #                   ",
"                    @ # v.D.b.c.2 $ f.R.D.S.D.Y.! 2 % $ % l i.D.'.@XXX'.~.U (.L.'.'.'.'.'.'.'.Q.|.N #                   ",
"                    @ @ l.B.b.Y.u.# S.D.Y.Y.Y.j.# 3 *.! k % % % C K. X'.L.C L.v '. X@X.XE.o.w # 5 < #                   ",
"                    @ @ i.I.P.P.P.0 6 n.R.D.Y.~ + ! D.Q.).R.@.r @ & i M.P m.'.X.x.!.k.j & @ & x < # #                   ",
"                    # # ..P.P.P.P.v.4 j S.P.Y.l.% # x *.S.Q.(.).j.c & * T '.'.Q.P 9 # & b #.M.h.q # #                   ",
"                  % { # N P.Y.S.S.P.k.4 z P.P.Y.r # # $ 3 D d.D.~.'.h.0 # M E.9 # 6 L m.h.C 1 # # #                     ",
"                % | 0.; 1 B.P.b.n.P.P.X.# i.P.I.r @ ! i # # $ < i @.T.T.w & J # D M.L 6 # # # # # #                     ",
"              @ Q 3.] e @ T P.P.P.P.P.P.q j P.P.V @ 1.^.Z.%.c - @ & 7 A u & L @ 6 & # # - n %.3 # #                     ",
"              - 8 & # @ # 7 L.P.S.f.N.Y.E * b.Y.Y @ :.[.`._.^.F.$.n - & & u E.w # - n $.J.H.F.& # #                     ",
"                        # @ V Y.@.O : 3 T # p.Y.p.@ G [.[.[.[.`._.G.1.< @ h.'.L.# 0 G._.].[.c @ # #                     ",
"                          @ 9 P.D f w.f X.4 T P.P.9 # >.[.[.[.[.[.[.} & A '.'.'.A @ %.[.[.F.# < # #                     ",
"                          @ @ A 0 ] w.8 D.A Z P.Y.b.1 1 $.^._.^.:.H @ 6 R.'.'.'.R.6 & G } 7 # . +                       ",
"                            @ @ X ^ 2.r P.c.6 I.P.P.y.4 # < < # # # l P.'.'.'.'.'.h.6 @ # - | : @                       ",
"                              # + . X + Y I.M @.P.Y.P.b.L l v Z ! c.'.'.'.'.'.'.'.'.i.I : ,.5.. @                       ",
"                                    # @ @ Z P.Z S.P.@.r 6 C /. X(.i.M.'.'.&.K d.'.c.C.t.o d g o @                       ",
"                                        # # v.I.D.S.5 M n./.'.'.l.s.+.E.T.I $XM R l K N @ @ X +                         ",
"                                          # L P.Y.P.< S.'.'.).S.k K N % # # # # < 7 j N l @ #                           ",
"                                          # # c.P.P.Z B ).'.(.9 & 7 0 v A T #.*.d.j.V.B.A @ #                           ",
"                                            # 0 v.Y.b.k P ).).- m d.j.V.b.M.A.S.Y.W.U.Z # @                             ",
"                                          # # # 5 ~ c.D.S.!.).M k L.L.T.T.!.|.W.s.J < # @                               ",
"                                        @ @ # # @ # # 4 l C ..d.&.T.~.(.W.v.M * @ @ @                                   ",
"                                        @ 3 i b 3 @ 7 < # @ @ @ # & 5 4 * # % 5 @ @                                     ",
"                                      @ % b D *. .@ A *.X.U o. .P A m v Z Y B.a.@ @ #                                   ",
"                                    @ @ q C *.x.S.@ m *.*.*.M.Q.Q.Q.'.'.'.'.@Xu.@ u # #                                 ",
"                                    # < B D *.R.I.@ b *.*.*.*.b 0 P R.'.'.'.OXt.# s.4 #                                 ",
"                                    @ u C o.j.'.E.@ q *.*.*.*.! R.'.'.oXS.|.@Xu.@ u.I #                                 ",
"                                    @ i D *.L.'. X# # U *.*.*.j.'.'.a.}.T.J oXa.# A E # @                               ",
"                                    @ 1 0 G (. XXX< & q m l B S.(.I J #X XI j T < @ # @ #                               ",
"                                  # @ # @ @ T k.t.# l ..V b b v w s.OXXX'.'.~.OXu < u.1 #                               ",
"                                  @ < B R 4 # # # # A *.*.*.d.XXXXXX.X'.'.'. XOX4 4 Y < #                               ",
"                                  # # < q z.d.J I # r *.*.*.x.).'.~.'.XX@X'.XXW.@ @ # # @                               ",
"                                  # @ % B (.).XX~ # r *.*.R i #.D D Q..XXX'.OXK.@ 9 5 # #                               ",
"                                    @ < A j.Q. Xr # U o.u r A x k j.'.'. XXX@X{.# # # #                                 ",
"                                    @ # # q i v # < v 5 l b B S U X.oXOX+X@X@X}.# #                                     ",
"                                        # @ @ @ # < 1 0 & # % < 9 R E 0 4 q N 9 #                                       ",
"                                              @ # # # # 4 v 6 # # # @ & 9 < # @ #                                       ",
"                                              @ 3 c x D (..XZ # # # w &.A.Q.I.m #                                       ",
"                                              # 0 S *.j.(.XXJ # # # i  .d.A.(.I #                                       ",
"                                              @ @ & x P L Z 9 # # # # & 4 7 < @ #                                       ",
"                                                @ # @ @ # # # #   # @ @ # @ # @ #                                       "
};
