/* XPM */
static char *a539e48ab2a34feee0879f36eb826abcD8f9ipwzjJGWB8RW[] = {
/* columns rows colors chars-per-pixel */
"60 60 240 2 ",
"   c None",
".  c #33252E",
"X  c #352632",
"o  c #3C2B3A",
"O  c #392835",
"+  c #3D333D",
"@  c #2E222B",
"#  c #4C2B1E",
"$  c #53311E",
"%  c #442924",
"&  c #4B2C24",
"*  c #472D2B",
"=  c #4C322B",
"-  c #4A3128",
";  c #54362C",
":  c #5B3529",
">  c #422B3A",
",  c #4A3836",
"<  c #543A32",
"1  c #583D37",
"2  c #582F26",
"3  c #673929",
"4  c #773B2C",
"5  c #643D33",
"6  c #773E31",
"7  c #5C433C",
"8  c #5A4137",
"9  c #6C422B",
"0  c #75432B",
"q  c #63443B",
"w  c #694537",
"e  c #774937",
"r  c #6F503D",
"t  c #3D3444",
"y  c #3F364A",
"u  c #433444",
"i  c #433A46",
"p  c #453C4A",
"a  c #493D4C",
"s  c #473547",
"d  c #553D47",
"f  c #473D54",
"g  c #4A3760",
"h  c #394366",
"j  c #4B424D",
"k  c #47454F",
"l  c #5A4545",
"z  c #4B4353",
"x  c #494557",
"c  c #554857",
"v  c #505056",
"b  c #644A44",
"n  c #6A4D44",
"m  c #6B4E49",
"M  c #624846",
"N  c #6D524D",
"B  c #6B5045",
"V  c #70524C",
"C  c #785545",
"Z  c #6C5351",
"A  c #6C5957",
"S  c #715A55",
"D  c #735E5B",
"F  c #745653",
"G  c #664D51",
"H  c #75625C",
"J  c #4B4C6D",
"K  c #494A67",
"L  c #524C64",
"P  c #564C68",
"I  c #58556A",
"U  c #4B4C72",
"Y  c #444A78",
"T  c #4B5275",
"R  c #565476",
"E  c #574C74",
"W  c #6A5868",
"Q  c #755C6E",
"!  c #7B5D6C",
"~  c #785862",
"^  c #675879",
"/  c #765D70",
"(  c #694F60",
")  c #796568",
"_  c #666477",
"`  c #7B6372",
"'  c #796574",
"]  c #6A6265",
"[  c #864834",
"{  c #964A36",
"}  c #895438",
"|  c #985537",
" . c #88412F",
".. c #A94D35",
"X. c #A64E36",
"o. c #A55234",
"O. c #AA5335",
"+. c #AC5B35",
"@. c #A55539",
"#. c #AA5339",
"$. c #AB5C3A",
"%. c #A65C38",
"&. c #B05C36",
"*. c #AC5D2F",
"=. c #99623A",
"-. c #AD6335",
";. c #AC633A",
":. c #A9673A",
">. c #B16335",
",. c #B46B35",
"<. c #B36C3A",
"1. c #B46838",
"2. c #B87238",
"3. c #875943",
"4. c #965D44",
"5. c #986545",
"6. c #8B644F",
"7. c #A76A45",
"8. c #B17445",
"9. c #85687A",
"0. c #876E71",
"q. c #A48B7F",
"w. c #2F4F9C",
"e. c #334D9E",
"r. c #3A4D9B",
"t. c #3B539A",
"y. c #37539A",
"u. c #3C528B",
"i. c #344DA3",
"p. c #3B4EA4",
"a. c #3A44AD",
"s. c #394CAE",
"d. c #3748A9",
"f. c #3454A3",
"g. c #3A53A5",
"h. c #355AA6",
"j. c #3A54AC",
"k. c #3A5CAB",
"l. c #385BA8",
"z. c #3C4CB1",
"x. c #3E46B0",
"c. c #3D53B2",
"v. c #3E5AB1",
"b. c #3C60AD",
"n. c #465487",
"m. c #455896",
"M. c #4C5492",
"N. c #6D5980",
"B. c #4D619A",
"V. c #746A86",
"C. c #716F88",
"Z. c #4747AB",
"A. c #4556AA",
"S. c #424DB5",
"D. c #4C4DBC",
"F. c #4548B6",
"G. c #4254B4",
"H. c #415DB4",
"J. c #4554BA",
"K. c #4B54BD",
"L. c #495BB9",
"P. c #5353BA",
"I. c #4562AC",
"U. c #4262B3",
"Y. c #4A65B8",
"T. c #5B68BA",
"R. c #5366A9",
"E. c #616BBA",
"W. c #6774B8",
"Q. c #757AB8",
"!. c #756DBC",
"~. c #654EA2",
"^. c #4E56C1",
"/. c #535CC4",
"(. c #5858C5",
"). c #534FC3",
"_. c #5E62CB",
"`. c #5862C3",
"'. c #6469C9",
"]. c #6D76C6",
"[. c #6F72D0",
"{. c #7954C4",
"}. c #8E6F83",
"|. c #906E84",
" X c #8D7183",
".X c #887B84",
"XX c #937485",
"oX c #957A86",
"OX c #9A798C",
"+X c #977788",
"@X c #9E7D92",
"#X c #826B9B",
"$X c #A17F94",
"%X c #8A6EAC",
"&X c #887ACF",
"*X c #A075DF",
"=X c #7985B9",
"-X c #7582C5",
";X c #988490",
":X c #A28296",
">X c #A58499",
",X c #AA869B",
"<X c #AC8A9E",
"1X c #A58A9C",
"2X c #AB8F9F",
"3X c #9491AF",
"4X c #AE8CA2",
"5X c #AE8FAC",
"6X c #B18BA2",
"7X c #B18FAD",
"8X c #B397AA",
"9X c #B499AD",
"0X c #B3A6B5",
"qX c #C4A9B8",
"wX c #8889D4",
"eX c #9599DA",
"rX c #8892CF",
"tX c #AB8BDE",
"yX c #99A7D2",
"uX c #A5AADC",
"iX c #ABB5D7",
"pX c #B089E4",
"aX c #9BA7E1",
"sX c #B5BCE7",
"dX c #A9AFE4",
"fX c #C2A8E9",
"gX c #C8B2C0",
"hX c #BACAEA",
"jX c #BED1EE",
"kX c #C4CDEC",
"lX c #D8CAEE",
"zX c #C7D6EE",
"xX c #DBD4F3",
"cX c #D0D4F2",
"vX c #E4D8F5",
"bX c #E1CFF5",
"nX c #CCE5F5",
"mX c #D7E8F5",
"MX c #DEF1FA",
"NX c #E7E7F7",
/* pixels */
"                                                                                                                        ",
"                                                                                                                        ",
"                                              0X8X8X8X8X8X8X8X8X9X9X9X9XqXqX                                            ",
"                                      ;X.X:X9X4X4X4X4X4X4X4X4X6X4X4X4X4X6X0X9X;X2X                                      ",
"                                  .X' / Q +X<X6X6X4X4X4X4X4X4X,X<X4X4X4X4X9X@X}.|.+X2X9X                                ",
"                              .X` Q Q / / ` @X<X6X4X6X6X6X4X4X4X,X<X4X4X6X4XXX}.|.}.XX$X2X9X                            ",
"                            ' Q Q Q Q Q Q Q  X X:X$X@XOXOX+X+X+X+X+X+X@X:X}.}.}.}.}.}.}.XXOX1X                          ",
"    ) G                 ' Q Q Q Q Q Q Q Q ` ' O O > > > o O O o o o o o o > ( 9.}.}.}.}.}.|.|.:X                  Z )   ",
"  A N 7 *           8X4XOXQ / Q Q Q Q Q c u X @ @ X X X X X . X X O X X @ X X u ( 9.}.}.}.}.}.OX9XqXgX        , , b N A ",
"  D V < % % *     ;X}.XX<X/ Q Q Q ( d o X X X + P V.L i !.uXsXeX3X+ ^ N.g O X X O > c ' }. X X:X6X6XqXqX    * % % b N S ",
"  A N 8 & 3 & * `  X|.}.XXOXG c u O O X O c 3XkXcXcXV.p Q.iXT.-XyXt 0XsX*X{.~.t X X O o d ~ ! >X6X4X6X6X! % & 3 & m N ) ",
"  D N M # { 4 2 * !  XXX|. XX @ X X X O u u j j j z s s f j a z a u j z z z z s p t O X X @ O XX4X4X<X~ % 2  .4 & m N   ",
"  ) N b # { ..[ 2 = 0. X` u X @ i E ^ ^ o j C._ R R c o R J U U _ O x U U C.C.+ z ^ V.^ p @ X > 9.<X0.& 3 { X.4 - N N   ",
"  H N m #  ...X.{ : l G O O X W pXpXlXuXt P nXhX'.'.C.a E.G.G.].3X+ M.L.T.nXnXj V.pX*XpXpXP X O > A < 3 { ....4 = N Z   ",
"    N N &  .o.X...{ : * X o o %XfXuXdXuXa P hXzXeX'.V.a A.G.T.-XB.+ M.-XyXnXzXp V.&XtX*XpX^ u o X = 3 X.....o.3 < N Z   ",
"    N N = 4 O...o.@.{ : s #X+ 3XwX(.rX(.t L iXE.].E.R a r.=XR.T.=X+ n.-XW.uXuXi V.'.(.tX*XV.s %X, 3 { X.o.....3 8 N A   ",
"    N N < 4 #...O.O.O.[ M %X> C.).(.rXP.t J '.-XL.j.K a t.g.g.R.m.+ n.r.W.E.rXi _ J.E.kXfXN.s V.: { #...o...o.: 7 N D   ",
"    F N 1 3 @.o.#.#.O.@.0 d s c P P P L a f L I P L z a L L L L L a L P P I W j c I _ _ _ c j 1 [ @.#...O.o.{ : M N A   ",
"    A N 7 3 X.O.+.#.O.O.| : O p f f x f o t f f x f u o f x x x x o z x x v c + p L L L I c , 9 #.O.o.O.O.O.{ ; b N )   ",
"    A N M 5 { #.#.+.+.O.$.[ < 3X_.P.rXT.t K p.p.A.f.K s t.g.e.e.m.+ n.e.e.W.A.t U E.P.K.kX.X< { o.O.O.O.O.#.[ < m N 0.  ",
"    H N b < 5 [ @.$.+.+.$.@.w 3XsX].J.Q.i K p.i.g.f.K p y.w.I.e.m.+ n.f.e.A.W.t T L.T.D.sX;Xe #.o.#.O.#.| e 5 1 N N     ",
"    ) V n 1 1 b w } $.$.o.+.} 3X_.-XG.G.t L p.f.f.k.J p y.w.g.w.m.+ n.g.e.p.W.t R A.T.].jX9.| o.o.@.| [ q b 8 8 N N     ",
"    H N B 1 5 8 M q e } | +.} 3XT.G.G.A.t K g.f.e.g.U p t.w.w.w.m.+ n.g.e.e.r.i R W.S.hXeXQ @.#.| } w l 7 5 5 7 N Z     ",
"      Z N q [ [ 0 5 n q e } 3.] R U U U s z J J J J x a J J J J J p J T U U T a L T R =XN.Z 4.[ w b q 5 0 { 6 q N Z     ",
"      N N q [ +.+.{ 0 w q q q , s s s s o o i i p p t t i p p j a + i j k k z u s z v v v l w q q 6  .| O.$.6 b N D     ",
"      Z N b e +.+.#.+.$.[ w w ^ yXQ.A.m.y K y.t.y.t.h k t.y.y.y.u.+ M.m.y.y.t.t U m.rX=XW.l 5 0 { @.o.$.+.o.w n N D     ",
"      S N b e +.+.+.+.>.%.$.4.^ p.E.-Xf.J n.e.w.f.f.n.x f.f.w.w.t.k m.l.i.e.i.K n.A.L.A.A.F | #.+.+.+.$.+.@.w B V A     ",
"      S N n e O.+.+.&.>.$.+.7.A i.i.R.f.Y m.f.f.f.f.t.T f.f.f.f.f.T I.l.i.e.i.Y m.T.p.i.A.F $.O.+.+.+.+.+.| w N N )     ",
"      Z N m e o.&.$.$.>.+.+.7.G i.i.g.f.m.t.f.f.f.h.b.m.f.f.f.f.f.B.l.l.i.i.i.m.r.T.p.i.m.C $.+.+.+.+.+.+.{ w N N H     ",
"      D N N r | -.$.&.>.$.+.7.A i.i.f.f.h.h.h.f.f.h.h.h.f.f.f.f.f.h.U.Y.i.i.i.i.i.W.g.i.r.3.$.+.+.+.+.+.+.{ C N N       ",
"      D N B w | -.-.&.>.+.+.:.A f.f.f.h.f.h.h.h.h.h.l.h.h.f.h.h.h.h.U.U.f.i.i.i.g.j.g.i.m.C ;.$.$.+.+.+.$.[ n N N       ",
"      D N N n 4.5.:.&.>.+.$.:.S f.f.f.h.h.h.h.h.h.l.l.h.f.f.f.f.h.l.l.j.f.i.i.i.i.g.g.p.M.3.;.$.$.&.$.5.7.3.n N N       ",
"        V N n B N 3.;.-.>.$.:.S f.f.f.h.h.h.h.h.l.b.Y.l.l.W.l.l.b.b.k.k.f.f.i.i.f.g.g.g.B.3.;.$.>.&.%.C V B n N N       ",
"        Z N n n N C :.-.>.;.:.V f.f.h.h.k.k.h.h.l.l.l.l.l.k.l.k.U.U.b.k.j.g.i.i.i.g.g.j.M.3.;.$.>.+.4.V n B m N S       ",
"        Z N n B q.C | -.>.;.-.V g.f.h.k.Y.U.l.k.l.l.b.l.l.b.U.U.U.H.k.k.k.j.d.i.i.i.i.p.n.3.;.+.>.:.e 6.0.n m N A       ",
"        N N n V 6.C e =.>.-.;.C I.f.h.l.U.U.k.l.l.l.b.U.Y.Y.U.U.H.H.v.v.j.j.Y.d.i.j.i.d.U 5.;.$.>.| w D H b m N D       ",
"        Z N n F 7 5 e 3.>.1.<.C R.h.h.k.k.U.l.l.k.k.U.U.U.H.H.U.c.c.j.s.s.s.j.d.d.i.d.d.J 5.>.*.:.C 9 q b F B N )       ",
"        A V n N 7 q 3.C :.<.1.C B.h.h.h.k.k.k.k.k.b.U.U.v.H.c.c.c.c.s.s.s.s.d.d.s.d.d.d.P 5.>.-.| 3.e 8 7 V B N )       ",
"        ) N m b q 9 | w :.<.1.3.n.j.j.j.j.j.j.k.k.U.U.H.H.H.c.c.c.c.c.z.z.s.s.s.a.a.a.a.P 7.>.-.} e } q b 7 N N         ",
"        H N m ; : e 9 3 1.<.,.3.Y j.j.j.j.c.v.v.H.U.H.H.H.G.G.G.G.G.c.z.z.z.z.z.a.a.a.a.L 7.>.>.:.: e w ; 1 N N         ",
"        H N m 1 3 3 0 :.1.<.,.5.R j.j.j.c.c.H.H.Y.U.H.Y.Y.J.J.J.J.J.G.S.S.S.z.z.a.a.a.a.c 7.-.1.1.| 3 4 5 7 Z N         ",
"          N N 1 } -.;.>.,.,.,.5.R j.c.G.G.G.G.H.L.L.L.Y.Y.J.J.J.J.J.J.J.G.J.J.S.F.a.a.Z.l 7.-.<.<.>.>.-.0 q N F         ",
"          N B 1 [ ,.1.,.1.1.<.5.R G.G.G.G.G.G.J.L.L.L.Y.L.K.K.K.K.K.K.J.J.J.D.F.F.F.F.Z.M 7.>.1.<.1.,.-.9 7 N S         ",
"          N N b 0 1.,.>.<.:.4.w P S.S.J.G.J.J.T.^.`.`.`.`.-X/././././.K.K.D.D.F.F.F.F.Z.l r 5.7.<.1.1.-.9 b N Z         ",
"          N N 7 9 <.8.5.C 5 , = x S.S.J.K.`.^././.'.`././.'.rX'./.^.^.).).D.D.D.D.F.F.Z., ; ; w 3.7.<.-.: M N D         ",
"          N N 7 w 6.9 ; , - 3 3.p D.D.K.K.wX/.`._.`././././.'.dXwX'.].[./.).).D.D.D.D.Z.q } : ; ; : e 6.; m V H         ",
"          S N 7 - < = - 9 | <.8.a D.K.^./.'.eX[.'._././._._._.[.hX'.(.'.wX[.(.).).D.D.Z.q 8.-.} 5 - 8 = = N N S         ",
"          D N b & 2 0 =.2.2.,.8.d (.]._.[._.aXaX_._._._.'.wX[.[.nXkXeX[.(.'.wX(.(.(.).Q.w <.<.<.<.| 3 & = N N 0.        ",
"          D N m & } 2.,.2.2.,.8.7 eXdX'.eXaXnXjX[.wXdXeX[.[.hXdXnXmXMXnX[._.eXeX'.&XwX3Xr 2.2.<.,.,.,.0 = V N           ",
"          ) N m & | 2.,.2.2.,.8.8 kXnXhXmXnXnXmXMXMXMXmXsXzXMXMXzXeXmXMXmXeXwXmXmXsXkXiXC 2.2.2.,.,.2.0 = N N           ",
"          0.V B % } 2.2.2.2.<.5.< vXlXlXlXlXlXxXxXvXvXvXNXvXNXvXbXbXvXvXvXbXbXxXlXlXlX5Xw 7.,.2.,.2.,.3 < N Z           ",
"            V B - 0 2.2.2.8.e % = ) ' ' ` Q Q 9.>X<X<X<X4X4X4X4X4X4X4X4X7X7X7X7X7X7X5X X% $ 3.8.<.2.,.3 1 N Z           ",
"            N N = 0 2.8.=.; % , ~ ` ` 9.9.9.9.+X:X>X>X>X>X>X>X>X>X>X@X:X>X:X:X:X$X@X@XOX~ * % 9 5.2.<.$ 7 N Z           ",
"            Z N < 3 7.9 % * 0.<X<X<X4X<X,X,X4X6X6X6X6X6X6X<X,X<X,X>X9.}.}. X}.}.}.}.}.9.9.0.l % & } 5.# M N H           ",
"            Z N 1 = - % d 9.,X<X<X4X4X4X6X4X4X4X4X4X4X4X4X4X4X6X,X>X>X}.}.}.}.}.}.}.}.}. X X}.A * % ; % b N H           ",
"            D N b , = ~ >X>X>X<X<X<X4X4X4X4X4X<X<X<X4X4X<X<X<X,X,X,X>XOX X X X X X XXXXXXXXXXXXX9.M % 1 m N D           ",
"            D Z l 1 0.+X+X+X+X+X+X+X+X+XXX+X+X+X+X+X+X+X+X+X+X+X+XXX X9.~ ! ! ! ! Q Q Q ! ! Q ! ! ! Z , N N )           ",
"                    ;XoXoXoXoXoXoXoXoXoXoXoXoXoXoXoXoXoXoXoXoXoXoXXX+XoXQ ) ` ` ` ` ` ` ` ` ` ` ` ` 9.                  ",
"                                                                                                                        ",
"                                                                                                                        "
};
