/* XPM */
static char *_58b7cbb8915458ff5edcc23d68381e2uH2DFAx67LlriLcP[] = {
/* columns rows colors chars-per-pixel */
"81 92 166 2 ",
"   c None",
".  c #3D1B10",
"X  c #55310F",
"o  c #5A360F",
"O  c #4C2910",
"+  c #45251B",
"@  c #5F3B16",
"#  c #623E0E",
"$  c #6D480D",
"%  c #79530C",
"&  c #765213",
"*  c #7B604D",
"=  c #855F0A",
"-  c #8B630A",
";  c #926A0A",
":  c #9E7508",
">  c #977940",
",  c #AA8107",
"<  c #B68C06",
"1  c #C29805",
"2  c #CEA304",
"3  c #DAAE03",
"4  c #E7B902",
"5  c #F3C501",
"6  c #B19759",
"7  c #B39F7D",
"8  c #C2AB71",
"9  c #9E8E89",
"0  c #BAA98F",
"q  c #B8AA9B",
"w  c #BCAD92",
"e  c #B4A6A4",
"r  c #B4A8A5",
"t  c #BCAAA3",
"y  c #B7ABA9",
"u  c #BAADAA",
"i  c #BCB1AD",
"p  c #BEB3B0",
"a  c #CAB787",
"s  c #C9B68C",
"d  c #C1AFA8",
"f  c #C3B4AD",
"g  c #CCBCAD",
"h  c #CAB6AA",
"j  c #D2BAAD",
"k  c #DABEAC",
"l  c #C1B6B3",
"z  c #C5BAB5",
"x  c #CCBCB4",
"c  c #C6BDBB",
"v  c #C9BFBB",
"b  c #D1BDB3",
"n  c #D7C89B",
"m  c #CFC4AE",
"M  c #D7C6AF",
"N  c #DEC0AF",
"B  c #CEC0B4",
"V  c #C7C0BD",
"C  c #CBC1BD",
"Z  c #D4C2B6",
"A  c #DBC4B4",
"S  c #D4C4BA",
"D  c #DAC6BB",
"F  c #D5C9BD",
"G  c #DECABD",
"H  c #D6CBB2",
"J  c #DDD2B8",
"K  c #E4CEAF",
"L  c #EFD7AC",
"P  c #EDDFA8",
"I  c #E1C7B5",
"U  c #E1CDB0",
"Y  c #E3CBBB",
"T  c #E2D5B3",
"R  c #E5DAB4",
"E  c #EBDEB0",
"W  c #EFD5B9",
"Q  c #F2D7B6",
"!  c #F4D9B5",
"~  c #F9DFB2",
"^  c #F2D7B9",
"/  c #FFE4AD",
"(  c #F0E3B0",
")  c #FFE8B9",
"_  c #F9E1B2",
"`  c #CDC5C2",
"'  c #CEC8C7",
"]  c #D0C7C4",
"[  c #D2C9C6",
"{  c #DBCCC3",
"}  c #D4CCCB",
"|  c #DED2C5",
" . c #D6D0CE",
".. c #DCD2CC",
"X. c #D6D2D1",
"o. c #DBD5D3",
"O. c #DED8D6",
"+. c #DEDCDB",
"@. c #E4CEC0",
"#. c #E5D1C5",
"$. c #E9D3C5",
"%. c #ECD8C7",
"&. c #E3D5CA",
"*. c #E9D6C9",
"=. c #E5D9CB",
"-. c #ECDACD",
";. c #F1D8C7",
":. c #F8DDC7",
">. c #F2DCCB",
",. c #F9DFCD",
"<. c #E3D7D0",
"1. c #E4DAD4",
"2. c #ECDDD3",
"3. c #E3DEDC",
"4. c #EADFD9",
"5. c #F3DED1",
"6. c #FFECC5",
"7. c #F6E1CD",
"8. c #F9E1CE",
"9. c #FFEECB",
"0. c #EDE1D2",
"q. c #E5E1DF",
"w. c #EDE3DC",
"e. c #F2E3D4",
"r. c #FAE4D3",
"t. c #FBE9D5",
"y. c #F3E5DB",
"u. c #FAE7D9",
"i. c #F4E9DC",
"p. c #FBEBDB",
"a. c #FFF1D1",
"s. c #FFF3DF",
"d. c #E5E5E5",
"f. c #E9E5E5",
"g. c #E8E7E7",
"h. c #E9E6E5",
"j. c #ECE8E6",
"k. c #E9E9E9",
"l. c #EDEBEB",
"z. c #EEEEEE",
"x. c #EFEFEF",
"c. c #ECECEC",
"v. c #EDECEC",
"b. c #F1E7E1",
"n. c #F4EAE3",
"m. c #FBEDE3",
"M. c #F2EFEF",
"N. c #F2EEEC",
"B. c #F8EFEB",
"V. c #F6F1E7",
"C. c #FEF4E4",
"Z. c #F5F2ED",
"A. c #FDF5EA",
"S. c #FFF8ED",
"D. c #F1F1F1",
"F. c #F2F1F1",
"G. c #F3F3F3",
"H. c gray96",
"J. c #F6F5F5",
"K. c #F4F4F4",
"L. c #FBF6F3",
"P. c #FEFAF2",
"I. c #F8F8F8",
"U. c #F9F9F9",
"Y. c #FBFBFB",
"T. c #FCFBFB",
/* pixels */
"                                                                            . . . . . . .                                                                         ",
"                                                                  . O % : < 2 3 4 4 4 3 2 1 , % # .                                                               ",
"                                                              O : 2 5 3 < : = = = $ % = = : < 2 5 4 < $ .                                                         ",
"                                                            $ 4 , $ . .                       . . # ; 4 < o                                                       ",
"                                                          X 4 X .                                     . : 3 .                                                     ",
"                                                        . : ; .                                         . 2 #                                                     ",
"                                                          % 1 .                                         . 4 X                                                     ",
"                                                          . : 1 @                                     o 2 : .                                                     ",
"                                                            + > 8 a 0 q e e       i } O.3.` r 9 * - 2 2 $ .                                                       ",
"                                                            u 3.} C H E E E n s 7 T R T T R ( P a 6 & .                                                           ",
"                                                            o.Y.Y.Y.k.3.X.} { F m w J J F { }  .3.` r                                                             ",
"                                                            o.Y.Y.Y.Y.Y.Y.Y.Y.Y.Y.F.M.Y.Y.Y.Y.Y.Y.Y.} p p r                                                       ",
"                                                          O.l q.Y.Y.Y.Y.Y.Y.Y.Y.Y.Y.Y.Y.Y.Y.Y.Y.Y.Y.H.` F.3.p                                                     ",
"                                                          l.F.` ` } f.Y.Y.f.l.M.f.Y.Y.Y.Y.Y.Y.Y.Y.Y.Y.+.d.F.F.p                                                   ",
"                                                          d.} H.Y.Y.Y.Y.Y.f.u r O.z.k.l.Y.Y.Y.Y.Y.F.F.F.d.k.Y.o.                                                  ",
"                                                          o.` ` k.z.z.k.d.o.u D f c ` p X.H.Y.Y.H.z.d.d.d.d.Y.H.r                                                 ",
"                                                          i +.y l } } } z f ;.,.,.;.Y D x u v X.} } v X.d.d.Y.Y.l                                                 ",
"                                                            y x 7.@.S G *.t.s.p.u.u.p.p.u.>.G f u } d.d.d.d.k.Y.` p                                               ",
"                                                              &.s.s.s.s.s.s.s.s.p.i.p.p.0.0.p.$.u d.d.d.d.d.d.z.H.f.r                                             ",
"                                                              z s.s.s.s.s.e.S y y l v X.o.l e.u.y d.d.d.d.d.d.d.Y.Y.c                                             ",
"                                                              y s.s.s.s.i.l o.z.G.G.G.F.F.X.z s.l O.d.d.} ` +.d.Y.Y.}                                             ",
"                                                              ` [ | s.s.| [ F.F.G.G.F.+.F.q.r s.S } +.u F | i o.Y.Y.X.                                            ",
"                                                              f.Y.c p.s.0.y z.z.z.k.d.p z.o.r s.F ` p =.s.p.>.y F.M.X.                                            ",
"                                                              X.z.o.{ s.s.z ` d.d.d.` c d.p z s.{ y | s.p.,.,.u f.X.i                                             ",
"                                                              u +.X.z s.s.%.f r y y r y y f $.,.$.p.s.i.x f $.f ` Y.}                                             ",
"                                                                e e i s.s.8.,.f y o.` y $.,.,.,.,.r.p.i y ,.,.f v z.H.y                                           ",
"                                                                    x s.s.s.#.z y y y 0.8.,.,.,.,.,.@.f y D ,.u ` d.Y.c r                                         ",
"                                                                t u >.s.s.s.s.s.s.e.{ S e.,.,.S f x D ;.$.Z $.r o.d.Y.` l r                                       ",
"                                                                Z G p.s.s.s.s.s.s.s.s.s.s.p.8.,.$.x y f $.@.u u d.d.Y.c v } r                                     ",
"                                                                r F s.s.s.s.s.s.e.s.s.s.s.s.p.,.,.,.;.f r r v +.d.k.F.r X.d.u                                     ",
"                                                              C b P.P.s.s.s.s.s.{ D p.s.s.s.t.,.,.,.r.f.` y +.d.d.f.p v d.d.v r                                   ",
"                                                              f t.A.S.s.s.s.s.s.p.f @.8.r.r.,.,.,.r.L.H.d.p v d.l.o.f.z.d.d.} r r                                 ",
"                                                              x p.s.s.s.s.p.p.s.t.$.u 5.&.S @.r.m.L.Y.Y.F.+.y k.Y.Y.Y.Y.d.d.X.r -.x r                             ",
"                                                              f r.s.s.s.t.@.,.8.,.;.r Y.Y.F.c ` M.Y.Y.Y.Y.F.o.d.Y.Y.Y.Y.z.d.+.r i.p.>.u r                         ",
"                                                            i u S ,.,.$.f { ,.,.$.u ` d.Y.Y.Y.} i M.Y.Y.Y.Y.k.d.Y.Y.Y.Y.H.d.+.r i.s.p.8.Z r                       ",
"                                                          r X.+.u r r p } d.o.C v o.d.z.Y.Y.Y.Y.` i H.Y.Y.Y.Y.d.Y.Y.Y.Y.Y.d.+.r i.s.s.p.,.S r                     ",
"                                                        r u H.Y.F.+.d.j.3.d.d.d.k.F.Y.Y.Y.z.Y.Y.k.u } Y.Y.Y.Y.F.Y.Y.Y.Y.Y.k.+.y i.s.s.s.r.,.Z r                   ",
"                                                      r r } Y.Y.Y.f.A.S.2.} d.k.Y.Y.Y.Y.Y.H.k.Y.F.} r H.Y.Y.Y.Y.Y.z.Y.Y.Y.k.d.y i.s.s.s.p.,.:.f r                 ",
"                                                      i i d.Y.F.H...C.A.e.l d.d.z.Y.F.k.H.Y.k.k.Y.+.r O.Y.Y.Y.Y.Y.z.k.Y.Y.z.+.r s.s.s.s.s.8.,.%.r                 ",
"                                                    r | i d.k.H.F.` G ,.,.y o.d.d.F.Y.z.d.F.F.d.F.d.r ` F.Y.Y.Y.Y.H.d.z.Y.k.+.r s.s.s.s.s.t.,.,.x r               ",
"                                                    z 0.l k.H.F.d.+.y f f y l d.d.d.F.Y.k.d.d.d.d.d.u v d.H.Y.Y.Y.Y.d.d.Y.k.o.i s.s.s.s.s.p.,.,.$.r               ",
"                                                    &.-.v z.d.d.d.X.d.X.} } y ` d.d.d.F.H.d.d.d.d.d.l v d.d.H.Y.Y.Y.d.d.z.d.} z s.s.s.s.s.s.,.,.,.y               ",
"                                                  r | =.V d.o.l l X.d.d.d.d.+.y ` +.d.d.d.d.d.d.d.d.r ` d.d.z.Y.Y.F.} d.d.d.` F s.s.s.s.s.s.,.,.,.u               ",
"                                                  r &.e.i l i } d.k.k.d.d.d.d.+.i i } d.d.d.d.d.d.+.r X.d.d.g.Y.Y.k.p d.d.d.p 0.s.s.s.s.s.s.,.,.,.d               ",
"                                                y | C.e.y ' d.k.H.Y.Y.F.Y.Y.z.d.d. .i i C o.d.d.d.X.y O.d.d.d.H.z.d.i O.d. .f C.C.C.C.C.C.C.8.8.8.f               ",
"                                              y | 0.| l [ k.H.Y.Y.Y.Y.Y.Y.Y.Y.Y.k.d.d.X.v y p C  .z p d.d.d.d.O.d.d.u o.+.u =.C.C.C.C.C.C.s.8.8.8.y               ",
"                                              S C i h h f z H.Y.Y.Y.Y.Y.Y.Y.Y.Y.Y.F.k.d.d.O.X.c y e ` d.d.d.d.} d.3.y ` i | C.C.C.C.C.C.C.s.r.r.>.y               ",
"                                            z ..t A ;.>.I f o.Y.Y.Y.Y.Y.Y.Y.Y.Y.Y.Y.Y.H.z.' q.d.d.X.O.d.d.d.` } g.} u f =.C.C.C.C.C.C.C.C.C.r.r.*.f i             ",
"                                            | C j $.;.$.N j [ Y.Y.Y.Y.Y.Y.Y.Y.Y.Y.Y.Y.Y.H.z g g v ` o.d.k.X.i X.d.z x -.C.C.C.C.C.C.C.C.C.C.p.r.#.G i             ",
"                                          p S l b N k N N x X.Y.Y.Y.Y.Y.Y.Y.Y.Y.Y.Y.Y.Y.} K / / / L M l ` l z +.l p x #.e.C.C.C.C.C.C.C.C.C.C.t.r.t.l             ",
"              l                       l l l l l x A z l z v F.Y.Y.Y.Y.Y.Y.Y.Y.Y.Y.Y.Y.F.z / 6.S.C.9./ U l c d.' p | { &.1.C.C.C.C.C.C.C.C.C.C.p.t.t.C             ",
"        l x Z j b l         z l l l l l z z i.0.z k b C M.T.T.T.T.T.T.Y.H.T.T.T.T.T.T.d.B ~ / ) 6.a./ ~ x [ 3.l l -.t.C.C.C.C.C.C.C.C.C.C.C.C.C.t.t.{             ",
"        x $.t.t.Y x z z z z z z z x       x C.V.c A A z T.T.T.T.T.T.T.F.F.T.T.Y.Y.T.T.d.z Q Q ! ! ~ _ ! x } } [ v #.u.C.C.C.C.C.C.C.C.C.C.C.C.C.u.t.&.            ",
"      c A $.*.Y I A c c c Z       I       A y.C.[ Z I x j.T.T.T.T.T.Y.z.F.T.T.Y.z.Y.T.3.z z S Y W ^ ^ Y z d.` 3.} { t.C.C.C.C.C.C.C.C.C.C.C.C.C.p.t.e.z           ",
"        S Y Y S k Y v i.A.%.| c   Y   v S G [ C.i.S Y D [ Y.Y.F.T.T.H.k.F.T.T.H.k.Y.T.C  .j.O.[ c S S v } d.c k.o.C u.C.A.A.A.A.A.A.C.A.A.A.C.C.p.u.u.v           ",
"        v S C C x Y C <.A.e.-.} v G &.i.A.Y 4.m.C.C G Y C l.F.z.T.T.F.k.F.T.T.F.k.F.K.v z.T.T.Y.d.X.C [ k.o.} z.k.C 2.p.C.A.A.A.C.A.A.A.A.A.C.C.p.p.u.[           ",
"          C C ` ] ] ] C ] { $.=.] $.2.A.A.-.i.C.A.<.D Y D } z.z.T.T.F.z.z.T.T.z.k.F.H.C K.T.T.Y.k.d.C q.d.` q.z.z.X.] p.p.y.2.2.p.A.A.A.A.A.C.C.p.p.p...          ",
"        ` 1.m.A.A.A.A.A.<.` Y ..] 5.$.A.A.e.2.A.A.i.C Y Y ` 3.z.T.T.z.z.z.T.T.z.z.F.H.` Y.T.T.F.z.X.` z.o.` z.z.z.f.` ..[ ` ` ] ..w.C.A.A.A.A.A.p.p.p.<.          ",
"        2.m.S.S.S.S.S.S.A.] #.| ..u.$.A.S.m.*.S.S.S.` @.@.{ } z.T.T.z.z.z.T.H.z.z.H.H.` M.T.H.z.d.` O.3.` 3.z.z.z.O.` ` ` } d.d.X.` { V.S.S.S.S.p.p.p.2.`         ",
"      ` i.C.S.S.S.S.S.S.S...{ #.y.m.-.i.S.S.#.A.S.n.` { $.$.] d.Y.Y.z.z.F.T.F.z.z.Y.Y.[ j.Y.z.q.} [ +.] O.z.k.O.} ] ` d.d.} ` X.d.k.X.[ V.S.S.S.m.p.p.p.]         ",
"        0.m.A.S.S.A.w.<.[ } [ #.p.C.i.e.S.S.2.p.S.n.] { $.$.{ o.F.Y.z.z.F.H.z.z.z.Y.Y.} 3.v.X.]  .3.] } O.} [ ] ] +.3.[ d.k.} ] ]  .k.O.{ A.A.S.m.p.p.p...        ",
"        1.m.m.S.A.w.w.m.A.S.1.{ C.S.m.-.S.S.i.e.S.w.[ [ $.$.#.} z.F.z.z.F.F.z.z.F.Y.F.O.[ [ } 3.O.[ [ [ ....[ +.3.} X.+.} q.k. .[ } X.3. .1.S.A.m.p.p.i.]         ",
"        o.m.m.S.S.S.S.S.S.S.A.} V.S.S.*.A.S.m.2.S.i.1.} *.*.*.} d.z.z.z.z.z.z.z.F.z.z.d.o.q.3.X.} } } w.m.m.w.} o.k.O.} o.} 3.z.O.[ 3.3.} } n.m.m.m.m.<.          ",
"        o.m.C.S.S.S.S.S.S.S.V. .<.V.S.2.V.S.S.*.A.C.w.} *.2.*.} X.z.z.z.z.z.z.z.z.z.z.z.f.O.} } } o.p.w.p.m.m.4.}  .k.l.O.} } 3.z.3.} o.k.o.} p.m.m.4.            ",
"         .m.m.S.S.S.S.h.3. .} } 2.o.n.i.y.S.S.2.m.m.4...-.i.*. .} k.F.F.F.F.F.F.F.F.k.O.} o.O.} 4.4.} } i.m.m.A.i. . .d.F.f. .} 3.F.z.X.o.z.O.1.m.i.}             ",
"         .4.m.C.S.S.S.B.V.S.S.X.=.V.o.m.0.S.S.y.e.m.o.&.e.5.=. .O.q.F.F.F.F.F.z.f.o. .o.f.k. .4.w.o.X.w.m.C.S.P.S.m.o. .O.F.k.o. .q.F.z.X.3.z.o.w.X.              ",
"          o.m.m.S.S.S.S.P.S.S.3.1.V.w.n.2.A.A.i.2.1.X.2.m.2.2.o.f.o.F.F.M.f.3.o.o.O.l.F.F.3.o.m.i.i.m.m.A.S.S.S.S.S.m.X.X.d.F.z.O.X.l.F.k.X.k.j. .                ",
"          o.4.m.S.S.S.S.S.S.S.4.4.i.V.w.2.i.m.i.o.o.4.m.i.2.1.3.M.O.3.O.o.o.q.l.F.F.F.F.F.3.1.m.m.C.A.S.P.S.S.S.S.S.S.n.X.X.d.F.l.o.O.F.F.q.O.O.                  ",
"            O.m.A.P.P.S.V.w.O.O.w.w.P.b.4.4.1.o.1.y.m.m.2.2.O.F.F.3.3.d.M.H.H.H.H.H.H.H.H.l.o.n.A.P.P.P.P.P.P.P.P.P.P.S.b.o.O.M.F.d.o.k.F.z.o.                    ",
"              3.A.A.j.O.1.w.y.1.1.O.3.O.O.1.1.2.i.m.m.2.2.O.O.M.H.H.F.F.H.H.H.H.H.H.F.H.H.H.3.w.A.S.S.P.P.P.P.P.P.P.P.P.V.1.O.d.F.F.O.3.z.O.                      ",
"              3.w.n.O.4.2.i.V.m.i.y.y.2.y.i.n.V.A.n.e.2.1.[ O.q.H.H.F.F.H.H.H.H.H.F.F.H.H.H.z.O.m.n.A.S.P.P.P.P.P.P.P.P.S.m.O.3.F.F.l.O.O.                        ",
"                3.3.3.3.4.w.y.n.V.A.A.A.A.A.A.m.i.w.4.3.}   3.3.F.H.F.F.H.H.H.H.H.F.F.H.H.H.H.d.3.n.A.S.P.P.P.P.P.P.P.P.P.S.3.3.v.F.k.O.                          ",
"                        q.4.w.w.i.n.n.n.n.n.i.w.w.4.3.      3.3.F.H.F.F.H.H.H.H.H.F.F.H.H.H.H.M.3.V.A.P.P.P.P.P.P.P.P.P.S.A.n.3.f.k.3.                            ",
"                            3.w.w.w.i.i.w.w.w.3.3.3.        q.q.H.H.K.K.H.H.H.H.H.K.K.H.H.H.H.H.f.j.A.S.P.P.P.P.P.P.S.A.A.A.V.3.3.3.3.                            ",
"                                 .3.3.3.3.q.                q.j.H.H.H.H.H.H.H.H.H.H.H.H.H.H.H.H.F.3.B.A.A.S.P.P.P.S.S.S.A.A.B.w.d.l.3.                            ",
"                                                            d.M.Y.H.H.H.Y.Y.Y.Y.H.H.H.H.Y.L.Y.Y.H.k.q.f.n.S.P.P.S.S.S.S.A.j.q.f.K.K.q.                            ",
"                                                            h.K.Y.H.H.H.H.Y.Y.H.H.H.H.H.Y.Y.Y.Y.H.F.f.j.A.S.S.S.S.S.V.j.f.f.M.H.H.H.f.                            ",
"                                                            k.Y.Y.H.H.H.H.Y.Y.H.H.H.H.H.Y.Y.Y.Y.H.M.k.f.f.N.N.B.N.j.f.f.j.z.l.l.l.l.f.                            ",
"                                                            j.l.l.l.l.l.l.l.l.l.j.l.l.z.F.F.z.l.f.j.      j.N.N.M.Z.N.l.n.l.f.                                    ",
"                                                                M.L.K.K.K.L.L.P.Z.                        l.P.P.Y.Y.Y.L.P.M.                                      ",
"                                                                Z.T.T.T.T.T.P.P.B.                        N.P.P.T.T.T.P.P.N.                                      ",
"                                                                M.T.T.T.T.P.P.P.N.                        N.P.P.T.T.T.P.P.N.                                      ",
"                                                                Z.T.T.T.T.P.P.Z.                          Z.L.P.T.T.T.Y.J.M.                                      ",
"                                                                K.T.T.T.T.T.L.K.                            K.T.T.T.T.T.J.F.                                      ",
"                                                                K.T.T.T.T.T.L.                              J.T.T.T.T.T.Y.K.                                      ",
"                                                                P.T.T.T.T.T.Y.K.                          K.Y.T.T.T.T.T.T.J.                                      ",
"                                                            H.Y.T.T.T.T.T.T.Y.H.                          j.L.T.T.T.T.T.Y.J.                                      ",
"                                                      Y.Y.Y.T.T.T.T.T.T.T.T.Y.Y.                        J.T.T.T.T.T.T.T.T.Y.                                      ",
"                                                Y.Y.Y.T.Y.T.T.T.T.T.T.T.P.T.T.T.                        Y.T.T.T.T.T.T.T.T.T.Y.                                    ",
"                                                  Y.Y.T.v.T.P.Y.P.T.Y.Y.Y.Y.Y.Y.                        T.T.T.T.T.T.Y.T.Y.T.T.                                    ",
"                                                        l.T.T.                                          T.T.T.T.T.T.T.T.T.T.                                      ",
"                                                                                                                                                                  "
};
