/* XPM */
static char *_515a1cce5874efb96057d74aafdc36dGGuaC4oroZmvZysE[] = {
/* columns rows colors chars-per-pixel */
"60 60 244 2 ",
"   c None",
".  c #361B1E",
"X  c #361D23",
"o  c #3B2124",
"O  c #34232C",
"+  c #3B252C",
"@  c #3D292D",
"#  c #362631",
"$  c #392633",
"%  c #3D2A32",
"&  c #3C2D3C",
"*  c #372938",
"=  c #3D333E",
"-  c #3A3037",
";  c #2F222B",
":  c #38201E",
">  c #4A281D",
",  c #5A351E",
"<  c #552D1D",
"1  c #442924",
"2  c #4B2C25",
"3  c #452C2C",
"4  c #4B2D2B",
"5  c #432627",
"6  c #542D27",
"7  c #4D332B",
"8  c #493027",
"9  c #53342B",
"0  c #5B342A",
"q  c #5B3627",
"w  c #442C33",
"e  c #482D35",
"r  c #512F32",
"t  c #45313C",
"y  c #4A313D",
"u  c #4A3435",
"i  c #533533",
"p  c #543A33",
"a  c #5B3C33",
"s  c #593937",
"d  c #663829",
"f  c #753B2B",
"g  c #633C33",
"h  c #673C37",
"j  c #763D32",
"k  c #662F27",
"l  c #62381F",
"z  c #5C423B",
"x  c #5A4138",
"c  c #78452A",
"v  c #6C4235",
"b  c #62453C",
"n  c #6C443A",
"m  c #63483E",
"M  c #644134",
"N  c #7C4434",
"B  c #784837",
"V  c #734831",
"C  c #3D3441",
"Z  c #3D3D5A",
"A  c #3D2D40",
"S  c #423543",
"D  c #4B3342",
"F  c #433A45",
"G  c #4A3B4C",
"H  c #473949",
"J  c #543C4C",
"K  c #543B46",
"L  c #443A4F",
"P  c #3D425C",
"I  c #5A4447",
"U  c #4C495D",
"Y  c #4B455A",
"T  c #574859",
"R  c #4C424C",
"E  c #614641",
"W  c #644A43",
"Q  c #6A4C44",
"!  c #674C4A",
"~  c #6D524D",
"^  c #795346",
"/  c #664B57",
"(  c #6C5351",
")  c #6B545A",
"_  c #735658",
"`  c #724D44",
"'  c #79615B",
"]  c #494A67",
"[  c #534C63",
"{  c #564965",
"}  c #585265",
"|  c #474D71",
" . c #58547A",
".. c #534C76",
"X. c #6D5464",
"o. c #685968",
"O. c #725965",
"+. c #755C6D",
"@. c #74586A",
"#. c #755C70",
"$. c #7C5E70",
"%. c #67546B",
"&. c #76626B",
"*. c #7B6473",
"=. c #796673",
"-. c #6B6373",
";. c #8A3D2F",
":. c #84452C",
">. c #8A4829",
",. c #944C2B",
"<. c #98542D",
"1. c #844432",
"2. c #824B3B",
"3. c #894934",
"4. c #934C33",
"5. c #984937",
"6. c #895537",
"7. c #9A5234",
"8. c #975737",
"9. c #8D502F",
"0. c #A54D34",
"q. c #A94D34",
"w. c #A24E39",
"e. c #A55435",
"r. c #AB5335",
"t. c #A55B34",
"y. c #AC5B34",
"u. c #A55439",
"i. c #A95339",
"p. c #AC5D39",
"a. c #A25C3B",
"s. c #B15D35",
"d. c #B15B38",
"f. c #A8562E",
"g. c #9C693C",
"h. c #AD6335",
"j. c #AD623A",
"k. c #A96639",
"l. c #B26234",
"z. c #B46B35",
"x. c #B2643A",
"c. c #B46C3A",
"v. c #BA6C35",
"b. c #BA7334",
"n. c #B67239",
"m. c #B56F34",
"M. c #865843",
"N. c #9B5F40",
"B. c #976243",
"V. c #886B5E",
"C. c #A46C45",
"Z. c #AE7745",
"A. c #826674",
"S. c #856679",
"D. c #866A7B",
"F. c #8A6B7D",
"G. c #876A74",
"H. c #916F7E",
"J. c #8F707E",
"K. c #85747B",
"L. c #90707E",
"P. c #937A70",
"I. c #8C6F69",
"U. c #324E9C",
"Y. c #2F509C",
"T. c #32519D",
"R. c #3C599C",
"E. c #2F4E9C",
"W. c #3554A2",
"Q. c #3C5CA5",
"!. c #3858A6",
"~. c #3A53A9",
"^. c #3C60AC",
"/. c #4C5886",
"(. c #545B88",
"). c #4B5B95",
"_. c #585B92",
"`. c #474B96",
"'. c #675A90",
"]. c #4D6297",
"[. c #56659A",
"{. c #5A6285",
"}. c #676586",
"|. c #6D7192",
" X c #465BB8",
".X c #4F57AE",
"XX c #654DB6",
"oX c #5765A4",
"OX c #4664B5",
"+X c #5768BA",
"@X c #4D67AC",
"#X c #6970B2",
"$X c #7C5CCC",
"%X c #5964C6",
"&X c #6C70CB",
"*X c #505FC0",
"=X c #8F6F84",
"-X c #8F6D88",
";X c #906E84",
":X c #906D88",
">X c #8E7183",
",X c #8B7B87",
"<X c #917184",
"1X c #947689",
"2X c #937C8B",
"3X c #9B7B8D",
"4X c #967A87",
"5X c #9D7E91",
"6X c #A27F92",
"7X c #A37F8F",
"8X c #8978AF",
"9X c #815FD3",
"0X c #8E6ED7",
"qX c #7381C8",
"wX c #9D8294",
"eX c #8D8591",
"rX c #A48295",
"tX c #A6849A",
"yX c #AA869C",
"uX c #AB8B9D",
"iX c #A48A99",
"pX c #AB899B",
"aX c #9190AD",
"sX c #AE8CA2",
"dX c #AB8DAA",
"fX c #B18BA2",
"gX c #B48DA8",
"hX c #AD94A4",
"jX c #B497A9",
"kX c #BC9CB0",
"lX c #9CA1AF",
"zX c #B7A9B4",
"xX c #C19EB2",
"cX c #C3AAB9",
"vX c #858BD0",
"bX c #A5ADD5",
"nX c #B0A0DB",
"mX c #C9B7DE",
"MX c #B8C6E9",
"NX c #DCCCF4",
"BX c #CCCFEE",
"VX c #D7E7F4",
"CX c #E1F1F9",
"ZX c #E2D4F3",
/* pixels */
"                                                                                                                        ",
"                                            kXjXfXsXsXsXsXsXsXsXsXfXjXjXkXcX                                            ",
"                                  eXD.A.wXjXsXsXsXsXsXsXsXsXsXuXsXsXsXsXsXcXrX1X5XhX                                    ",
"                              ,X=.+.+.+.1XtXsXsXsXsXsXsXsXsXuXuXsXsXsXsXsXjX;X=X;X<XtXhX                                ",
"                          K.&.+.+.+.#.#.#.3XyXfXfXfXfXfXfXsXyXyXtXyXsXfXsX6X=X>X>X=X=X1XtXhX                            ",
"                        =.+.+.+.#.+.+.+.#.>X=.2X2X>XF.F.D.S.S.S.D.D.=X1X1X*.=X>X>X=X;X=X=X<X5XjX                        ",
"                      O.+.#.+.+.+.#.#.+.+.) O O $ $ $ $ $ $ $ $ % $ $ # O w ) G.>X=X>X=X>X;X;X1XjX                      ",
"                hXiXuX@.+.#.#.+.O./ K w 3 z I O # # # & & * * & * # # # y z s 3 i ( A.>X=X=X>X<XjXkXcX                  ",
"              wX=X;X5X5XO.+.+./ e 1 1 1 1 8 ~ T ....= '.XXXXXXXXU R /.{ ( s 1 1 1 1 3 ! D.>X>X3XfXfXkXcXcX              ",
"            2X=X=X>X;XwX+./ i 1 1 1 2 0 9 1 ~ %.XX'.C #X$X9X9X9X} } $X'.( s 2 0 6 2 1 1 u ) +.3XsXsXfXgXjXcX            ",
"          2X>X=X=X=X;X1XI 3 1 1 0 f ;.4.k 1 ~ @.0X8XS 8X&X&XnXBXo.%.nXaX~ i 6 ;.;.f k 2 1 3 @ D.sXsXsXsXsXhXcX          ",
"        2X>X=X=X>X;X=X/ 3 p 9 f 5.w.0.w.k 1 ~ G.BXlXS aX%X%XbX+X[ o.MXzX~ 9 6 5.q.0.5.1.q 7 4 e *.pXfXsXfXsXhX          ",
"      2X>X=X;X=X>XS.K w 4 k 1.w.0.0.q.0.f 1 ~ G.VXlXC bX&X&XqX X[ } MXaX~ 7 6 5.q.0.0.i.5.f 2 w w +.rXsXfXfXsXhX        ",
"    2X>X=X;X=X>X*.t 3 8 d 4.e.e.7.0.q.q.f 1 ! _ eX .H }.(.}. . .Y T eX-.~ 8 6 5.q.q.0.e.i.5.f 9 e % X.6XsXfXfXsXhX      ",
"    >X>X=X=X>X*.t w 7 q 5.r.r.i.0.0.r.r.f 1 ! ! - C & = = = C = = S S I ( 8 q 5.r.0.q.q.e.i.0.j 7 w $ / rXsXsXsXsXjX    ",
"  K.F.>X=X;XA.D $ u 0 5.e.r.r.i.0.0.q.r.f 2 W &.bXeX= |.`.`.`.#XU Y #X-.( 7 k 5.r.0.0.0.e.r.0.u.d 7 % % X.yXfXfXyXrX    ",
"  zX<XF.F.*.D $ w 7 c u.u.i.r.i.0.i.q.r.j 8 W ' &X[.S #X#X~.#X@XU } +X .~ 7 k w.r.e.0.i.r.r.e.u.4.9 w $ $ +.5XrX5X3X    ",
"zXjXxXxXiXH O O o d e.y.r.u.i.i.e.i.q.r.1.8 W _ vX_.S ).#X~.W.U.[ [ U.} ~ 7 d i.r.r.0.i.r.r.r.i.i.j 3 O ; O +.2X2XF.1X  ",
"  fXfXfXjXX.t w 3 N d.y.r.r.r.r.e.i.r.q.1.9 W ( +X|.S ).W.W.W.U.] [ U.} ~ 7 d i.r.r.e.i.i.i.r.r.r.7.4 + # # =.+.#.+.F.  ",
"  hXfXfXsXD.D e 1 5.r.i.u.r.d.i.u.u.r.r.1.9 E ( .X|.S ).W.Q.Q.W.[ [ T.o.~ 9 d i.r.r.e.i.i.r.u.e.f.i.0 + $ * *.+.#.+.,X  ",
"  hXsXfXfX1Xy y 5 2.p.i.u.y.d.u.a.8.4.2.g p E ( t S G F F F F F H G F ! ~ p a B 4.7.7.u.i.r.u.i.r.7.6 $ $ t +.#.#.+.,X  ",
"  hXfXsXfX3XD y 3 j y.y.7.8.6.B n M z x p p E ( Y Z * L Z Z Z [ C S P ( Q p p a E x v B 3.8.7.u.r.4.4 $ $ D +.$.#.+.    ",
"  hXsXfXfX5XK y w s B B n b m m m m x a a a m ( oX/.C ].W.T.U.T.U U U.-.Q p a a x z m m W m b V N v 3 $ $ J +.+.+.+.    ",
"    sXsXsXtXJ y w 2 x W m m b b g d d f j g m ( oX/.C [.OXT.E.E.U U T.&.Q a j j f d d M b W W m W 4 1 $ $ T +.+.+.=.    ",
"    sXsXfXuXT y e e 0 v j 1.4.4.7.e.y.y.w.g E ( oX/.S ].+XOXY.Y.U [ W.&.Q a 3.i.y.i.7.7.4.1.c v h 4 % $ $ X.+.+.+.=.    ",
"    uXsXsXsX/ y e r 1.t.e.a.x.p.p.e.y.s.e.M E ~ [./.S ).!.OXT.Y.U U T.O.Q x 4.y.y.p.i.d.y.p.i.r.5.g % # $ X.#.#.+.      ",
"    uXuXsXuXX.y e r 1.y.p.t.x.y.p.e.y.p.e.v E ~ } ] G ] ] ] ] ] R T ] ) ! M 4.y.y.p.e.s.s.p.y.s.4.0 % $ # O.+.#.+.      ",
"    hXrXyXtX@.t t e N y.p.e.l.p.j.e.p.y.u.v E ~ D & A = = = = = S S F ( Q M 4.y.y.p.e.y.s.p.y.d.1.i + ; # X.+.+.+.      ",
"      wX6X3XT $ % e n e.y.e.l.s.h.u.l.y.t.v m ~ (./.= ].Q.Q.Q.Q.Y U Q.( Q b 4.y.y.y.y.y.s.y.p.p.N i $ O $ X.X.O.=.      ",
"      iXuXfXjXJ D w h 4.l.e.h.l.h.t.l.s.e.v m ~ /./.C ].W.W.W.W.U [ Q.( Q v 4.s.y.t.p.p.s.t.p.u.N e # $ F.kXcXwX        ",
"      jX<X;X3X/ D e s >.x.t.l.l.h.t.l.l.y.j Q ~ (./.S ].!.W.W.W.U } @X~ Q n 7.s.y.t.j.s.y.y.j.<.B w $ $ 5XsXfXkX        ",
"        >X;X>XO.y t i :.x.t.l.l.p.t.j.j.k.c E ~ {./.S ].!.!.!.!.U [ @X~ ! v 8.k.j.t.j.l.y.p.l.>.h w # $ tXsXfXkX        ",
"        >X;X>X*.y t r :.y.t.j.l.p.t.8.M.M.` I ~ }.(.S ).R.R.R.R.U [ oX~ W m M.M.2.a.l.l.l.p.h.:.h w # t sXyXfXkX        ",
"        >X;X=XD.D t e N 7.y.j.l.s.h.M.W m m z ~ I S G F F F F G G G R ( W m b W Q a.l.l.l.p.j.N s % $ J sXsXsX          ",
"        2X>X=X>XK y 3 B ,.h.p.l.l.k.^ V.V.m x ~ o.Y & ] | | | | H H  .~ W b ~ P.Q B.l.l.x.y.t.N r $ $ O.sXsXsX          ",
"        2X=X=X>XJ y 3 n >.l.y.j.l.k.n V.I.W x ~ -./.C ].Q.Q.^.OX[ [ [.~ m M ' P.^ 8.l.l.y.j.,.B 4 @ # D.sXsXsX          ",
"          >X=X=X/ y w h :.j.y.l.l.N.M ` Q _ x ~ -./.S ].OXOXOXOX[ } [.( z ~ Q ^ b B j.z.t.x.>.B 3 # $ 1XsXsXjX          ",
"          >X=X=XX.y w s 1.t.j.h.x.M.v p i ! z ~ o./.C ].OXOXOX X[ [ /.~ I _ i p g ^ 8.x.t.x.>.n 3 $ % rXsXsXjX          ",
"          ,X=X=X+.y e r 1.<.c.h.x.Q B x x Q a ~ } /.S [.OX X X~.[ [ (.~ M Q a z B ^ 8.z.h.y.:.h + $ D sXsXsX            ",
"          ,X<X=XA.D t 4 2.,.c.h.c.V M.6.v z u ! / [ G ] | | | | G U } ( z p M 6.B.d 8.z.h.<.:.s + $ / sXfXuX            ",
"            =X=XD.D & 5 B >.c.z.z.8.q M q 0 9 Q ! w A C = = = C S C I ~ a 9 q d q c c.z.h.,.:.i + X X.sXfXiX            ",
"            S.D.F.D * @ B :.k.c.z.c.9.c >.c 0 W +.{.A [.+X+X+X+XY U }.~ a d 9.f >.c.z.c.h.>.2.4 O # F.yXtXhX            ",
"            >XS.*.X.y + h >.8.c.z.c.k.z.v.8.9 W &._.S oXOX X X X[ [ }.~ i c c.l.h.c.z.c.h.>.2.5 # # wX6XrX              ",
"            =.+.+.+.y 3 4 v 8.k.z.z.h.z.c.9.9 m O._.S oX*X X X X{ [ }.~ p V c.z.k.n.m.z.a.N g o # D >X;X>X              ",
"            =.+.$.+.t w X o 3 n M.C.k.n.v.<.q b O._.S oX%X*X&X%X{ [ }.~ a c z.z.c.C.B.^ 7 1 : O # I <X=X1X              ",
"              +.#.+.y w o 6 > 8 7 x M M.B.B.6 z ) _.H oX.X.X+XvX{ [ }.~ 8 B C.B.B q a 7 1 2 2 o $ / >X=XwX              ",
"              #.+.O.D t o B :.B c q 8 2 p a 4 z ( F G F F H H G G R I ~ 3 p a 8 8 6 d N c B 6 O $ @.;X;XwX              ",
"              =.+.O.K y . B >.8.z.k.9.N , < 1 x ~ [ * .. .(. . .L R O.! 1 > , c 9.k.n.k.>.3.1 O $ *.;X;X                ",
"              =.#.@.I y X n >.9.m.n.k.n.n.8.< p ( #XS &X%X&XvXvX] |.eX! 1 N k.c.c.c.m.t.>.2.o + $ D.=X=X                ",
"              =.+.+./ D o g >.>.n.m.k.n.b.k.< s ~ vXY MXbX&X&XMXeXeXeXW 1 8.b.v.n.c.n.<.>.2.. $ & >X=X>X                ",
"                +.+./ D + 9 B :.k.b.c.m.b.c., p ~ VX,XCXCXMXBXCXzXlXK.W > 8.n.m.m.n.b.,.3.v X # D >X=X>X                ",
"                &.+.X.t % o o 9 6.Z.n.c.b.z., p ( mXnXNXNXZXNXNXNXmXK.I > 8.b.c.k.n.C.q 1 X X + J =X=X2X                ",
"                &.+.X.w I I 3 . . 0 B g.n.n.l i ( rXsXdXdXsXdXdXdXdX&.I > g.n.Z.6.d 1 . 5 ( ) $ I =X=X2X                ",
"                =.+.O.J X.O.+.@.I e 1 1 q 2.0 7 ( 4XrXtXtXtXtXtXtXrX_ x 2 ^ V > 1 3 I A.3X7X3X>X) S.D.                  ",
"                +.@.=XsXsXsXuXuXyXyXL.) 3 1 1 s ( 3XfXfXfXyXyXuXyX3X_ z i 1 1 s ) F.F.F.F.=XF.D.S.$.*.                  ",
"                  D.rXtXuXsXsXsXfXfXfXfXiXF.z 7 _ rXsXsXuXuXuXuXtXtXA.z 7 ! A.=X-X:X;X;X=X=X<X=XF.F.*.                  ",
"                  iXrXrXrXtXtXuXuXsXsXsXsXgXfXwXuXfXfXfXsXsXuXyXtXtXuXA.<X>X>X>X>X<X<X<X<X<X<X>X<X>XiX                  ",
"                3XrXrXrXrXrXrXrXrXrX6X6X6X6X6X6X6X5X5X5X3X5X5X6X6X3X3X$.A.F.D.D.F.F.F.F.F.S.S.D.D.F.F.                  ",
"                wXF.L.J.J.J.L.L.J.J.J.L.L.L.J.J.J.L.L.H.H.H.L.H.L.H.L.A.O.O.O.O.O.O.O.O.O.O.O.O.O.O.O.                  ",
"                                                                                                                        "
};
