/* XPM */
static char *_6c34264b91a401ec8fa058335ccf3d0Ne5EQVya04FICncf[] = {
/* columns rows colors chars-per-pixel */
"60 60 244 2 ",
"   c None",
".  c #2E222D",
"X  c #32242E",
"o  c #352632",
"O  c #392634",
"+  c #3C2936",
"@  c #3B2C3A",
"#  c #352933",
"$  c #3D323D",
"%  c #3E393F",
"&  c #4E2F1E",
"*  c #432A24",
"=  c #4B2D24",
"-  c #492D2A",
";  c #4C332C",
":  c #493129",
">  c #58362A",
",  c #422B38",
"<  c #493637",
"1  c #543C35",
"2  c #5C3C33",
"3  c #563B39",
"4  c #522C26",
"5  c #673A28",
"6  c #753B2A",
"7  c #653E34",
"8  c #773F33",
"9  c #62381E",
"0  c #5C423C",
"q  c #5B4138",
"w  c #77442C",
"e  c #6C4434",
"r  c #63453D",
"t  c #6B4A3D",
"y  c #664638",
"u  c #754936",
"i  c #6F452D",
"p  c #3E3441",
"a  c #3F3946",
"s  c #3C3B5A",
"d  c #3C2F41",
"f  c #3D3D63",
"g  c #423543",
"h  c #433A45",
"j  c #453C4A",
"k  c #4A3D4B",
"l  c #443549",
"z  c #563C46",
"x  c #443C53",
"c  c #463D5C",
"v  c #4A354F",
"b  c #463B65",
"n  c #503E66",
"m  c #3E4C7C",
"M  c #3C4776",
"N  c #3F4367",
"B  c #47424C",
"V  c #594544",
"C  c #4B4353",
"Z  c #4B445A",
"A  c #484457",
"S  c #574958",
"D  c #58515E",
"F  c #654B45",
"G  c #6A4D44",
"H  c #6A4E4A",
"J  c #644947",
"K  c #6D524D",
"L  c #6B5147",
"P  c #71514D",
"I  c #7A5545",
"U  c #674D59",
"Y  c #6C5451",
"T  c #6C5759",
"R  c #725953",
"E  c #735D5A",
"W  c #765A57",
"Q  c #714A40",
"!  c #76615C",
"~  c #6E605F",
"^  c #4C4A63",
"/  c #43446B",
"(  c #4C4C6C",
")  c #484766",
"_  c #524D6B",
"`  c #554965",
"'  c #4E516B",
"]  c #57546A",
"[  c #414E7D",
"{  c #484973",
"}  c #544975",
"|  c #46537F",
" . c #565474",
".. c #665969",
"X. c #755C6E",
"o. c #7B5D6D",
"O. c #765F63",
"+. c #765C70",
"@. c #675975",
"#. c #796468",
"$. c #7C6572",
"%. c #766976",
"&. c #6E6C78",
"*. c #843C30",
"=. c #874834",
"-. c #964A35",
";. c #8A5639",
":. c #995638",
">. c #814C2E",
",. c #A44E34",
"<. c #AA4D35",
"1. c #A64E3B",
"2. c #A55235",
"3. c #AA5435",
"4. c #AC5B35",
"5. c #A55339",
"6. c #AC5B39",
"7. c #A95738",
"8. c #B15C34",
"9. c #9C653C",
"0. c #AD6336",
"q. c #AD623A",
"w. c #A7663A",
"e. c #B26335",
"r. c #B46B35",
"t. c #B36C3A",
"y. c #B46837",
"u. c #B5723A",
"i. c #B87237",
"p. c #B2672F",
"a. c #855A44",
"s. c #8F5B46",
"d. c #A25E41",
"f. c #996446",
"g. c #8F6249",
"h. c #A66845",
"j. c #AF7445",
"k. c #8B6C7E",
"l. c #836779",
"z. c #896E6B",
"x. c #AA8B7F",
"c. c #3F5289",
"v. c #2F4F9B",
"b. c #334D9D",
"n. c #3D4E98",
"m. c #3D5594",
"M. c #34529E",
"N. c #394E89",
"B. c #364DA3",
"V. c #3A4AAA",
"C. c #3554A3",
"Z. c #3B53A4",
"A. c #3D52AD",
"S. c #3A5CAB",
"D. c #395AA6",
"F. c #3E4BB3",
"G. c #3C55B1",
"H. c #3C60AE",
"J. c #464B86",
"K. c #475487",
"L. c #425591",
"P. c #475898",
"I. c #51548C",
"U. c #6C5799",
"Y. c #576699",
"T. c #4F6091",
"R. c #656995",
"E. c #726F92",
"W. c #444DAB",
"Q. c #4252AC",
"!. c #465AA8",
"~. c #464AB5",
"^. c #4353B4",
"/. c #4554BA",
"(. c #4958B8",
"). c #535BB7",
"_. c #514CB4",
"`. c #6E50AE",
"'. c #4662AB",
"]. c #5966A9",
"[. c #4764B4",
"{. c #5767B8",
"}. c #5370B7",
"|. c #626ABB",
" X c #6F70AF",
".X c #5857C4",
"XX c #5156C1",
"oX c #795AC9",
"OX c #6C53C9",
"+X c #5C61CA",
"@X c #6567C9",
"#X c #7678CA",
"$X c #6D71D0",
"%X c #8E6F83",
"&X c #8E7184",
"*X c #8F7F8A",
"=X c #937385",
"-X c #957B86",
";X c #9A798C",
":X c #977789",
">X c #9D7D90",
",X c #916F84",
"<X c #A17E95",
"1X c #8D6FD2",
"2X c #9C78E2",
"3X c #A47DE2",
"4X c #7681B0",
"5X c #7C85CC",
"6X c #7D82DA",
"7X c #978693",
"8X c #A28296",
"9X c #A58499",
"0X c #AA869C",
"qX c #AC899E",
"wX c #A38999",
"eX c #8E93AE",
"rX c #AE8CA2",
"tX c #B18CA2",
"yX c #AE94A4",
"uX c #B59BAB",
"iX c #B296A8",
"pX c #BB9EB1",
"aX c #BDA0B1",
"sX c #97A1B3",
"dX c #C5ABBB",
"fX c #868AD4",
"gX c #8695D1",
"hX c #8C90D2",
"jX c #A28EDA",
"kX c #97A2D9",
"lX c #A8AFDE",
"zX c #A991E3",
"xX c #9AA3E1",
"cX c #A6B5E2",
"vX c #B3ADE7",
"bX c #BECDDC",
"nX c #BCCBEB",
"mX c #CADBF2",
"MX c #CAD5EB",
"NX c #CCE6F7",
"BX c #D7EAF6",
"VX c #DEF2F9",
"CX c #C0C2C8",
"ZX c #C2B1E6",
/* pixels */
"                                                                                                                        ",
"                                                                                                                        ",
"                                                uXiXiXiXyXiXiXiXiXuXpXpXaXdX                                            ",
"                                        *X7XuXiXrXrXtXrXrXrXrXtXtXrXrXrXtXuXdXwXwXuX                                    ",
"                                  7X%.$.X.k.9XtXrXrXrXrXrXrXrXqXqXrXrXrXrXtXrX,X%X=XwXiX                                ",
"                                $.X.X.X.+.+.:X9XtXrXtXtXtXrXrXrXrX0XrXrXrXrX;X%X%X%X%X;XwXuX                            ",
"                            $.X.X.X.X.X.X.X.l.&X>X8X>X;X;X:X:X:X:X;X:X>X8X;Xk.%X%X%X%X%X%X:X8XiX                        ",
"    #.H                   X.+.+.X.X.X.X.X.X.$.g + , + + + + , + + , , , , + S $.k.&X%X%X%X=X,X:XiX                V #.  ",
"  #.K J < <         uXyXwXX.X.+.X.X.X.X.U k + X . o # o o o o o o # # # X X O , S $.%X&X%X%X&X&XyXaXdX        V ; 0 K R ",
"  ! P F * * :     7X&X=X8X&XX.X.X...S , O o o X x } n $ U.oXoXoX1Xg Z } b p o o + + z X.k.%X%X;XrXtXpXdX    : * * 2 P Y ",
"  ~ Y F * 5 4 * T &X%X%X,X8X..S k + O o o $ U.OXoX1XU.%  X1X1XvXzXh @.2XoXOX`.x # # o + g U o.:XrXrXrXtX:X; = 5 4 3 K R ",
"    K H = *.=.> * U k.=X%X;Xg . o o d } n C 1X2XvXMXsXp  X).cX5X{.h &.mXvX2XOXb C U.b $ o X o X.qXrXtX=X- 4 6 -.= V P ! ",
"    K K = *.<.-.5 - T &Xk.z O . # U.1XOX} C jXmXBXNXsX%  X).kX(.{.j &.mXgX#XjX} C `.`.1X` . o + X.9X:X< > =.,.-.= F K E ",
"    K K ; 6 <.2.-.5 3 T g # o l  X2X2XoX} C lXBXBXxX Xg  X@X$X(.(.h &.gX(.{.fX%.S 1XoXzX3XI.o + + U V > -.<.,.=.= H K #.",
"    K P 1 5 2.2.,.1.6 ; # o + c ` ` ` ` C C ` ....^ C k Z ^ ^ ^ ^ k D ] ^ ^ ] S S ..] @...D j @ # - > -.,.<.<.*.= K K   ",
"    Y P 3 5 ,.<.,.2.,.5 < l O d n n S Z l + x Z D ] x + x s s x D @ g Z c ] ] C p A ] ^ ` Z $ S < > -.2.,.<.<.6 ; K K   ",
"    ~ K 0 > ,.<.3.2.7.-.2 U.# @.3XZX@XfX{ C |.gXgXgXR.$ R.A.'.4X].g  .!. X|.cX .C ).hX).jXU., E.3 =.5.<.2.3.3.6 1 P Y   ",
"    #.K r > -.,.3.7.3.7.=.z @ @.vX@X.X5X{ S {.).gX(.J.g 4X!.!.C.].h ( B.!.].5X] C ).#X~.hX7X< z 8 5.2.<.5.<.2.5 3 P R   ",
"    E K G > -.<.3.6.3.7.6.8 < &.hX.X.XhX{ C {.(.{.|.J.g T.Z.M.b.b.h ( b.b.!.Q.) C Q.W.|.nXI.< 2 :.2.2.,.3.3.5.5 0 K Y   ",
"    #.K H 2 =.5.7.6.4.7.4.:.> &.BX$XXX5X{ C ).Q.Q.|.c.g T.C.C.M.b.h ( b.b.Z.Z.) A Q.V.gX@XJ.1 =.3.2.1.2.3.3.:.> F K R   ",
"      K K 3 7 >.:.6.4.6.6.4.w U E. .{  .S C ( / / ' Z k ^ ) ) ) ) B Z ( ( ( ( D C ( ( @. .` e 1.3.1.1.2.5.=.7 2 F K !   ",
"      K K q 2 r y =.5.6.6.8.d.< + + + + + @ + @ @ @ @ + @ $ $ $ % @ $ p p % % $ $ g h h a < a.5.2.3.5.=.e r q 2 H K E   ",
"      Y K 0 2 7 V r e ;.:.4.h.#.NXfXhX|./ B eX).Z.Z.m $ T.C.M.!.!.g ) M.Z.Z.Z.c x !.W. X_.E.s.5.2.-.u r 0 7 7 q H K #.  ",
"      Y K r u -.w 7 r F y =.f.T nXgX(.^./ B ].B.C.C.m p Y.M.v.v.v.h ( b.C.C.b.s C W.|.).5XeXs.;.t r r y 6 =.u y K K     ",
"      Y K F u 8.4.:.>.e y y y U $XcX(.Q./ B !.C.C.C.m p R.'.M.v.v.g ' S.D.C.b.s C Z.V.V.gX7Xy t y e w -.2.6.>.r K K     ",
"      E K H e 4.4.4.4.6.;.u 7 S ^.cX^.Q./ C !.C.C.C.m g Y.[.C.v.v.h ' C.D.C.b.s B Z.B.W.kX7X7 e =.:.2.6.3.4.w F K K     ",
"      E K H e 2.4.4.4.8.4.6.:.H J.E.R.J.) C K.m [ [ / k ( [ [ [ m k ^ J.K.J.J.A C K.J.Y.eX~ s.7.4.4.3.6.4.6.u F P Y     ",
"      ~ K H t :.4.4.4.e.0.4.q.t + + + + + g @ $ $ $ $ p p % $ % p p g h g h h h g a h B h 0 h.4.4.4.4.4.4.3.u F P Y     ",
"      z.K H t -.4.4.4.6.q.4.q.I P.L.n.P._ h P.m.m.m.M $ I.m.m.m.m.$ Z P.P.L.m.s j P.P.].L.U h.4.4.4.4.4.4.5.u L K !     ",
"        K K G =.4.8.4.e.q.4.q.a.P.B.B.Z.) B !.C.C.C.m % I.C.C.C.C.h ' D.S.C.B.s C Z.B.].B.O.h.4.4.4.4.4.4.:.u K K #.    ",
"        K K t =.8.e.4.e.0.4.e.I L.B.C.C.N C '.C.C.C.m g T.C.C.C.C.h ' D.[.Z.B.s B Z.'.[.B.E h.4.4.6.4.4.4.:.t K P R     ",
"        Y K G a.h.f.q.e.e.4.e.a.K.Z.C.C./ B '.C.C.C.N.% T.D.C.C.C.h ' S.}.S.B.s A Z.{.Z.Z.W q.4.q.q.4.w.f.s.t K K !     ",
"        Y K H L L I q.e.e.4.y.a. .L.c.c.) C P.c.c.L.{ j I.L.L.L.m.B ' P.P.m.c.A Z L.L.L.L.P q.4.q.e.4.a.L H F K P       ",
"        R K G G G L 9.e.e.4.e.a.< @ d p g l g p p p p g g g g h h h j h j j j h j B B B B I q.4.e.e.w.I L G F K K       ",
"        E K F G z.z.u 0.e.4.e.s.^ M M M s g [ m m m N @ ( m [ [ [ @ C | [ [ [ s a [ [ [ | I q.4.e.0.;.I x.G G K K       ",
"        R K H F ! W y :.e.0.p.g. .C.C.C./ C }.D.D.S.c.p T.S.S.H.[.h ' H.S.S.D.f C A.B.C.!.I 0.4.e.d.e R ! K G K K       ",
"        E K L K V 7 e a.w.e.r.f.( C.C.C.N C }.S.D.S.c.p Y.[.[.[.[.h ' S.S.S.A.f C Q.B.A.P.I 0.4.0.a.u 2 0 R F K Y       ",
"        #.P L K 0 0 u a.;.y.r.f.( C.C.C./ C }.'.S.S.c.g Y.[.[.^.[.h ' A.A.A.V.f C Q.B.B.J.I e.0.:.I ;.q q K F K E       ",
"        E K K 0 F e ;.u ;.y.i.f._ C.C.C./ C '.S.S.S.J.g Y.^.S.S.G.h  .A.F.V.V.f A Q.V.V.J.a.e.0.:.e ;.r r r H K E       ",
"          K K 3 > e u 5 w.e.i.h.3 p g $ g j g g g g g j j h h j j h k j j j B k B B B B V a.y.e.0.i i Q > 1 L K E       ",
"          K K r 5 6 5 ;.y.e.u.h.J / b / a d { { { { c @ ) { { { { @ x { { { { s h { { { S g.e.0.r.w.w 6 6 2 L K z.      ",
"          Y K r i q.0.0.r.p.t.h.S V.A.A./ C [.G.^.(.K.g Y.[.(.^.^.h  ./.^.F.F.f C ^.V.V.} f.e.0.r.r.y.0.>.2 K K         ",
"          R K r 5 0.r.t.r.r.t.j.V A.A.Q./ C [.^.^.(.K.g Y.[.(././.h  ././.^.^.b C /.F.F.c f.y.e.r.r.r.r.>.2 K K         ",
"          R K F e 0.r.y.t.w.f.u < Q.^.^./ C ).^.^.(.K.g ].[.(././.h  ././././.b C _.~.~.c y a.h.t.r.r.r.w F K K         ",
"          Y K J > w.t.h.;.t ; > < W.^.^.{ C {./.(.{.L.g ].XX@XXX(.g  .(.(././.b Z _.~.~.C : > 2 I f.j.t.5 0 K K         ",
"          #.K H 4 g.u > > ; > ;.0 l l l l k x x x x j k x B C Z Z k C A A A Z C C Z A A < a.5 4 1 ; e g.2 0 K R         ",
"          #.K K : ; 3 ; 5 ;.t.u.y c ) ) l @ _ _ ( _ Z # ^ _ _ _  .@ k ] ] _ _ x a  ._ _ < j.r.:.5 4 ; 3 ; r Y E         ",
"          E K K : = 5 ;.t.i.i.u.t W.~./.J.Z .XxX$X$X|.g ).+X+X+X@XA I..X@XfX5XJ.^ XX_._.z j.r.i.t.9.w 4 : J Y R         ",
"            Y K = w u.i.r.u.u.u.u _.XX.X X] +X#XnX@X@XZ @X+X#X#X@X] sXfX@X.X+XE.} .X.XXXz j.i.i.r.r.r.:.= G K E         ",
"            K K ; w i.i.r.i.r.i.u  X#XxX$XE.$XcXNX6X@XR.fX$X@XlXxXE.bXVXBXfX+X#XE.+X#X#XV j.i.r.i.r.u.:.= H K !         ",
"            K K 1 5 i.i.r.i.0.j.y CXmXMXcXbXmXNXNXnXmXMXBXlXxXmXVXMXlXMXBXmXxX@XbXmXcXhXF f.u.t.t.r.i.;.= K K           ",
"            R K 3 9 r.i.i.j.;.= - T %.%.#.$.o.$.wXqXqXrXtXrXrXyXyXiXyXiXuXuXuXiXuXpXpXyX3 = u h.r.r.i.w : K K           ",
"            R K 0 9 r.u.9.y * < U $.$.l.l.l.l.%X8X8X9X9X9X9X9X9X9X9X<X8X8X8X<X<X8X>X>X;Xl.3 * > ;.u.u.i ; K K           ",
"            Y K V & h.u - * H 9XqXrXrXrXqX0XqXtXtXtXtXtXtXtX0XqX0X9X:Xk.%X%X,X%X%X&Xk.%Xk.k.H - * e h.5 1 K K           ",
"            E K F * > * < l.0XqXqXrXrXrXrXrXrXrXrXrXrXrXrXrXrXtXqX9X9X=X%X%X%X,X%X,X%X%X&X&X&X$.3 * = : 3 P Y           ",
"            E P K q * H 8X9X0XqXqXrXrXrXrXrXrXrXqXqXrXqXrXqXqX0X0X0X9X0X%X=X=X&X&X&X=X=X=X=X=X=X=XT - 1 F K R           ",
"            ~ Y Y < O.:X:X:X:X:X:X:X:X:X=X:X=X:X:X:X=X=X=X=X=X=X=X=X=X%Xo.o.o.o.o.o.o.o.o.o.o.o.o.o.T 1 J Y T           ",
"                      -X-X-X-X-X-X-X-X-X-X-X-X-X-X-X:X-X:X-X-X-X-X=X=X=X$.#.#.$.$.$.$.$.$.$.$.$.$.#.%.                  ",
"                                                                                                                        ",
"                                                                                                                        "
};
