/* XPM */
static char *standing1714488104[] = {
/* columns rows colors chars-per-pixel */
"60 60 189 2 ",
"   c None",
".  c #2B1A1B",
"X  c #351A15",
"o  c #3D1B11",
"O  c #3C1F19",
"+  c #311C1B",
"@  c #2C2C0E",
"#  c #32260F",
"$  c #30280F",
"%  c #23350D",
"&  c #342310",
"*  c #382011",
"=  c #3D211C",
"-  c #2F1E20",
";  c #311F21",
":  c #342223",
">  c #3B2424",
",  c #3C2728",
"<  c #3D282A",
"1  c #421E11",
"2  c #481F10",
"3  c #46250F",
"4  c #4C230F",
"5  c #53240F",
"6  c #59260F",
"7  c #5F290F",
"8  c #542D0F",
"9  c #422214",
"0  c #4C2411",
"q  c #4E2911",
"w  c #492519",
"e  c #472C1A",
"r  c #4C2A1B",
"t  c #45251D",
"y  c #532511",
"u  c #542A13",
"i  c #5C2D13",
"p  c #532D1E",
"a  c #592D1A",
"s  c #592710",
"d  c #4C331E",
"f  c #5E3014",
"g  c #56311E",
"h  c #652C0E",
"j  c #6A2E0E",
"k  c #693A0E",
"l  c #74320D",
"z  c #7B350D",
"x  c #672E10",
"c  c #643216",
"v  c #6C3515",
"b  c #63321B",
"n  c #703110",
"m  c #783410",
"M  c #753F12",
"N  c #472B24",
"B  c #4E3821",
"V  c #553424",
"C  c #5E3624",
"Z  c #523E24",
"A  c #55382F",
"S  c #573828",
"D  c #603726",
"F  c #693F2B",
"G  c #663B24",
"H  c #78480D",
"J  c #7F4513",
"K  c #544326",
"L  c #574829",
"P  c #594B2B",
"I  c #574528",
"U  c #61402E",
"Y  c #6A412C",
"T  c #654D2C",
"R  c #60512F",
"E  c #6D4C38",
"W  c #61463E",
"Q  c #744932",
"!  c #6C5431",
"~  c #6D5934",
"^  c #645431",
"/  c #725B35",
"(  c #7F5138",
")  c #705230",
"_  c #786439",
"`  c #7F6A3D",
"'  c #746138",
"]  c #7A5842",
"[  c #6D544D",
"{  c #81370C",
"}  c #83390D",
"|  c #8C3C0C",
" . c #923F0D",
".. c #803810",
"X. c #893C10",
"o. c #913F10",
"O. c #96400C",
"+. c #9A420B",
"@. c #974516",
"#. c #985612",
"$. c #865016",
"%. c #A3460D",
"&. c #AA490D",
"*. c #B34D0E",
"=. c #BC510E",
"-. c #AF5812",
";. c #A8690A",
":. c #BC750C",
">. c #8A5A3E",
",. c #805138",
"<. c #A25220",
"1. c #856B3E",
"2. c #80653B",
"3. c #AB602E",
"4. c #B3742D",
"5. c #C4550F",
"6. c #C56818",
"7. c #CC6523",
"8. c #825B41",
"9. c #85644B",
"0. c #8F6A4E",
"q. c #956345",
"w. c #9C6B4D",
"e. c #8E7543",
"r. c #877040",
"t. c #927744",
"y. c #977D48",
"u. c #937A46",
"i. c #927154",
"p. c #9E7D5E",
"a. c #9B7456",
"s. c #A06D4D",
"d. c #AB7553",
"f. c #A77858",
"g. c #B67E59",
"h. c #AE734D",
"j. c #85706A",
"k. c #DA8311",
"l. c #E28D0C",
"z. c #F9AC12",
"x. c #EFB031",
"c. c #AA8968",
"v. c #B69572",
"b. c #B98862",
"n. c #C0875F",
"m. c #C78050",
"M. c #D28E5F",
"N. c #C18760",
"B. c #CC9066",
"V. c #C6976F",
"C. c #D7996D",
"Z. c #CE9A70",
"A. c #D89D71",
"S. c #E59A66",
"D. c #C2A17B",
"F. c #CCA77F",
"G. c #D5A779",
"H. c #D8AF63",
"J. c #E2A273",
"K. c #EDAB7A",
"L. c #E7A775",
"P. c #FCCA61",
"I. c #FCCF70",
"U. c #AA9B97",
"Y. c #CEAE85",
"T. c #DABA8F",
"R. c #EFB180",
"E. c #E6B98B",
"W. c #F0B583",
"Q. c #F1B886",
"!. c #F2BB89",
"~. c #F4C28F",
"^. c #E7C698",
"/. c #E9C596",
"(. c #F5C291",
"). c #F7C896",
"_. c #F8CC9A",
"`. c #FAD29F",
"'. c #FEDE9F",
"]. c #F3D2A2",
"[. c #FCD5A2",
"{. c #FDD8A5",
"}. c #FFDFAC",
"|. c #FBDCB9",
" X c #FFE4B9",
".X c #CDC5C3",
"XX c #FFEDD0",
"oX c #FBE3C7",
"OX c #FFF3E0",
/* pixels */
"                                                          o o o 1 o o                                                   ",
"                                                    o o i +.*.5.5.=.%.n o                                               ",
"                                              o i | y %.5.5.5.5.5.5.5.5.| o                                             ",
"                                          o m =.5.%.*.5.5.5.5.5.5.5.5.*.v { ..v o                                       ",
"                                        0 %.5.5.5.=.5.5.5.5.5.5.5.5.5.5.=.=.=.5.&.o                                     ",
"                                      0 &.5.5.5.5.*.*.=.5.5.5.5.=.*.+.z h h O.*.=.x o                                   ",
"                                    o h +.j *.5.5.=.| j }  .+. .| j 1 o 5 j x n } l 1                                   ",
"                                    o l 1 | } h h 2 w ,.d.q.Q F ( w.g.g.q.q.d.m.<.l o                                   ",
"                                    o 5 h  .x C A.L.!.!.[.{.[._._.[.}.}.[.[.{.}.T.2 o                                   ",
"                                    o o ..j V ).}.}.}.}.}.}.}.}.}.}.}.Y.c.p.f.c.V.o                                     ",
"                                    o o { o V G 7 h a Y E i.^.}.}.D.b } z  ...m v o                                     ",
"                                    r 9.G y =.5.5.*.5.5.=.m ] }.}.9.O.*.*.*.=.*. .V V                                   ",
"                                  o v.].^.V l %. .|  . . .j p.}.}.v.6 z j 7 7 h 0 v.i.o                                 ",
"                                  o V.w.a.C.,.a w W A A p s.E.}.}.}.D.X U..Xo N.C.s.d.1                                 ",
"                                  o >.J.1 g.K.W.s.A j.[ g Y.}.}.}.}.!.o A N X ,.s.Q N.o                                 ",
"                                0 %.p J.a M.R.E.p.c.v.T.].^.}.}.}.}.!.F i.Y.}. XV.p d.o                                 ",
"                              o %.+.1 a &.7.L.(.}.}.}.[.9.^.}.}.}.}.[.A.C 9.] G.z w a n o                               ",
"                          o o z | 2 l *.5.5.7.S.K.R.L.8.a.}.}.}.}.XXOX[.w.G.E.a =. .o +.y                               ",
"                      1 u u 5 +.6 +.5.5.5.5.5.o.n %.*.w R.(.(.{.}. X X[.K.K.N.p *.5.X.h *.2 o                           ",
"                o o 9 0 i 1 | z &.5.5.5.5.*.h X.5.5.+.y p ( s.A._.[.].L.d.F 2 { %.5.5.u ..5.7 1 0 1                     ",
"            o o 0 c v q 3 4 =.%.5.5.5.5.&.y &.5.5.5.*.+. .l h p d.N.g.C 5 {  .*.5.5.5.%.h l =.2 0 0 0 o                 ",
"            9 u 0 q q v 4 h 5.5.5.5.=.*.y &.5.5.5.5.5.5.=.*.%.| x x n {  .*.5.5.*.&.&.*. .4  .{ 9 q 0 0 o               ",
"        o * f c f 3 f c 2 l 5.5.=.%.5.2 z 5.*.*.5.=.%.&.5.5.&.+.} <.3.| +.%.&.=.5.5.*.%. .} h *.o u u 8 3 9 o           ",
"      1 f u 3 8 b 8 f 3 1 h %.5.&.%. .y %.&. .5.&. .&.5.*.+. .l a.oX}.s.l |  . . .%.%.%.%. .2 *.o u u f q q 3 0         ",
"    o u c f c q e v 8 3 u 9  .&. .%.l j %. .%.+. .&.&. . .{ 5 G B.C.B.h.@.h h h j h 7 7 5 h 2  .o f u q 3 u q f 1       ",
"    9 3 4 3 q v v q 3 3 c u h  . .| 5 z  .+. . . . .z j 6 6 l 7 4 0 j  . .%. .| { { { | | { z  .o 3 u u q f 8 u u o     ",
"  o u v v q q f v 8 3 q 0 3 9 { z { 2 {  .| h 5 4 5 h l { %.&.%.+.%.%.&.5.5.5.=.=.=.=.=.=.+.*.+.1 w 0 t o q 8 q q 1     ",
"  1 q 3 q u q 3 q f u q u f 3 4 2  .2 h 6 5 {  .%.%.&.*.5.5.5.5.5.5.5.5.5.5.5.5.5.5.5.5.5.X. .%.0 n.K.K.>.1 * 9 1 o o   ",
"o 3 c c f v c v c v v u 4 1 1 0 5  .j 5 } %.=.5.5.5.5.5.5.5.5.5.5.5.5.5.5.5.5.5.5.5.5.5.5.*.7 | 3 B.K.K.K.B.d.( o       ",
"o 9 3 q f q 3 q q q 3 3 9 F C.Y 6  . . .*.5.5.5.5.5.5.5.5.5.5.5.5.5.5.5.5.5.5.5.5.5.=.5.5.5.z 6 p K.W.[.}.[._.[.E       ",
"  o w w * 9 * * o E E V s.K.C.o h +.%.&.5.5.5.*.5.5.5.5.5.5.5.5.5.5.5.5.5.5.5.5.5.5...5.5.5. .o d.K.[.}.}.}.}.}.Y.o     ",
"  o N.C.0.] c.[.}.}.}.}.K.K.h.1 6  . .{ z j  .l 5.5.5.5.5.5.5.5.5.5.5.5.5.5.5.5.5.5.m %.*.=.+.2 J.K.}.}.}.}.}.}.}.V     ",
"  p K.K.[.}.}.}.}.}.}.{.K.K.F X o } y H 4.H.H x 5.5.5.5.5.5.5.5.5.5.5.5.5.5.5.5.5.5.m u $.H k 2 C.K.}.}.}.}.}.}.}.i.o   ",
"o >.K.K.}.}.}.}.}.^.Y.F.n.B.o . X o ;.P.I.z.:.j 5.5.5.5.5.5.5.5.5.5.5.5.5.5.5.5.5.5.m ;.P.{.x.o C.K.}.}.}.}.}.}.}.v.o   ",
"o b.K.K.}.Y.p.E r w 0 w u y o . + i 6.l.k.:.J 6 5.5.5.5.5.5.5.5.5.5.5.5.5.5.5.5.5.5.x #.k.l.#.o N.K.!.}.}.}.}.}.}.T.o   ",
"o ,.Q p w o 1 w y y u u u 0 X . . 2 ;.$.f l | 9 5.5.5.5.5.5.5.5.5.5.5.5.5.5.5.5.5.*.1 u M $.y 1 n.K.[.}.}.}.}.}.}.^.o   ",
"o 5 b i u u y 0 2 9 4 a a u X . . . o x  .5.5.2 %.5.5.5.5.5.5.5.5.5.5.5.5.5.5.5.5.m v =.| 1 = o g.K.[.}.}.}.}.}.}.Y.o   ",
"o 0 9 u a c c c c c i u y w o . . - O h  .%.5.{ i 5.5.5.5.5.5.5.5.5.5.5.5.5.5.5.*.2 %.*. .o > o d.K.[.}.}.}.}.|.}.].o   ",
"o u v v x u 0 1 1 1 0 a x i o . . - N o j  .%.*.0 { 5.5.5.5.5.5.5.5.5.5.5.5.5.5.o.6 &.&...o < o b.K.`.}.}.Y.9.] v.}.p.o ",
"o y u 1 w 0 a i x i a u u 0 o X . ; < ; o h |  . .2 ..5.5.5.5.5.5.5.5.5.5.5.5.*.y *.=.@.t < < 1 n.K._.}.p.V ] i.].}.^.o ",
"o 2 b v v c x a u 0 y w 0 r F q.Q O < , . X o h z m y n *.5.5.5.5.5.5.5.5.5.5.m t N < < < < < o C.K.!.}.9.] F ].].}.}.o ",
"  9 v x w w F 8.d.f.N.N.A.R.!.(.J.p > < ; . . . X X 9 o y ..*.5.5.5.5.5.5.5...O < < < < ; ; - o C.K.w.0 F e r I F c.}.o ",
"  1 w ,.n.L.Q.(._.[.[.[.}.}._.Z.K.q.O < < > ; : > , < < < > o n *.5.5.5.5.n o < < < < < , - . o V p V Y.v.9.E v.Y.t }.e ",
"  X C.K.W.}.}.}.}.}.}.}.}.}.K.a N.A.1 < < < < < < < < < < < < > o n =.5.m O < < < < < < , > . o ( d.>.b.Y.v.Y (.^.U [.  ",
"  o s.K.W.}.}.}.}.}.}.}.}.}.W.p ,.s.> < < < < < < < < < < < < < < > y ..X < < < < < < < , , . X >.B.( K.[.].Q K._.w.K.C ",
"    F K.K.}.}.}.}.}.}.}.[.}.[.C.F o . < < < < < < < < < < < < < < < > o , < < < < ; < < < < . X >.K.d.K.K.W.b.C.K.G.Q   ",
"    1 n.K.W.[.)._._._.R.K.K.K.K.d.X . < < < < < < : ; < < < < , ; N < < < < < < : - : < < < . X C n.n.g.N.b.>.o o o     ",
"      D C.K.L.K.C.K.K.K.d.g.w.F X . . : < < < < < - - : < < < : - ; < < < < < < - . ; < < > . + o * o   o               ",
"        o D F C p ,.,.p @ * X X . . . = , < < < , : . . , , < : - - + < < < < : & . X , , : . . o @ o                   ",
"                  o @ % % # o o e e e o X o o = = O X X O o o O X . X X = = O X * * 9 9 * o X o # % o                   ",
"                  o @ % % % % o K P P P L K K Z 9 & @ @ @ % @ @ # # @ $ * 9 e d K P P P P w @ @ % % 1                   ",
"                  o @ % % % % # K 2.' ~ ^ R R P w % % % % % % % % % % % $ d P P P P ^ ' _ d @ % % % o                   ",
"                  o * * & * o o I y.y.y.y.y.t.P o & & & # @ % @ @ @ @ % @ o P ` 1.c.1.y.c.C * # & & o                   ",
"                              o 9 ) 1.y.y.y.r.B o     o o o o o * o o o o o P 1.y.y.y.t./ e                             ",
"                                t Z B T r._ I *                           o e T ' _ Z d 3 *                             ",
"                              1 9 d ) t.y._ P 9                             d L ' 1.1.T q o                             ",
"                            9 ) y.y.1./ r.y.P 9                             d P y.) V ) t.t./ r                         ",
"                          1 ~ y.y.y.y.y.y.t.P o                             e P ` t.y.y.y.y.t._ 9                       ",
"                          e P P ^ ~ / ~ ^ L Z o                             e K P P R R P I K d 9                       ",
"                          o o o 9 9 9 o o o                                   o o o o o o o o                           "
};
