/* XPM */
static char *_52ec06c3f4a4700e3632fc80dbf68ccMJmvSbpZcOfZxhG7[] = {
/* columns rows colors chars-per-pixel */
"60 60 10 1 ",
"  c #005753",
". c #005754",
"X c #005A53",
"o c #005B53",
"O c #005A57",
"+ c #005C57",
"@ c #005A58",
"# c #005D58",
"$ c #015D5B",
"% c #00615A",
/* pixels */
"+###############+O+@OOOXOOO@O@O@@@@+@@@@@OOO####@O@@@@@O@@@@",
"##############@@#@@@OOOOOXOO@@@@@@@OO@@@@OOO++O@@O@O#@@O@###",
"@###@#@@###@@@@@@@@@OOO+OOOO@@@@@@@OO@@@@O+OOOOOO@@@@O#OO###",
"@@###@@OO##@@@@@@@@@OOO++@@O@@@@@@@O+###@OOXO+OOO@@@O#@#@###",
"OO@@#@@@@#######@##@@@OO@@@@@@@@@@@OOOO#OOOOO+O@@@@@@#+#O###",
"OO+@@@@O@@#########@@@OOO@@OO@@@@@@+##O##@+OO#O####OO#######",
"OO+@OO@O@O@########@@@@@@@@@OOOOOOOOO@@@@O####O@#######@####",
"O##@@@@@@@@@###O###@@@@@@@@OOOX++++####@@@@OO##O##OO@@@@@@OO",
"###@@@@@@@@OOO#@##@@@@@@@O@@@OO#######@OO@@@####++OOOOO@OOOO",
"###@@@@@@@@##O#@##@@@@@@@OO@@OO@#######OO@@@@@@+OXOOOOO@OOOO",
"@##@@@@@@@@@#++##OOO@@@@O@OOOO###@@#####@O@@O@OOOOOOOOO@@OOO",
"@@@@O@@@@@@O@######@@@@@O@@OOOO@OOOO@@@@@OO@O@OOXOOOO@@@@OOO",
"@@@@O@@@@@@@@######@@@@@OOOOOOOOOO@OOOOOOOOO@OOXXOXOOOOO@OO@",
"@@@@@@@@@@@@####@##@@@@@OOOO@OOOOOOOOXXXOOOOOOOXOOXOOOOO@@@@",
"OOO@@@@@@@@@@@OOOO#@@@@@OOOO#OOXXOOOOXOOOOO@OOOOX+OOOOOOOOO@",
"O+OO##@@##@@@@@@@OO@@@@@@@OOOO+OXXOOOOOOOOOOOOOOOOOOXXXXOOO#",
"O#O@##@O@@@@@OO@@OOO@@@@@@@OOOOOOOOOOOOOO@OOOOOOOOOOOOOOOOO#",
"OO#@@O@@@O@@@OO@@##@@@O@O@@O@@@@@OOXXXOO@OOO@@@@O@OOO@OOOO@@",
"##@@@O@@@@@@@@@@@OOO@@@@@@@O#@@@O@OOOOOO@OOO######OO@@OOOOO@",
"OO@@@O@@@@@O@@O@@OOOO########OO@@@OO@O#############@@@@@@OOO",
"@@@@O@OO@@@O@OO@@O######@#######@##@#################@@@@@@#",
"OOO@O@@@@@@@O@@@@#######O#######@##########################@",
"OOOO@OOOOOOOO@O@O@#####@O@###############################@@@",
"O+@OOOOOOOOOOOO+O#######O@@##O#########################@@@@O",
"OO@@#OOOOOOO@O++#######+O@@O@#############@####OOO####OOOOOO",
"O@OOOOOOO@@O@@#+##########@O####@########@@##O@##@#@@@##+OO@",
"@O@@@@@O@@@@@#############@O@@O@O@@O@@@@@@@@@@@############@",
"@@@@@@#O#@@@@#####@@@#####@@@OO@O@@@O@OO@@@@@#@###########+#",
"O@#@@####O@@@@#@@#@@@@@#@O@OOO@@O@@@OO@O@##@##@###+####+##+#",
"O@@#######OO@@@#@@@@@@OOO##OOO@@O@@@@O@OO@#O#########+######",
"##@O######OO@@OOO@@@@@O@O+##OOOOOOO@@@@#######+###%##+######",
"@@OO+#OOO+O@@OOOO###@@@OO###OOOOOO@@#########+#######+######",
"OOOOO@OOOOOOOOOO@####@@@@@##@######################++#######",
"OOOO@O@OO@@O@@OO@####@@@@##############################O@@#@",
"#++@@@@OOOOOO#OO@#####@@@@########@@#################@#@O@O@",
"#######OOOOOO#########@@@#######@@@O##@O###@#########@@@O@O@",
"####O@#O@+++O##O+O@###########@#@@@##@OO##@@@@@@@@OOOO@@@O@O",
"################################@@O@@@#O@OO@@@@@@@@@#@@@@O@O",
"##########++##O@@@@@####@#######@@OOO###@##@O@@@@@@@#OO@OOOO",
"#################@@@####@#++####OO@O+#######O##@O@####@@OOXO",
"@##############@@@O@############OO@@@@##########O###O@@@@OOO",
"@O#@@########@@@@@OO##+##########@@@@@@############@@@@@@@OO",
"XXO@@@#####@@O@@@@@@#############@@@@O@##########OOO@OO@@@@@",
"XXOO@O@####@@@@@@@@@###########OO@@@@@@########@OOOO@OO@@@O@",
"XOOO@@@##O@@@@@@@@@+#######@@@@OOO@@#########@@OOOXXO@@@@OOO",
"XOOO@@@@#@@@@@@#@@#########@@@@@@@#####@O@@@@@@OOOOXXO@@@OO@",
"OOOO@@@@@@@@@O@###########OOO@@@@@######OOOOOOOOOOOOOOO@@#O@",
"OOOO@@@@@####+#########OOOOOOOO@########@OOOOXXOXOOO@@@@##OO",
"OOOOOOO@@@@##########@@OOXOOOO@O@@######@OOOOXXXXOOXO@OO@##@",
"OOOOOO@@@@@@#######@@@@OXXOOOOOOO@#####@OOOOOXXXXXOXO@OO@OO@",
"OOOO@@@@O@O@#@O@@@OO@OOOXXXOOOOOOO##@@O@OOXXOXOXXOOXXOO@OOXO",
"OOOO@@@OOOOO@@@@OOO@@OOOOXXOOOOO@@O@@@@OOXXXOXXXOOOXXO@@.XXO",
"O@@@@@OOOOOO@@@@OOXOOOOOOOOO@@@OO@OOOOOOOOXXOXXXXOOXXOOOOOO.",
"O@@@@@@OOO@OO@@OXOXOOOXO@@@@@OOOOOXOOOO@O XXOXXOXOOXOOOOOOO.",
"@##@OOOOOOOOO@OOOXXOOXXOOOOOOOOOOOOOOOOOOOOOOOXOXXOXOOXXOOOO",
"+##+OXOOOOO@@O@OXXXO@XXXOOOOOOO@@@OOOOOOOOXOOXOOOOOOOOOOO XO",
"###OOOOXXOOO@@OOXXXOOOOXXOOOOOO@@OOOOXXXO OOOX OOOOXOO@@@OOO",
"##@OOOOO X OOOOOOOOOOOOOOOOO.OOOOXXOOOOOX  OOOXXOOOOOO@@OOOO",
"#@@OXOOO OXXXXXOOOOOOOOOOXX... XOXXOOXOOO   OOOOOXOOOOOOOOO@",
"@OOOXO O OXXOOOO@@OOOOOO.   .   OXOOOXOO.O OXXOOOOOO@@OOOOOO"
};
