/* XPM */
static char *wall1714469818[] = {
/* columns rows colors chars-per-pixel */
"60 60 235 2 ",
"   c None",
".  c #1C1514",
"X  c #1C191A",
"o  c #0F0B0F",
"O  c #231B16",
"+  c #231B1B",
"@  c #2A1E1B",
"#  c #221616",
"$  c #1E2319",
"%  c #24241B",
"&  c #2B231C",
"*  c #242B1C",
"=  c #2B2C1D",
"-  c #252917",
";  c #32291E",
":  c #27311D",
">  c #2A341D",
",  c #2D3A1D",
"<  c #32331D",
"1  c #35391E",
"2  c #1E1B21",
"3  c #241E23",
"4  c #261F28",
"5  c #242223",
"6  c #2D2423",
"7  c #2C2C22",
"8  c #2B252A",
"9  c #2E292C",
"0  c #262627",
"q  c #332524",
"w  c #332B25",
"e  c #3B2D25",
"r  c #322629",
"t  c #342C2B",
"y  c #3B2D2B",
"u  c #2B3422",
"i  c #2E3B24",
"p  c #2A3527",
"a  c #333324",
"s  c #3B3225",
"d  c #323C24",
"f  c #3C3C24",
"g  c #34332B",
"h  c #3C332C",
"j  c #333D2B",
"k  c #3C3A2C",
"l  c #2D2A34",
"z  c #2C2A37",
"x  c #342D33",
"c  c #322E3C",
"v  c #3A2E31",
"b  c #353234",
"n  c #3C3333",
"m  c #35323C",
"M  c #3B343B",
"N  c #3C3A3A",
"B  c #42332C",
"V  c #443B2D",
"C  c #463829",
"Z  c #433533",
"A  c #453B34",
"S  c #4A3C34",
"D  c #433A3C",
"F  c #4B3D3B",
"G  c #473734",
"H  c #513E37",
"J  c #402E29",
"K  c #344225",
"L  c #3C4425",
"P  c #3A4B24",
"I  c #35432A",
"U  c #3C432B",
"Y  c #3C4C2B",
"T  c #37482A",
"R  c #3E522B",
"E  c #394638",
"W  c #354A2E",
"Q  c #3C421E",
"!  c #44442C",
"~  c #434C2C",
"^  c #474726",
"/  c #44522C",
"(  c #4B5B2C",
")  c #465727",
"_  c #555928",
"`  c #4C413C",
"'  c #484536",
"]  c #534236",
"[  c #53443C",
"{  c #554B3D",
"}  c #5A4B3C",
"|  c #554937",
" . c #485734",
".. c #585736",
"X. c #504D2D",
"o. c #645C3C",
"O. c #614D3F",
"+. c #56662D",
"@. c #4D6234",
"#. c #586735",
"$. c #5D7436",
"%. c #4D6129",
"&. c #64722E",
"*. c #676735",
"=. c #677837",
"-. c #737737",
";. c #6A6A33",
":. c #4A4C1F",
">. c #353342",
",. c #3A3643",
"<. c #3C3945",
"1. c #3D3C4A",
"2. c #363845",
"3. c #302E40",
"4. c #433C44",
"5. c #423F4A",
"6. c #483D45",
"7. c #3F4349",
"8. c #4C4243",
"9. c #45424C",
"0. c #4C454C",
"q. c #4A4647",
"w. c #534543",
"e. c #554A44",
"r. c #5B4C43",
"t. c #53464B",
"y. c #544A4C",
"u. c #5B4D4B",
"i. c #584740",
"p. c #4A5748",
"a. c #5B5344",
"s. c #5D514C",
"d. c #565345",
"f. c #4B4852",
"g. c #534C52",
"h. c #5A4E51",
"j. c #534B55",
"k. c #5C5254",
"l. c #5B5459",
"z. c #585357",
"x. c #614E45",
"c. c #614F4A",
"v. c #635344",
"b. c #65544C",
"n. c #6A564C",
"m. c #6B5B4D",
"M. c #655C46",
"N. c #635553",
"B. c #6C5B54",
"V. c #655A5A",
"C. c #6B5C5B",
"Z. c #665754",
"A. c #725E55",
"S. c #715E5A",
"D. c #725C4F",
"F. c #54624B",
"G. c #6B6746",
"H. c #716847",
"J. c #797849",
"K. c #6D615C",
"L. c #6B6454",
"P. c #756154",
"I. c #74635C",
"U. c #7A665B",
"Y. c #7D6A5C",
"T. c #786857",
"R. c #7C745A",
"E. c #685E61",
"W. c #746561",
"Q. c #756A64",
"!. c #7C6B64",
"~. c #7C6D68",
"^. c #796865",
"/. c #7E716A",
"(. c #6A6261",
"). c #837C4B",
"_. c #816C5E",
"`. c #82755A",
"'. c #826E63",
"]. c #826E69",
"[. c #847265",
"{. c #8A7465",
"}. c #84736B",
"|. c #8A756B",
" X c #8D7A6D",
".X c #877969",
"XX c #927B6D",
"oX c #997D6E",
"OX c #8D7B71",
"+X c #877772",
"@X c #937D72",
"#X c #6D843B",
"$X c #77883B",
"%X c #7B913C",
"&X c #788743",
"*X c #7F9244",
"=X c #83963F",
"-X c #879A47",
";X c #898C51",
":X c #97A749",
">X c #96A94E",
",X c #A3B259",
"<X c #8D8764",
"1X c #98876D",
"2X c #958174",
"3X c #9A8375",
"4X c #95847A",
"5X c #9C8679",
"6X c #9D897C",
"7X c #9B8A75",
"8X c #948D72",
"9X c #A28B7C",
"0X c #A08779",
"qX c #A5917E",
"wX c #9EA566",
"eX c #B7C46B",
"rX c #9F8B81",
"tX c #A48E81",
"yX c #A69183",
"uX c #AB9485",
"iX c #AD9688",
"pX c #AE998B",
"aX c #A89985",
"sX c #B39B8B",
"dX c #B39A88",
"fX c #B79F90",
"gX c #B7A28E",
"hX c #BAA694",
"jX c #C2AC97",
"kX c #CBB39B",
"lX c #CBB5A2",
"zX c #D2BCA8",
"xX c #E3CDB5",
"cX c #E7D1BB",
"vX c #D2C1A7",
/* pixels */
"                                                                                                                        ",
",X:X>X&.$.;X&XR.0X0Xn.Y.0X9X*.*.o.&.$.&X( &X$X#X-X+.*.1XsXiXyX Xv.7XR.>X>X,X-X%X,X:XJ.`.oX@X3Xm.L.`.G.o.#.o.M.=.$X-X,X  ",
") &.#X( K f R.oX0X9X} _.9X3X{.XX[.#.%.+.( ) +.$X_ *.X..X9X9X9X{.x.O.=.#X-X>X,XeX:X:X:X&XR.XXoXv.v._.B.v.B.U.L.#.=.*X%X  ",
"$.$X) L L L H.3X9XoXx._.0X0X0X0XXX! / +.$.%., ~ L ' _.7X5X0X3XP.v...&.=.>X>X=X:X-.$X=X-.*X<XoXP.} } m.{..XR.G._ =.$X&X  ",
"$.+.P @.@.~ [.3X@X@XA.A.3X5X3X3XXX! , K #., d d 1 O._.XX3X3X{.v.} _ L ( %.&.-X) :.&.:X%X#X*.`.|.} ] a.T.H.*.^ L L T =.  ",
", : K @.@.d.'.oX@XXXU.n.@X3XoX3XXX| R K , ) Y , < ] P.oX3XXXD.| [ H C d ) %.#X, Q ) -X$.&X| '.XXU.r.J r.| s s w K i T   ",
"> , - R * ! [.XXoX@X|.} U.@X@X3XT.V T * R R @.U S C ] P.A.O.J O.} U.' L / , K , , K R K , a.{.OXoXr.[ S C S s ; 1 * =   ",
"K > u K d d b.B.S.'.A.F F n.b.x.r.A ; w I , P Y | Z.G J C C H ] t S s ; = - > K , u u - p a.[.@X{.b.B h C a ^ +.+./ T   ",
"* : R R R j n G G G F Z t J S ] S s w @ & > u ~ Y Z G B Z G H J B J r t w % $ K : i K > 7 n G G ` 6.J y h ( &X%X$X%.(   ",
". $ R W R j 6 r r r r r q q 6 @ ; < & O = * # O 7 6 q e q G B @ q e r + i > : u : T p p 7 r v v v q @ B ~ &.=.-X:X=.R   ",
"$ $ p : $ % # + # # # o # . # O = < @ # % = & ; # # O O J J # # # # # @ i T > : $ : I I 7 . # . # % = % d %.%X#X-X$.Y   ",
"$ p p p * a H [ q J q + y & @ ; ; & e C h - @ @ e e B C ; @ @ q e B J @ O I % $ * > I d p w q e k ^ ^ ~ I ( @.$.( T *   ",
"K u i i p A U.{.r.b.r.q a & = B J C H C ; ; q @ e J J S [ O.H J e S B @ O * $ % * 7 w 7 - 6 e V ] C ^ C < - $ , * d i   ",
"I p * p j B.XXXXU.XX'.y ; = s V } x.} C C J ; & H n._.A._.A.U.n.H J q @ 7 * = % g s { w.r G H J e C ^ 1 < % : I P W p   ",
"* * N A n !.XXXX'.@X@Xi.[ V C n.D.n.} x.] < C ; n._._.U._.U._._.A.x.H w u a < & q F n.x.Z r.B.P.H C H C w t u u  .I j   ",
"* b Z.U.P.[.XX XS.oX0Xb.D.[ [ P.U._.} n.O.1 _ C D._.U._._.'._._._._.A.Z k d J < w Z b.n.G B.`.{._.| J J e S h w R p $   ",
"9 Z U.'.'. XXX XU.0X5Xb.'.v.v.`.{.{._.U.m.| ^ e D._.{.{.'.{._._.{.{.A.C w.| ] ! H e H } ` `.{.XX{.{.B.S n B.6.S g 7 u   ",
"' N.'.[. X.X.X}.c.U.B.r.XXU.x.XX{.{.{.XX_.} | B U.XX{._.'._.'.{.{.U.x.| U.U.P.H.;.:.s C C a.G.H.L.L.B.` F P.B.i.n 9 %   ",
"#.M.U.}.|.[.!.I.F r.H w.|.m.O.XX{.XXoXXX`.:.*.^ P.P._._.'.'._._.A.x.C X.H.*.H.;.;.:.s ; w ' ' 7.F.p.u.w.F B.N.6.n i T   ",
"@.Y d d h h h y t y r e b.o.;.J.).).).D._ _ +.:.$XJ.).).H.x.H H n.T.;X<X<X<X*.-.;.M.m.b.n.d.' F.p.W r 5 6 n v e 6 U @.  ",
"~ ~ T L U U < s H F yXhXlXzXvXlXfX0X`.hXjXJ.-.;X-.-XaXhXG.hXm.XXjXkXlXlXkXjX:X_ ;XhXfXjXjXkXqXR I E j t 6 q ; @ % = R   ",
"K > = > U f ..} C Z.6X@X3X5X7X5X0X{.XX0X3Xv.`.{._ -.0XtXP.uXU.yXfXfXsXfXdX0X;._ 9XdXdXiXdXuXiX' j 7 { B.c.[ G q a d  .  ",
"= i F Z a ! O.] B b.3X5X6X9X9XqX0X_._.3X2X} P.{._.{.3X5Xm.0X!.6XsXsXdXdXdX9XM.D.iXdXdXfXdXiXdXU.7 B Z.S.A.A.r.G u * u   ",
"* = L.b.A x.] x.` r.OX6X3X6XyXtX9Xn.m.XX|.] n.|.XXoX3X3Xr. XN.2XuXuXuXuXuXqXU.n.fXdXsXsXdXdXuX|.g A B.I.'.I.c.` 7 $ K   ",
"y A XX{.i.] A.U.A B F r.[ w.s.r.H ! _ { r.w w.'._.'.|.U.h u.F [.tXtXtXtXtXXX-.r.oXuXuXtX6XtX3X[.h k Z.I.Y.S.` B 7 % u   ",
"n ` 3X_.} r.3X X[ XXgXgXgX[.w r.|..XOX3X2X[.u.n h B B C 1 s 7 B.tXtXtXtX0X`.o.u.@X@XOX|.+XOX|.!.; f i.{ r.[ y { n.{ '   ",
"A Z r.v.Z Z.@XZ.B.5X9XuXpXqXr.zXcXxXxXcXcXxXxXR.^ :.^ X.X.X.f ` }.oX5X5XoX@X!.F ].].].OX+X|.}.e.1 H.8XqX3X`.` [. X@X[.  ",
"q.h } y r.b.n.u.Z.5X5X6X6X7Xc.uXdXfXjXfXgXsXdX`._ ;.).dXkXkX1X] r.S.+X|.+X].n.r 6.C.^.W.S.N.w.t ^ ).hXhXiXyXL.|.2X2XoX  ",
"' ' ^ ....v.] F r.OX2X@X2X X` tXyXiXdXyXiXuXqXH.;.oXqXdXfXdXdX{.S Z y y s B ; w y q y y t r & ! ..*.5X6X5X2Xn.|.@X2X@X  ",
"1 ..R.<XwXwX8XT.A [.|.@XXXI.Z OXtXiXuXyXuXyX)._ _.uXdXdXdXiXdXqX0X'.w f X...H..X{._.} d < = Q ..M.R.2X3X7X@Xb.}.XX|.|.  ",
"} yXyXuXaXaXyXpXb.L.!./.!.I.A @X5XyXtXyX9X`.*.| oXdXdXuXuXuXuXuXyXXXZ Y.`._.XX9XtXqX7X`.f k X.m.U.|.OX X2X|.u.e.u.b.r.  ",
"K.6X6XrX4X6XrXrX|.9XaXuXyXyXQ.OXOX@XtXtX0XT.X.A.0XdX9XuX9XqXuX9X5XB.h {.9XqXyX9X9X9X3XoXM.V H.T.{.|.|. X}.'.s.V v.{ B.  ",
"I.!.6X6X4X4X4X4X^.4XrXrXrXrXC.+X|.OXOXOX/.n.B.'.].OX@X@XXX@XOX|.S.6.H oX2X5X9X9X9X9X6X5X.XA ( n..X/.}.].}.^.d.#.H.{.6X  ",
"s.I.OXOX@XOXOXOXn.OX4X+X<X4Xa.Q.}.|.OXOXU.I.!.].].].].].].'.].I.S.h.H tX5X@X@X6X6X2X2XOX.X7 d.b.K.~.Q.W.W.^.e.~ R.@X@X  ",
"k.!.}.}.|.|.|.+Xw./..X&X*X&X=XM.Q.}.}.}.K.I.!.!.].{.'.!.^.S.N.c.t.6.v ].5X@XXX X@X|.|..XL.= ` s.g.V.K.L.V.N.` L U.+X+X  ",
"V.w.I.!.].].W.u.t | $.=.-X-X%X#.( { K.C.8.e.u.r.6.6.6.c.r.t.t.t.6.n r u.N.I.}.}.].T.L.J.*.&.j 8.E b 7.m u.y.t 8.W.^.].  ",
"d.' k ..' <.D t i ( ) #X-X,X,X*X$./ 8 w q 8 t n J v t t v v x r e 6 + v D F q.b.e.~ +.-X-X%X#X+.p 7.I 7.b n X n y.y.k.  ",
"Y ^ f U a % + d #.( T L &X*X&X*X! U . t B.!.h b.@X|.A.6 n.5XuXfXgXjXsXyX6X[.Y.S % #.$X%X,X%X#X+.I p p E ` w.u.8.v w r   ",
"= a k N = = h a % d , K / $.&X) ~ e.e.}.tXpX}.}.sXjXsXc.uXuXhXlXfXsXiXtXpXhXyXY.~ #.&.%X%X-XR $. .M. X9XgXhXhXfXuXrX}.  ",
"@.j g F A ' A n n = 7 : T T / I g B.!.W.OX@X^.U.0XtX2Xu.@X@XOX@XtX9X0X6X7X2X2X Xh * P $.=.R K R u s.5X3X+X+X|.|.OXOX+X  ",
"(  .U w 6 r y.k.y.D n g 7 K * p ` C.K.Z.}.@XA.Z.+X@X].w.].|.|.XX@XOX4X4X@X@XOXXXh 9 > Y ~ i T * a N b./.}.'.}.!.~.].}.  ",
"T Y k M 3 D y.h.k.k.h.D 7 $ 7 g e.Z.N.w.V.I.w.Z.!.!.^.F C.C.S.].|.+X+XOX+X|.|.|.x k i * > * % 7 x N y.y.V.W.!.!.C.C.y.  ",
": > g m 3 m 4.4.q.y.u.8.h p i ' k.Z.u.8.N.N.8.y.W.^.W.D t.C.N.k.h.C.].~.^.}.!.W.t n i t 9 $ p j D 6.9.0.t.y.g.0.0.0.q.  ",
"* K p D 5 + b x m M N D n K  .@.' y.n 9 6.G 8 v 6.u.6.r 6.6.y.g.h.h.h.C.W.C.I.t.8 n D D b 5 I Y N E E 7.6.4.4.4.4.M b   ",
"&XL./.j g h b t % X 5 = a > K / G.!.2X2X2X4X4XOX[.u.% 6 w U ! A 6.8.g.y.k.h.t.4.+ r n n t X $ i p I j j g 8 8 9 8 t A   ",
"rX+X4Xs.6 t w e ` [ [ r.s.d j ' [.uXaXhXqX3X5XaXpXB.K.sX6Xd.! K y r x x b M x 8 I..X|.'.Y.I.e.d.T.a.I I R p k 8.A S Z   ",
"+X+XQ.z.n k.Q.k.A t + 6 q 5 j d.V.}.rXyXpXrX+X}.I.D h.~.rX4X[.M.X.U a = O X 6 t.Q.!.!.W.I.Z.Z.B.Z.I.s.! Y L #.K.s.A N.  ",
"Q.W.V.f.q.(.K.V.K.V.x 9 3 t j q.N.N.l.V.Q.K.N.N.8.x y.N.+XrXyX+XK.' e.{ D N N.K.K.K.C.V.k.V.V.V.V.V.k.q.9 ` k.N.Z 8.k.  ",
"z.j.f.5.6.C.V.C.C.V.D M 5 M r 6.u.h.N.h.V.N.l.V.h.x 8.u.h.u.u.C.Z.s.N.k.8.w.C.V.V.V.V.E.j.k.k.N.z.h.h.g.b q.e.8.t g.y.  ",
"5.9.6.5.c g.l.V.l.h.<.q.8 M 4.4.t.g.j.j.j.l.j.N.h.M x 4.5.t.g.h.k.k.k.k.M 4.k.k.N.k.k.h.l.l.l.h.j.j.0.8.9 q.8.h ` y.0.  ",
"5.4.4.,.l 9.9.f.0.9.N M 3 x 4.4.4.6.0.t.g.0.0.g.j.x l M M M M 6.0.y.t.0.x x y.y.j.j.j.g.y.g.j.j.j.t.f.6.9 n h t 0.q.'   ",
">.m z z 5 m 4.4.<.1.M 8 3 8 4 x x m 4.6.6.4.4.4.,.3 X 5 8 4 4 4 8 9 l t + 4 9 l x M 6.<.4.M x c M <.,.9 6 t 8 N ' /  .  ",
"2 + X X > I u 8 l l N }.4X4X4X.X!.L.w.b 3 3 r A q.C.4XOX}.[.b.X t l.R./.6X4X/.n.w X 4 4 4 4 3 3 5 3 + 5 & % % 7 / Y  .  ",
"x I p.Q.L./ ~ u $ X 8.f.z.V.(.+X].~.}.Q.6.3 (.~./.OX/.}.+X/.V.b y.l.Q./.Q.+X/.Q.h.l o X 6 9 A 8.w.e.' T L P T d +.#.+.  ",
"Y E (./.~.E.E./.V.x m q.f.z.g.l.E.V.V.V.l.9 0.z.k.z.0.h.z.f.0.7 E g.g.z.g.g.z.z.z.4.X K.+XrX/.~.~.+X4X/./.R./ L $.L L.  ",
"q.y.E.E.z.z.z.l.z.<.b 1.9.f.y.g.g.V.k.l.g.3 2.9.9.9.f.j.0.9.N a m f.f.g.0.f.0.g.q.c 2 2.9.9.l.l.l.l.z.~.Q.@.~ ~ Y y.V.  ",
"7.f.f.f.f.f.f.f.f.3.3.2.4.9.f.9.9.q.g.0.0.8 3.1.1.5.f.5.5.4.b 7 l 5.9.5.9.9.6.,.0.<.X m 5.5.9.9.f.f.f.j.7.p p 7 <.9.f.  ",
"7.9.7.7.7.2.1.1.1.3.z 2.,.<.<.5.5.m M 5.1.4 8 3.c ,.5.4.<.<.z 5 l >.<.<.2.1.1.9.1.,.2 b ,.<.5.9.7.9.7.2.c z p p 9.9.9.  ",
"3.2.1.1.2.1.1.1.2.z 2 3.>.,.,.2.,.<.1.<.2.2 c 1.1.4.>.,.,.,.c 3 8 c >.2.>.,.2.2.>.>.X l m m 2.2.7.1.1.>.>.0 $ p N 2.1.  ",
"3.3.2.3.3.3.3.3.z 8 2.z c >.>.3.c 3.c >.c 2 0 c 3.3.,.2.>.c l X 2 z c 3.c c 3.3.z z X 6 b m m >.2.>.c c z 0 $ * p m m   "
};
